STARTFONT 2.1
COMMENT
COMMENT Converted from OpenType font "Xuong.otf" by "otf2bdf 3.0".
COMMENT
FONT -FreeType-Xuong-Bold-R-Normal--55-400-100-100-P-270-ISO10646-1
SIZE 40 100 100
FONTBOUNDINGBOX 59 68 -5 -9
STARTPROPERTIES 19
FOUNDRY "FreeType"
FAMILY_NAME "Xuong"
WEIGHT_NAME "Bold"
SLANT "R"
SETWIDTH_NAME "Normal"
ADD_STYLE_NAME ""
PIXEL_SIZE 55
POINT_SIZE 400
RESOLUTION_X 100
RESOLUTION_Y 100
SPACING "P"
AVERAGE_WIDTH 270
CHARSET_REGISTRY "ISO10646"
CHARSET_ENCODING "1"
FONT_ASCENT 50
FONT_DESCENT 10
COPYRIGHT "-FreeType-Xuong-Bold-R-Normal--55-400-100-100-P-270-ISO10646-1"
_OTF_FONTFILE "Xuong.otf"
_OTF_PSNAME "Xuong"
ENDPROPERTIES
CHARS 445
STARTCHAR 0000
ENCODING 0
SWIDTH 0 0
DWIDTH 0 0
BBX 0 0 0 0
BITMAP
ENDCHAR
STARTCHAR 000D
ENCODING 13
SWIDTH 234 0
DWIDTH 13 0
BBX 0 0 0 0
BITMAP
ENDCHAR
STARTCHAR 0020
ENCODING 32
SWIDTH 234 0
DWIDTH 13 0
BBX 0 0 0 0
BITMAP
ENDCHAR
STARTCHAR 0021
ENCODING 33
SWIDTH 162 0
DWIDTH 9 0
BBX 8 39 1 0
BITMAP
7E
FE
FF
FF
FF
FE
FE
FE
7E
7E
7E
7E
7E
7E
7E
7E
7E
7E
7C
7C
7C
7C
3C
3C
3C
3C
3C
3C
3C
00
00
00
7E
7E
7E
7E
7E
7E
7E
ENDCHAR
STARTCHAR 0022
ENCODING 34
SWIDTH 252 0
DWIDTH 14 0
BBX 14 15 0 24
BITMAP
FEFC
FCFC
FCFC
7CFC
7CFC
7CFC
7CFC
7C78
7C78
7C78
7C78
7878
7878
3878
3878
ENDCHAR
STARTCHAR 0023
ENCODING 35
SWIDTH 720 0
DWIDTH 40 0
BBX 40 39 0 0
BITMAP
00007C0FC0
0000FC0FC0
0000FC0FC0
0000F80F80
0001F81F80
0001F81F80
0001F81F80
0001F01F00
0003F03F00
0003F03F00
0003F03F00
0FFFFFFFFF
0FFFFFFFFF
0FFFFFFFFF
0FFFFFFFFF
0FFFFFFFFF
0FFFFFFFFF
000FC0FC00
000FC0F800
001F81F800
001F81F800
001F81F800
7FFFFFFFF8
FFFFFFFFF8
FFFFFFFFF8
FFFFFFFFF8
FFFFFFFFF8
FFFFFFFFF0
007E07E000
007E07E000
007C0FC000
00FC0FC000
00FC0FC000
00FC0F8000
01F81F8000
01F81F8000
01F81F8000
01F81F0000
03F03F0000
ENDCHAR
STARTCHAR 0024
ENCODING 36
SWIDTH 540 0
DWIDTH 30 0
BBX 26 49 2 -5
BITMAP
003F0000
003F0000
003F0000
003F0000
003F0000
7FFFFC00
7FFFFC00
FFFFFE00
FFFFFF00
FFFFFF80
FFFFFF80
FFFFFFC0
FFFFFFC0
FFFFFFC0
FF803FC0
FFC01FC0
FFE00000
FFF00000
7FF80000
3FFC0000
1FFE0000
0FFF0000
07FF8000
03FFC000
01FFE000
00FFF000
007FF800
003FFC00
001FFE00
000FFF00
0007FF80
0003FFC0
0001FFC0
FE00FFC0
FF007FC0
FFFFFFC0
FFFFFFC0
FFFFFFC0
7FFFFFC0
7FFFFFC0
3FFFFFC0
1FFFFFC0
0FFFFFC0
0FFFFF80
003F0000
003F0000
003F0000
003F0000
003F0000
ENDCHAR
STARTCHAR 0025
ENCODING 37
SWIDTH 612 0
DWIDTH 34 0
BBX 30 39 2 0
BITMAP
7FF007E0
7FF807E0
FFF80FC0
FFF80FC0
FFF81F80
F8781F80
F8783F00
F8783F00
F8787E00
FFF87E00
FFF8FC00
FFF8FC00
7FF9F800
0001F800
0003F800
0003F000
0003F000
0007E000
0007E000
000FC000
000FC000
001F8000
001F8000
003F0000
003F0000
007E0000
007E3FF8
00FC7FFC
00FC7FFC
01FC7FFC
01F87FFC
03F8787C
03F0787C
07F0787C
07E07FFC
07E07FFC
0FC07FFC
0FC07FFC
1F803FF8
ENDCHAR
STARTCHAR 0026
ENCODING 38
SWIDTH 684 0
DWIDTH 38 0
BBX 36 39 2 0
BITMAP
01FFFF0000
01FFFF0000
03FFFF8000
07FFFFC000
07FFFFC000
0FFFFFE000
1FFFFFF000
1FFFFFF000
1FFFFFF000
1FF00FF000
1FE00FF000
1FE00FF000
1FE01FF000
1FE03FF000
1FFFFFE000
3FFFFFE000
7FFFFFC000
FFFFFF8000
FFFFFF8000
FFFFFF8180
FF807F83C0
FF007F87E0
FF007FDFF0
FF003FFFF0
FF001FFFF0
FF001FFFF0
FF000FFFF0
FF000FFFC0
FF001FFF80
FF807FFE00
FFFFFFFF00
FFFFFFFF00
FFFFFFFF80
7FFFFFFFC0
7FFFFFFFC0
3FFFFF3FE0
1FFFFE3FF0
0FFFFC1FF0
0FFFF00FE0
ENDCHAR
STARTCHAR 0027
ENCODING 39
SWIDTH 108 0
DWIDTH 6 0
BBX 7 15 0 24
BITMAP
FE
FC
FC
7C
7C
7C
7C
7C
7C
7C
7C
78
78
38
38
ENDCHAR
STARTCHAR 0028
ENCODING 40
SWIDTH 216 0
DWIDTH 12 0
BBX 11 43 1 -2
BITMAP
03E0
07E0
07E0
0FC0
0F80
1F80
1F00
3F00
7E00
7E00
FC00
FC00
FC00
FC00
FC00
FC00
FC00
FC00
FC00
FC00
FC00
FC00
FC00
FC00
FC00
FC00
FC00
FC00
FC00
FC00
FC00
FC00
FC00
FE00
7E00
3F00
3F00
1F80
1F80
0FC0
07E0
07E0
03E0
ENDCHAR
STARTCHAR 0029
ENCODING 41
SWIDTH 216 0
DWIDTH 12 0
BBX 11 43 0 -2
BITMAP
F800
FC00
7C00
7E00
3F00
3F00
1F80
1F80
0FC0
07C0
07E0
07E0
07E0
07E0
07E0
07E0
07E0
07E0
07E0
07E0
07E0
07E0
07E0
07E0
07E0
07E0
07E0
07E0
07E0
07E0
07E0
07E0
07E0
07E0
0FC0
1FC0
1F80
3F00
3F00
7E00
7E00
FC00
F800
ENDCHAR
STARTCHAR 002A
ENCODING 42
SWIDTH 396 0
DWIDTH 22 0
BBX 20 20 1 19
BITMAP
01F800
01F800
01F800
39F8C0
3DFBC0
7FFFE0
7FFFF0
FFFFF0
3FFFC0
0FFF00
1FFF80
3FFFC0
FFFFF0
7FFFE0
7FFFE0
3DFBC0
11F8C0
01F800
01F800
01F800
ENDCHAR
STARTCHAR 002B
ENCODING 43
SWIDTH 414 0
DWIDTH 23 0
BBX 22 21 1 9
BITMAP
00FC00
00FC00
00FC00
00FC00
00FC00
00FC00
00FC00
00FC00
FFFFFC
FFFFFC
FFFFFC
FFFFFC
FFFFFC
00FC00
00FC00
00FC00
00FC00
00FC00
00FC00
00FC00
00FC00
ENDCHAR
STARTCHAR 002C
ENCODING 44
SWIDTH 180 0
DWIDTH 10 0
BBX 10 13 -1 -5
BITMAP
0F00
0F80
0FC0
0FC0
0FC0
0FC0
0FC0
1F80
1F80
3F00
7E00
7E00
FC00
ENDCHAR
STARTCHAR 002D
ENCODING 45
SWIDTH 414 0
DWIDTH 23 0
BBX 22 6 1 19
BITMAP
FFFFFC
FFFFFC
FFFFFC
FFFFFC
FFFFFC
FFFFFC
ENDCHAR
STARTCHAR 002E
ENCODING 46
SWIDTH 144 0
DWIDTH 8 0
BBX 7 7 1 0
BITMAP
FE
FE
FE
FE
FE
FE
FE
ENDCHAR
STARTCHAR 002F
ENCODING 47
SWIDTH 252 0
DWIDTH 14 0
BBX 17 45 -1 -3
BITMAP
001F80
001F80
001F00
003F00
003F00
003F00
003E00
007E00
007E00
007E00
007C00
00FC00
00FC00
00FC00
00F800
01F800
01F800
01F000
03F000
03F000
03F000
03E000
07E000
07E000
07E000
07C000
0FC000
0FC000
0FC000
0F8000
1F8000
1F8000
1F8000
3F0000
3F0000
3F0000
3F0000
7E0000
7E0000
7E0000
7C0000
FC0000
FC0000
FC0000
F80000
ENDCHAR
STARTCHAR 0030
ENCODING 48
SWIDTH 576 0
DWIDTH 32 0
BBX 28 39 2 0
BITMAP
0FFFFF00
0FFFFF80
1FFFFF80
3FFFFFC0
3FFFFFE0
7FFFFFE0
FFFFFFF0
FFFFFFF0
FFFFFFF0
FFC01FF0
FF801FF0
FF801FF0
FF801FF0
FF801FF0
FF801FF0
FF801FF0
FF801FF0
FF801FF0
FF801FF0
FF801FF0
FF801FF0
FF801FF0
FF801FF0
FF801FF0
FF801FF0
FF801FF0
FF801FF0
FF801FF0
FF801FF0
FFC01FF0
FFFFFFF0
FFFFFFF0
FFFFFFF0
7FFFFFE0
7FFFFFE0
3FFFFFC0
1FFFFF80
0FFFFF80
0FFFFF00
ENDCHAR
STARTCHAR 0031
ENCODING 49
SWIDTH 396 0
DWIDTH 22 0
BBX 18 39 2 0
BITMAP
007F80
00FFC0
01FFC0
07FFC0
0FFFC0
1FFFC0
3FFFC0
FFFFC0
FFFFC0
FFFFC0
FFFFC0
FFFFC0
FF3FC0
FE3FC0
FC3FC0
F83FC0
003FC0
003FC0
003FC0
003FC0
003FC0
003FC0
003FC0
003FC0
003FC0
003FC0
003FC0
003FC0
003FC0
003FC0
003FC0
003FC0
003FC0
003FC0
003FC0
003FC0
003FC0
003FC0
003FC0
ENDCHAR
STARTCHAR 0032
ENCODING 50
SWIDTH 540 0
DWIDTH 30 0
BBX 26 39 2 0
BITMAP
0FFFFF80
0FFFFFC0
1FFFFFC0
3FFFFFC0
3FFFFFC0
7FFFFFC0
FFFFFFC0
FFFFFFC0
FFFFFFC0
FFC03FC0
FFC03FC0
FF803FC0
00007FC0
0000FFC0
0001FFC0
0003FFC0
0007FF80
000FFF00
001FFE00
003FFC00
003FF800
007FF000
00FFF000
01FFE000
03FFC000
07FF8000
0FFF0000
1FFE0000
3FFC0000
7FF80000
FFFFFF80
FFFFFFC0
FFFFFFC0
FFFFFFC0
FFFFFFC0
FFFFFFC0
FFFFFFC0
FFFFFFC0
FFFFFFC0
ENDCHAR
STARTCHAR 0033
ENCODING 51
SWIDTH 522 0
DWIDTH 29 0
BBX 25 39 2 0
BITMAP
FFFFFF00
FFFFFF80
FFFFFF80
7FFFFF80
3FFFFF80
3FFFFF80
1FFFFF80
0FFFFF80
0FFFFF80
0000FF80
0000FF80
0000FF80
0000FF80
0000FF80
0000FF80
07FFFF80
07FFFF80
07FFFF80
07FFFF80
07FFFF80
07FFFF80
07FFFF80
07FFFF80
07FFFF80
0000FF80
0000FF80
0000FF80
0000FF80
0000FF80
0000FF80
07FFFF80
0FFFFF80
1FFFFF80
1FFFFF80
3FFFFF80
7FFFFF80
7FFFFF80
7FFFFF80
7FFFFF00
ENDCHAR
STARTCHAR 0034
ENCODING 52
SWIDTH 576 0
DWIDTH 32 0
BBX 28 39 2 0
BITMAP
000FFE00
000FFE00
001FFF00
003FFF00
003FFF00
007FFF00
007FFF00
00FFFF00
01FFFF00
01FFFF00
03FFFF00
03FFFF00
07FFFF00
0FFDFF00
0FFDFF00
1FF9FF00
1FF9FF00
3FF1FF00
7FE1FF00
7FE1FF00
FFC1FF00
FF81FF00
FF81FF00
FFFFFFE0
FFFFFFE0
FFFFFFF0
FFFFFFF0
FFFFFFF0
FFFFFFF0
FFFFFFF0
7FFFFFF0
7FFFFFF0
0001FF00
0001FF00
0001FF00
0001FF00
0001FF00
0001FF00
0001FF00
ENDCHAR
STARTCHAR 0035
ENCODING 53
SWIDTH 504 0
DWIDTH 28 0
BBX 25 39 2 0
BITMAP
7FFFFF80
7FFFFF80
FFFFFF80
FFFFFF00
FFFFFE00
FFFFFC00
FFFFFC00
FFFFF800
FFFFF000
FF800000
FF800000
FF800000
FF800000
FF800000
FF800000
FFFFFF00
FFFFFF00
FFFFFF80
FFFFFF80
FFFFFF80
FFFFFF80
FFFFFF80
7FFFFF80
0000FF80
0000FF80
0000FF80
0000FF80
0000FF80
0000FF80
0000FF80
07FFFF80
0FFFFF80
1FFFFF80
3FFFFF80
3FFFFF80
7FFFFF80
FFFFFF80
FFFFFF00
FFFFFF00
ENDCHAR
STARTCHAR 0036
ENCODING 54
SWIDTH 540 0
DWIDTH 30 0
BBX 26 39 2 0
BITMAP
7FFFFC00
7FFFFE00
FFFFFE00
FFFFFF00
FFFFFF80
FFFFFF80
FFFFFFC0
FFFFFFC0
FFFFFFC0
FF807FC0
FF803FC0
FF801FC0
FF800000
FF800000
FF800000
FF800000
FF800000
FFFFFF80
FFFFFF80
FFFFFFC0
FFFFFFC0
FFFFFFC0
FFFFFFC0
FFFFFFC0
FFFFFFC0
FFC0FFC0
FF807FC0
FF807FC0
FF807FC0
FFC07FC0
FFFFFFC0
FFFFFFC0
FFFFFFC0
FFFFFFC0
FFFFFFC0
FFFFFFC0
FFFFFFC0
7FFFFFC0
7FFFFF80
ENDCHAR
STARTCHAR 0037
ENCODING 55
SWIDTH 468 0
DWIDTH 26 0
BBX 23 39 1 0
BITMAP
FFFFFC
FFFFFE
FFFFFE
7FFFFE
7FFFFE
3FFFFE
1FFFFE
1FFFFE
0FFFFE
0007FE
0007FE
0007FE
000FFC
000FFC
000FFC
001FF8
001FF8
001FF8
003FF0
003FF0
003FF0
003FE0
007FE0
007FE0
007FE0
00FFC0
00FFC0
00FFC0
01FF80
01FF80
01FF80
03FF00
03FF00
03FF00
07FE00
07FE00
07FE00
07FC00
07FC00
ENDCHAR
STARTCHAR 0038
ENCODING 56
SWIDTH 576 0
DWIDTH 32 0
BBX 28 39 2 0
BITMAP
0FFFFF00
0FFFFF80
1FFFFF80
3FFFFFC0
3FFFFFE0
7FFFFFF0
FFFFFFF0
FFFFFFF0
FFFFFFF0
FFE03FF0
FFC01FF0
FF800FF0
FF800FF0
FF800FF0
FF800FF0
FFC01FF0
FFE03FF0
7FFFFFF0
3FFFFFC0
1FFFFF80
3FFFFFC0
7FFFFFF0
FFE03FF0
FFC01FF0
FF800FF0
FF800FF0
FF800FF0
FF800FF0
FF801FF0
FFC03FF0
FFFFFFF0
FFFFFFF0
FFFFFFF0
7FFFFFF0
7FFFFFE0
3FFFFFC0
1FFFFFC0
0FFFFF80
0FFFFF00
ENDCHAR
STARTCHAR 0039
ENCODING 57
SWIDTH 540 0
DWIDTH 30 0
BBX 26 39 2 0
BITMAP
7FFFFF80
7FFFFFC0
FFFFFFC0
FFFFFFC0
FFFFFFC0
FFFFFFC0
FFFFFFC0
FFFFFFC0
FFFFFFC0
FFC0FFC0
FF807FC0
FF807FC0
FF807FC0
FFC0FFC0
FFFFFFC0
FFFFFFC0
FFFFFFC0
FFFFFFC0
FFFFFFC0
FFFFFFC0
7FFFFFC0
7FFFFFC0
00007FC0
00007FC0
00007FC0
00007FC0
00007FC0
FE007FC0
FF007FC0
FF807FC0
FFFFFFC0
FFFFFFC0
FFFFFFC0
7FFFFFC0
7FFFFFC0
3FFFFFC0
1FFFFFC0
0FFFFFC0
0FFFFF80
ENDCHAR
STARTCHAR 003A
ENCODING 58
SWIDTH 144 0
DWIDTH 8 0
BBX 7 28 1 0
BITMAP
FE
FE
FE
FE
FE
FE
FE
00
00
00
00
00
00
00
00
00
00
00
00
00
00
FE
FE
FE
FE
FE
FE
FE
ENDCHAR
STARTCHAR 003B
ENCODING 59
SWIDTH 162 0
DWIDTH 9 0
BBX 10 33 -2 -5
BITMAP
1FC0
1FC0
1FC0
1FC0
1FC0
1FC0
1FC0
0000
0000
0000
0000
0000
0000
0000
0000
0000
0000
0000
0000
0000
0F80
0FC0
0FC0
0FC0
0FC0
0FC0
0FC0
0FC0
1F80
3F00
3F00
7E00
FC00
ENDCHAR
STARTCHAR 003C
ENCODING 60
SWIDTH 378 0
DWIDTH 21 0
BBX 20 30 1 7
BITMAP
000010
000070
0001F0
0007F0
001FF0
003FF0
00FFF0
03FFF0
0FFFC0
3FFF00
FFFC00
FFF000
FFC000
FF0000
FC0000
FC0000
FE0000
FF8000
FFE000
FFF800
7FFE00
1FFF80
07FFE0
01FFF0
007FF0
001FF0
000FF0
0003F0
0000F0
000030
ENDCHAR
STARTCHAR 003D
ENCODING 61
SWIDTH 414 0
DWIDTH 23 0
BBX 22 14 1 12
BITMAP
FFFFFC
FFFFFC
FFFFFC
FFFFFC
FFFFFC
FFFFFC
000000
000000
000000
FFFFFC
FFFFFC
FFFFFC
FFFFFC
FFFFFC
ENDCHAR
STARTCHAR 003E
ENCODING 62
SWIDTH 378 0
DWIDTH 21 0
BBX 20 30 1 7
BITMAP
800000
E00000
F80000
FE0000
FF8000
FFC000
FFF000
FFFC00
3FFF00
0FFFC0
03FFF0
00FFF0
003FF0
000FF0
0003F0
0003F0
0007F0
001FF0
007FF0
01FFF0
07FFE0
1FFF80
7FFE00
FFF800
FFE000
FF8000
FF0000
FC0000
F00000
C00000
ENDCHAR
STARTCHAR 003F
ENCODING 63
SWIDTH 522 0
DWIDTH 29 0
BBX 26 39 2 0
BITMAP
0FFFFF80
0FFFFF80
1FFFFFC0
3FFFFFC0
3FFFFFC0
7FFFFFC0
FFFFFFC0
FFFFFFC0
FFFFFFC0
FF80FFC0
FF00FFC0
FF00FFC0
0000FF80
0001FF00
0001FF00
0003FE00
0007FC00
0007F800
000FF800
001FF000
001FE000
003FE000
003FE000
003FE000
003FE000
003FE000
003FE000
003FE000
00000000
00000000
00000000
00000000
003FE000
003FE000
003FE000
003FE000
003FE000
003FE000
003FE000
ENDCHAR
STARTCHAR 0040
ENCODING 64
SWIDTH 792 0
DWIDTH 44 0
BBX 40 45 2 -6
BITMAP
7FFFFFFFFE
7FFFFFFFFF
FFFFFFFFFF
FFFFFFFFFF
FFFFFFFFFF
FFFFFFFFFF
FC0000003F
FC0000003F
FC0000003F
FC01FF803F
FC03FFC03F
FC03FFC03F
FC03FFC03F
FC03FFE03F
FC03FFE03F
FC07C3E03F
FC07C3E03F
FC07C3E03F
FC07C3F03F
FC07C1F03F
FC0FC1F03F
FC0FC1F03F
FC0F81F03F
FC0F81F83F
FC0F81F83F
FC1F81F83F
FC1FFFF83F
FC1FFFF83F
FC1FFFFC3F
FC1F7FFC3F
FC3F7EFFFF
FC3F00FFFF
FC3F007FFF
FC3F007FFF
FC3F007FFF
FC7E007FFE
FC00000000
FC00000000
FC00000000
FFFFFF0000
FFFFFF8000
FFFFFFC000
FFFFFFC000
FFFFFFC000
7FFFFFC000
ENDCHAR
STARTCHAR 0041
ENCODING 65
SWIDTH 576 0
DWIDTH 32 0
BBX 31 39 1 0
BITMAP
00FFFE00
01FFFE00
01FFFF00
01FFFF00
03FFFF00
03FFFF00
03FFFF80
03FFFF80
03FFFF80
07F83F80
07F83F80
07F03FC0
07F03FC0
07F03FC0
0FF01FC0
0FF01FC0
0FF01FE0
0FE01FE0
0FE01FE0
1FE01FE0
1FE01FE0
1FE00FF0
1FE00FF0
1FE00FF0
3FF01FF0
3FFFFFF0
3FFFFFF8
3FFFFFF8
3FFFFFF8
7FFFF7F8
7FDFF7F8
7F8007FC
7F8007FC
7F8007FC
FF8003FC
FF8003FC
FF8003FE
FF0003FE
FF0003FE
ENDCHAR
STARTCHAR 0042
ENCODING 66
SWIDTH 576 0
DWIDTH 32 0
BBX 28 39 2 0
BITMAP
FFFFFF00
FFFFFF80
FFFFFF80
FFFFFFC0
FFFFFFE0
FFFFFFE0
FFFFFFF0
FFFFFFF0
FF801FF0
FF801FF0
FF801FF0
FF801FF0
FF801FF0
FF801FF0
FF801FF0
FF803FF0
FFFFFFF0
FFFFFFE0
FFFFFFC0
FFFFFF80
FFFFFFE0
FFFFFFF0
FFFFFFF0
FF803FF0
FF801FF0
FF801FF0
FF801FF0
FF801FF0
FF801FF0
FF801FF0
FF801FF0
FFFFFFF0
FFFFFFF0
FFFFFFE0
FFFFFFE0
FFFFFFC0
FFFFFF80
FFFFFF80
FFFFFF00
ENDCHAR
STARTCHAR 0043
ENCODING 67
SWIDTH 540 0
DWIDTH 30 0
BBX 26 39 2 0
BITMAP
FFFFFC00
FFFFFE00
FFFFFE00
FFFFFF00
FFFFFF80
FFFFFFC0
FFFFFFC0
FFFFFFC0
FFFFFFC0
FF807FC0
FF803FC0
FF800000
FF800000
FF800000
FF800000
FF800000
FF800000
FF800000
FF800000
FF800000
FF800000
FF800000
FF800000
FF800000
FF800000
FF800000
FF800000
FF800000
FF803FC0
FF807FC0
FFFFFFC0
FFFFFFC0
FFFFFFC0
FFFFFFC0
FFFFFF80
FFFFFF00
FFFFFF00
FFFFFE00
FFFFFC00
ENDCHAR
STARTCHAR 0044
ENCODING 68
SWIDTH 576 0
DWIDTH 32 0
BBX 28 39 2 0
BITMAP
FFFFFF00
FFFFFF80
FFFFFF80
FFFFFFC0
FFFFFFE0
FFFFFFE0
FFFFFFF0
FFFFFFF0
FFFFFFF0
FF801FF0
FF801FF0
FF801FF0
FF801FF0
FF801FF0
FF801FF0
FF801FF0
FF801FF0
FF801FF0
FF801FF0
FF801FF0
FF801FF0
FF801FF0
FF801FF0
FF801FF0
FF801FF0
FF801FF0
FF801FF0
FF801FF0
FF801FF0
FF801FF0
FFFFFFF0
FFFFFFF0
FFFFFFF0
FFFFFFE0
FFFFFFE0
FFFFFFC0
FFFFFF80
FFFFFF80
FFFFFF00
ENDCHAR
STARTCHAR 0045
ENCODING 69
SWIDTH 540 0
DWIDTH 30 0
BBX 26 39 2 0
BITMAP
FFFFFC00
FFFFFE00
FFFFFE00
FFFFFF00
FFFFFF80
FFFFFF80
FFFFFFC0
FFFFFFC0
FFFFFFC0
FF803FC0
FF801FC0
FF800000
FF800000
FF800000
FF800000
FF800000
FFFFE000
FFFFE000
FFFFE000
FFFFE000
FFFFE000
FFFFE000
FFFFE000
FF800000
FF800000
FF800000
FF800000
FF800000
FF801FC0
FF801FC0
FFFFFFC0
FFFFFFC0
FFFFFFC0
FFFFFF80
FFFFFF80
FFFFFF00
FFFFFE00
FFFFFE00
FFFFFC00
ENDCHAR
STARTCHAR 0046
ENCODING 70
SWIDTH 504 0
DWIDTH 28 0
BBX 24 39 2 0
BITMAP
FFFFF8
FFFFFC
FFFFFC
FFFFFE
FFFFFE
FFFFFF
FFFFFF
FFFFFF
FFFFFF
FF807F
FF803F
FF8000
FF8000
FF8000
FF8000
FF8000
FF8000
FF8000
FFFFF8
FFFFF8
FFFFF8
FFFFF8
FFFFF8
FFFFF8
FFFFF8
FF8000
FF8000
FF8000
FF8000
FF8000
FF8000
FF8000
FF8000
FF8000
FF8000
FF8000
FF8000
FF8000
FF8000
ENDCHAR
STARTCHAR 0047
ENCODING 71
SWIDTH 540 0
DWIDTH 30 0
BBX 27 39 2 0
BITMAP
FFFFFC00
FFFFFE00
FFFFFF00
FFFFFF80
FFFFFF80
FFFFFFC0
FFFFFFE0
FFFFFFE0
FFFFFFE0
FF801FE0
FF801FE0
FF800000
FF800000
FF800000
FF800000
FF800000
FF800000
FF87FFE0
FF87FFE0
FF87FFE0
FF87FFE0
FF87FFE0
FF87FFE0
FF87FFE0
FF87FFE0
FF803FE0
FF803FE0
FF803FE0
FF803FE0
FF803FE0
FFFFFFE0
FFFFFFE0
FFFFFFE0
FFFFFFE0
FFFFFFE0
FFFFFFE0
FFFFFFE0
FFFFFFE0
FFFFF3E0
ENDCHAR
STARTCHAR 0048
ENCODING 72
SWIDTH 576 0
DWIDTH 32 0
BBX 28 39 2 0
BITMAP
FF801FF0
FF801FF0
FF801FF0
FF801FF0
FF801FF0
FF801FF0
FF801FF0
FF801FF0
FF801FF0
FF801FF0
FF801FF0
FF801FF0
FF801FF0
FF801FF0
FFC03FF0
FFFFFFF0
FFFFFFF0
FFFFFFF0
FFFFFFF0
FFFFFFF0
FFFFFFF0
FFFFFFF0
FFFFFFF0
FFC03FF0
FF801FF0
FF801FF0
FF801FF0
FF801FF0
FF801FF0
FF801FF0
FF801FF0
FF801FF0
FF801FF0
FF801FF0
FF801FF0
FF801FF0
FF801FF0
FF801FF0
FF801FF0
ENDCHAR
STARTCHAR 0049
ENCODING 73
SWIDTH 234 0
DWIDTH 13 0
BBX 9 39 2 0
BITMAP
FF80
FF80
FF80
FF80
FF80
FF80
FF80
FF80
FF80
FF80
FF80
FF80
FF80
FF80
FF80
FF80
FF80
FF80
FF80
FF80
FF80
FF80
FF80
FF80
FF80
FF80
FF80
FF80
FF80
FF80
FF80
FF80
FF80
FF80
FF80
FF80
FF80
FF80
FF80
ENDCHAR
STARTCHAR 004A
ENCODING 74
SWIDTH 504 0
DWIDTH 28 0
BBX 24 39 2 0
BITMAP
07FFFF
07FFFF
07FFFF
07FFFF
07FFFF
07FFFF
07FFFF
07FFFF
07FFFF
0001FF
0001FF
0001FF
0001FF
0001FF
0001FF
0001FF
0001FF
0001FF
0001FF
0001FF
0001FF
0001FF
0001FF
0001FF
0001FF
0001FF
0001FF
0001FF
FF81FF
FFC1FF
FFFFFF
FFFFFF
FFFFFF
7FFFFF
7FFFFF
3FFFFF
1FFFFF
0FFFFF
0FFFFF
ENDCHAR
STARTCHAR 004B
ENCODING 75
SWIDTH 558 0
DWIDTH 31 0
BBX 28 39 2 0
BITMAP
FF801FF0
FF803FF0
FF807FF0
FF807FF0
FF80FFF0
FF81FFE0
FF81FFC0
FF83FFC0
FF87FF80
FF87FF00
FF8FFE00
FF9FFE00
FF9FFC00
FFBFF800
FFFFF000
FFFFF000
FFFFE000
FFFFC000
FFFFC000
FFFF8000
FFFF8000
FFFFC000
FFFFE000
FFFFE000
FFFFF000
FFBFF800
FF9FFC00
FF9FFC00
FF8FFE00
FF87FF00
FF83FF80
FF83FF80
FF81FFC0
FF80FFE0
FF80FFF0
FF807FF0
FF803FF0
FF803FF0
FF801FF0
ENDCHAR
STARTCHAR 004C
ENCODING 76
SWIDTH 414 0
DWIDTH 23 0
BBX 21 39 2 0
BITMAP
FF8000
FF8000
FF8000
FF8000
FF8000
FF8000
FF8000
FF8000
FF8000
FF8000
FF8000
FF8000
FF8000
FF8000
FF8000
FF8000
FF8000
FF8000
FF8000
FF8000
FF8000
FF8000
FF8000
FF8000
FF8000
FF8000
FF8000
FF8000
FF8000
FFC000
FFFFF8
FFFFF8
FFFFF8
FFFFF8
FFFFF0
FFFFE0
FFFFC0
FFFFC0
FFFF80
ENDCHAR
STARTCHAR 004D
ENCODING 77
SWIDTH 684 0
DWIDTH 38 0
BBX 34 39 2 0
BITMAP
0FFC07FC00
0FFC0FFE00
1FFC0FFF00
3FFC0FFF00
3FFE0FFF80
7FFE0FFFC0
FFFE0FFFC0
FFFE0FFFC0
FFFE1FFFC0
FFFE1FFFC0
FFFF1FFFC0
FFFF1FFFC0
FFFF1FFFC0
FFBF1F3FC0
FFBF3F3FC0
FF9F3F3FC0
FF9F3F3FC0
FF9FBF3FC0
FF9FBE3FC0
FF9FBE3FC0
FF9FBE3FC0
FF8FFE3FC0
FF8FFE3FC0
FF8FFE3FC0
FF8FFE3FC0
FF8FFC3FC0
FF8FFC3FC0
FF8FFC3FC0
FF87FC3FC0
FF83F83FC0
FF80003FC0
FF80003FC0
FF80003FC0
FF80003FC0
FF80003FC0
FF80003FC0
FF80003FC0
FF80003FC0
FF80003FC0
ENDCHAR
STARTCHAR 004E
ENCODING 78
SWIDTH 558 0
DWIDTH 31 0
BBX 28 39 2 0
BITMAP
0F801FF0
0F801FF0
1FC01FF0
3FC01FF0
3FE01FF0
7FE01FF0
FFF01FF0
FFF01FF0
FFF81FF0
FFF81FF0
FFFC1FF0
FFFC1FF0
FFFC1FF0
FFFE1FF0
FFFE1FF0
FFFF1FF0
FFFF1FF0
FFFF9FF0
FFFF9FF0
FFFFDFF0
FF9FFFF0
FF9FFFF0
FF8FFFF0
FF8FFFF0
FF8FFFF0
FF87FFF0
FF87FFF0
FF83FFF0
FF83FFF0
FF81FFF0
FF81FFF0
FF80FFF0
FF80FFF0
FF80FFE0
FF807FC0
FF807FC0
FF803F80
FF803F00
FF801E00
ENDCHAR
STARTCHAR 004F
ENCODING 79
SWIDTH 612 0
DWIDTH 34 0
BBX 30 39 2 0
BITMAP
0FFFFFC0
0FFFFFE0
1FFFFFE0
3FFFFFF0
3FFFFFF8
7FFFFFFC
FFFFFFFC
FFFFFFFC
FFFFFFFC
FFC007FC
FF8007FC
FF8003FC
FF8003FC
FF8003FC
FF8003FC
FF8003FC
FF8003FC
FF8003FC
FF8003FC
FF8003FC
FF8003FC
FF8003FC
FF8003FC
FF8003FC
FF8003FC
FF8003FC
FF8003FC
FF8003FC
FF8003FC
FFC007FC
FFFFFFFC
FFFFFFFC
FFFFFFFC
7FFFFFFC
7FFFFFF8
3FFFFFF0
1FFFFFF0
0FFFFFE0
0FFFFFC0
ENDCHAR
STARTCHAR 0050
ENCODING 80
SWIDTH 540 0
DWIDTH 30 0
BBX 26 39 2 0
BITMAP
FFFFFC00
FFFFFC00
FFFFFE00
FFFFFF00
FFFFFF80
FFFFFF80
FFFFFFC0
FFFFFFC0
FFFFFFC0
FF80FFC0
FF807FC0
FF807FC0
FF807FC0
FF807FC0
FF807FC0
FF807FC0
FF807FC0
FF80FFC0
FFFFFFC0
FFFFFFC0
FFFFFFC0
FFFFFF80
FFFFFF00
FFFFFE00
FFFFFE00
FFFFFC00
FF800000
FF800000
FF800000
FF800000
FF800000
FF800000
FF800000
FF800000
FF800000
FF800000
FF800000
FF800000
FF800000
ENDCHAR
STARTCHAR 0051
ENCODING 81
SWIDTH 648 0
DWIDTH 36 0
BBX 34 39 2 -1
BITMAP
0FFFFFC000
0FFFFFE000
1FFFFFE000
3FFFFFF000
3FFFFFF800
7FFFFFFC00
FFFFFFFC00
FFFFFFFC00
FFFFFFFC00
FFC007FC00
FF8007FC00
FF8003FC00
FF8003FC00
FF8003FC00
FF8003FC00
FF8003FC00
FF8003FC00
FF8003FC00
FF8003FC00
FF8003FC00
FF8003FC00
FF8003FC00
FF8003FC00
FF8003FC00
FF8003FC00
FF8003FC00
FF8003FC00
FF8003FC00
FF8003FC00
FFC007FE00
FFFFFFFF80
FFFFFFFFC0
FFFFFFFFC0
7FFFFFFFC0
7FFFFFFFC0
3FFFFFFFC0
1FFFFFFF80
0FFFFFFF00
0FFFFFCE00
ENDCHAR
STARTCHAR 0052
ENCODING 82
SWIDTH 540 0
DWIDTH 30 0
BBX 27 39 2 0
BITMAP
FFFFFC00
FFFFFC00
FFFFFE00
FFFFFF00
FFFFFF80
FFFFFF80
FFFFFFC0
FFFFFFC0
FFFFFFC0
FF80FFC0
FF807FC0
FF807FC0
FF807FC0
FF807FC0
FF807FC0
FF80FFC0
FFFFFF80
FFFFFF80
FFFFFF00
FFFFFE00
FFFFFC00
FFFFFC00
FFFFFC00
FFFFFC00
FF87FE00
FF83FE00
FF83FE00
FF83FF00
FF81FF00
FF81FF80
FF81FF80
FF80FFC0
FF80FFC0
FF80FFC0
FF807FE0
FF807FE0
FF807FE0
FF803FE0
FF803FE0
ENDCHAR
STARTCHAR 0053
ENCODING 83
SWIDTH 540 0
DWIDTH 30 0
BBX 26 39 2 0
BITMAP
7FFFFC00
7FFFFC00
FFFFFE00
FFFFFF00
FFFFFF80
FFFFFF80
FFFFFFC0
FFFFFFC0
FFFFFFC0
FF803FC0
FFC01FC0
FFE00000
FFF00000
7FF80000
3FFC0000
1FFE0000
0FFF0000
07FF8000
03FFC000
01FFE000
00FFF000
007FF800
003FFC00
001FFE00
000FFF00
0007FF80
0003FFC0
0001FFC0
FE00FFC0
FF007FC0
FFFFFFC0
FFFFFFC0
FFFFFFC0
7FFFFFC0
7FFFFFC0
3FFFFFC0
1FFFFFC0
0FFFFFC0
0FFFFF80
ENDCHAR
STARTCHAR 0054
ENCODING 84
SWIDTH 522 0
DWIDTH 29 0
BBX 30 39 0 0
BITMAP
0FFFFF80
1FFFFFC0
1FFFFFE0
3FFFFFE0
7FFFFFF0
7FFFFFF8
FFFFFFFC
FFFFEFFC
FFBFE7FC
FE3FE3FC
FC3FE0FC
003FE000
003FE000
003FE000
003FE000
003FE000
003FE000
003FE000
003FE000
003FE000
003FE000
003FE000
003FE000
003FE000
003FE000
003FE000
003FE000
003FE000
003FE000
003FE000
003FE000
003FE000
003FE000
003FE000
003FE000
003FE000
003FE000
003FE000
003FE000
ENDCHAR
STARTCHAR 0055
ENCODING 85
SWIDTH 612 0
DWIDTH 34 0
BBX 30 39 2 0
BITMAP
FF8007FC
FF8007FC
FF8007FC
FF8007FC
FF8007FC
FF8007FC
FF8007FC
FF8007FC
FF8007FC
FF8007FC
FF8007FC
FF8007FC
FF8007FC
FF8007FC
FF8007FC
FF8007FC
FF8007FC
FF8007FC
FF8007FC
FF8007FC
FF8007FC
FF8007FC
FF8007FC
FF8007FC
FF8007FC
FF8007FC
FF8007FC
FF8007FC
FF8007FC
FFC00FFC
FFFFFFFC
FFFFFFFC
FFFFFFFC
7FFFFFF8
7FFFFFF8
3FFFFFF0
1FFFFFE0
0FFFFFC0
0FFFFFC0
ENDCHAR
STARTCHAR 0056
ENCODING 86
SWIDTH 576 0
DWIDTH 32 0
BBX 32 39 0 0
BITMAP
FF8001FF
7F8001FE
7F8001FE
7F8001FE
7FC003FE
7FC003FE
3FC003FC
3FC003FC
3FC003FC
3FC003FC
3FE007FC
1FE007F8
1FE007F8
1FE007F8
1FE007F8
1FE007F8
0FE007F0
0FF00FF0
0FF00FF0
0FF00FF0
0FF00FF0
07F00FE0
07F00FE0
07F81FE0
07F81FE0
07F81FE0
03F81FC0
03F81FC0
03F81FC0
03F81FC0
03FFFFC0
01FFFF80
01FFFF80
01FFFF80
01FFFF80
01FFFF80
00FFFF00
00FFFF00
007FFE00
ENDCHAR
STARTCHAR 0057
ENCODING 87
SWIDTH 882 0
DWIDTH 49 0
BBX 45 39 2 0
BITMAP
FF8000000FF8
FF8000000FF8
FF8000000FF8
FF8000000FF8
FFC000001FF8
FFC000001FF8
7FC000001FF0
7FC000001FF0
7FC000001FF0
7FE000001FF0
3FE000003FF0
3FE01FC03FE0
3FE03FE03FE0
3FE03FF03FE0
3FF03FF03FE0
1FF07FF03FE0
1FF07FF07FC0
1FF07FF87FC0
1FF07FF87FC0
1FF0FFF87FC0
0FF8FDF87FC0
0FF8FDFCFF80
0FF9FCFCFF80
0FF9FCFCFF80
0FF9F8FCFF80
07FFF8FFFF80
07FFF8FFFF00
07FFF87FFF00
07FFF87FFF00
03FFF07FFF00
03FFF07FFF00
03FFF07FFE00
03FFF03FFE00
03FFF03FFE00
01FFE03FFE00
01FFE03FFE00
01FFE03FFC00
01FFE01FFC00
01FFE01FFC00
ENDCHAR
STARTCHAR 0058
ENCODING 88
SWIDTH 612 0
DWIDTH 34 0
BBX 30 39 2 0
BITMAP
FF8007FC
FF8007FC
FFC007FC
FFC00FFC
FFC00FFC
7FE01FF8
7FE01FF8
3FF03FF0
3FF03FF0
1FF03FE0
1FF87FE0
0FF87FC0
0FFCFFC0
07FCFF80
07FDFF80
03FFFF00
03FFFF00
01FFFE00
01FFFE00
01FFFF00
03FFFF00
03FFFF00
07FFFF80
07FFFF80
07FFFFC0
0FFCFFC0
0FFCFFC0
1FF87FE0
1FF87FE0
3FF03FF0
3FF03FF0
3FF03FF8
7FE01FF8
7FE01FF8
FFC00FFC
FFC00FFC
FFC007FC
FF8007FC
FF8007FC
ENDCHAR
STARTCHAR 0059
ENCODING 89
SWIDTH 468 0
DWIDTH 26 0
BBX 26 39 0 0
BITMAP
FF003FC0
FF803FC0
FF807FC0
FF807FC0
FFC07FC0
7FC0FF80
7FC0FF80
3FE0FF80
3FE1FF00
1FE1FF00
1FF1FE00
1FF3FE00
0FF3FC00
0FFBFC00
07FFF800
07FFF800
03FFF800
03FFF000
01FFF000
01FFE000
01FFE000
00FFC000
00FFC000
007FC000
007F8000
007F8000
007F8000
007F8000
007F8000
007F8000
007F8000
007F8000
007F8000
007F8000
007F8000
007F8000
007F8000
007F8000
007F8000
ENDCHAR
STARTCHAR 005A
ENCODING 90
SWIDTH 558 0
DWIDTH 31 0
BBX 27 39 2 0
BITMAP
FFFFFE00
FFFFFF00
FFFFFF80
FFFFFF80
FFFFFFC0
FFFFFFE0
FFFFFFE0
7FFFFFE0
7FFFFFC0
0003FF80
0003FF80
0007FF00
0007FF00
000FFE00
001FFC00
001FFC00
003FF800
003FF800
007FF000
00FFE000
00FFE000
01FFC000
01FF8000
03FF8000
07FF0000
07FF0000
0FFE0000
1FFC0000
1FFC0000
3FF80000
3FFFFFC0
7FFFFFE0
FFFFFFE0
7FFFFFE0
7FFFFFE0
3FFFFFE0
1FFFFFE0
0FFFFFE0
0FFFFFE0
ENDCHAR
STARTCHAR 005B
ENCODING 91
SWIDTH 234 0
DWIDTH 13 0
BBX 12 44 1 -3
BITMAP
FFF0
FFF0
FFF0
FFF0
FFE0
FFC0
FC00
FC00
FC00
FC00
FC00
FC00
FC00
FC00
FC00
FC00
FC00
FC00
FC00
FC00
FC00
FC00
FC00
FC00
FC00
FC00
FC00
FC00
FC00
FC00
FC00
FC00
FC00
FC00
FC00
FC00
FC00
FC00
FFC0
FFE0
FFF0
FFF0
FFF0
FFF0
ENDCHAR
STARTCHAR 005C
ENCODING 92
SWIDTH 252 0
DWIDTH 14 0
BBX 17 45 -1 -3
BITMAP
F80000
F80000
FC0000
FC0000
7C0000
7E0000
7E0000
7E0000
3E0000
3F0000
3F0000
3F0000
1F0000
1F8000
1F8000
1F8000
0F8000
0FC000
0FC000
0FC000
07E000
07E000
07E000
03E000
03F000
03F000
03F000
01F000
01F800
01F800
01F800
00F800
00FC00
00FC00
00FC00
007E00
007E00
007E00
007E00
003F00
003F00
003F00
003F00
001F80
001F80
ENDCHAR
STARTCHAR 005D
ENCODING 93
SWIDTH 234 0
DWIDTH 13 0
BBX 12 44 1 -3
BITMAP
FFF0
FFF0
FFF0
FFF0
7FF0
7FF0
03F0
03F0
03F0
03F0
03F0
03F0
03F0
03F0
03F0
03F0
03F0
03F0
03F0
03F0
03F0
03F0
03F0
03F0
03F0
03F0
03F0
03F0
03F0
03F0
03F0
03F0
03F0
03F0
03F0
03F0
03F0
03F0
7FF0
7FF0
FFF0
FFF0
FFF0
FFF0
ENDCHAR
STARTCHAR 005E
ENCODING 94
SWIDTH 576 0
DWIDTH 32 0
BBX 30 20 1 19
BITMAP
003FF000
003FF800
007FF800
007FFC00
00FFFC00
00FFFE00
01FC7E00
01FC7F00
03F83F80
03F83F80
07F01FC0
07F01FC0
0FE00FE0
1FE00FE0
1FC007F0
3FC007F0
3F8007F8
7F8003F8
7F0003FC
FF0001FC
ENDCHAR
STARTCHAR 005F
ENCODING 95
SWIDTH 414 0
DWIDTH 23 0
BBX 22 6 1 0
BITMAP
FFFFFC
FFFFFC
FFFFFC
FFFFFC
FFFFFC
FFFFFC
ENDCHAR
STARTCHAR 0060
ENCODING 96
SWIDTH 396 0
DWIDTH 22 0
BBX 20 6 1 41
BITMAP
F80000
FFC000
FFFE00
FFFFF0
1FFFF0
0007F0
ENDCHAR
STARTCHAR 0061
ENCODING 97
SWIDTH 576 0
DWIDTH 32 0
BBX 31 39 1 0
BITMAP
00FFFE00
01FFFE00
01FFFF00
01FFFF00
03FFFF00
03FFFF00
03FFFF80
03FFFF80
03FFFF80
07F83F80
07F83F80
07F03FC0
07F03FC0
07F03FC0
0FF01FC0
0FF01FC0
0FF01FE0
0FE01FE0
0FE01FE0
1FE01FE0
1FE01FE0
1FE00FF0
1FE00FF0
1FE00FF0
3FF01FF0
3FFFFFF0
3FFFFFF8
3FFFFFF8
3FFFFFF8
7FFFF7F8
7FDFF7F8
7F8007FC
7F8007FC
7F8007FC
FF8003FC
FF8003FC
FF8003FE
FF0003FE
FF0003FE
ENDCHAR
STARTCHAR 0062
ENCODING 98
SWIDTH 576 0
DWIDTH 32 0
BBX 28 39 2 0
BITMAP
FFFFFF00
FFFFFF80
FFFFFF80
FFFFFFC0
FFFFFFE0
FFFFFFE0
FFFFFFF0
FFFFFFF0
FF801FF0
FF801FF0
FF801FF0
FF801FF0
FF801FF0
FF801FF0
FF801FF0
FF803FF0
FFFFFFF0
FFFFFFE0
FFFFFFC0
FFFFFF80
FFFFFFE0
FFFFFFF0
FFFFFFF0
FF803FF0
FF801FF0
FF801FF0
FF801FF0
FF801FF0
FF801FF0
FF801FF0
FF801FF0
FFFFFFF0
FFFFFFF0
FFFFFFE0
FFFFFFE0
FFFFFFC0
FFFFFF80
FFFFFF80
FFFFFF00
ENDCHAR
STARTCHAR 0063
ENCODING 99
SWIDTH 540 0
DWIDTH 30 0
BBX 26 39 2 0
BITMAP
FFFFFC00
FFFFFE00
FFFFFE00
FFFFFF00
FFFFFF80
FFFFFFC0
FFFFFFC0
FFFFFFC0
FFFFFFC0
FF807FC0
FF803FC0
FF800000
FF800000
FF800000
FF800000
FF800000
FF800000
FF800000
FF800000
FF800000
FF800000
FF800000
FF800000
FF800000
FF800000
FF800000
FF800000
FF800000
FF803FC0
FF807FC0
FFFFFFC0
FFFFFFC0
FFFFFFC0
FFFFFFC0
FFFFFF80
FFFFFF00
FFFFFF00
FFFFFE00
FFFFFC00
ENDCHAR
STARTCHAR 0064
ENCODING 100
SWIDTH 576 0
DWIDTH 32 0
BBX 28 39 2 0
BITMAP
FFFFFF00
FFFFFF80
FFFFFF80
FFFFFFC0
FFFFFFE0
FFFFFFE0
FFFFFFF0
FFFFFFF0
FFFFFFF0
FF801FF0
FF801FF0
FF801FF0
FF801FF0
FF801FF0
FF801FF0
FF801FF0
FF801FF0
FF801FF0
FF801FF0
FF801FF0
FF801FF0
FF801FF0
FF801FF0
FF801FF0
FF801FF0
FF801FF0
FF801FF0
FF801FF0
FF801FF0
FF801FF0
FFFFFFF0
FFFFFFF0
FFFFFFF0
FFFFFFE0
FFFFFFE0
FFFFFFC0
FFFFFF80
FFFFFF80
FFFFFF00
ENDCHAR
STARTCHAR 0065
ENCODING 101
SWIDTH 540 0
DWIDTH 30 0
BBX 26 39 2 0
BITMAP
FFFFFC00
FFFFFE00
FFFFFE00
FFFFFF00
FFFFFF80
FFFFFF80
FFFFFFC0
FFFFFFC0
FFFFFFC0
FF803FC0
FF801FC0
FF800000
FF800000
FF800000
FF800000
FF800000
FFFFE000
FFFFE000
FFFFE000
FFFFE000
FFFFE000
FFFFE000
FFFFE000
FF800000
FF800000
FF800000
FF800000
FF800000
FF801FC0
FF801FC0
FFFFFFC0
FFFFFFC0
FFFFFFC0
FFFFFF80
FFFFFF80
FFFFFF00
FFFFFE00
FFFFFE00
FFFFFC00
ENDCHAR
STARTCHAR 0066
ENCODING 102
SWIDTH 504 0
DWIDTH 28 0
BBX 24 39 2 0
BITMAP
FFFFF8
FFFFFC
FFFFFC
FFFFFE
FFFFFE
FFFFFF
FFFFFF
FFFFFF
FFFFFF
FF807F
FF803F
FF8000
FF8000
FF8000
FF8000
FF8000
FF8000
FF8000
FFFFF8
FFFFF8
FFFFF8
FFFFF8
FFFFF8
FFFFF8
FFFFF8
FF8000
FF8000
FF8000
FF8000
FF8000
FF8000
FF8000
FF8000
FF8000
FF8000
FF8000
FF8000
FF8000
FF8000
ENDCHAR
STARTCHAR 0067
ENCODING 103
SWIDTH 540 0
DWIDTH 30 0
BBX 27 39 2 0
BITMAP
FFFFFC00
FFFFFE00
FFFFFF00
FFFFFF80
FFFFFF80
FFFFFFC0
FFFFFFE0
FFFFFFE0
FFFFFFE0
FF801FE0
FF801FE0
FF800000
FF800000
FF800000
FF800000
FF800000
FF800000
FF87FFE0
FF87FFE0
FF87FFE0
FF87FFE0
FF87FFE0
FF87FFE0
FF87FFE0
FF87FFE0
FF803FE0
FF803FE0
FF803FE0
FF803FE0
FF803FE0
FFFFFFE0
FFFFFFE0
FFFFFFE0
FFFFFFE0
FFFFFFE0
FFFFFFE0
FFFFFFE0
FFFFFFE0
FFFFF3E0
ENDCHAR
STARTCHAR 0068
ENCODING 104
SWIDTH 576 0
DWIDTH 32 0
BBX 28 39 2 0
BITMAP
FF801FF0
FF801FF0
FF801FF0
FF801FF0
FF801FF0
FF801FF0
FF801FF0
FF801FF0
FF801FF0
FF801FF0
FF801FF0
FF801FF0
FF801FF0
FF801FF0
FFC03FF0
FFFFFFF0
FFFFFFF0
FFFFFFF0
FFFFFFF0
FFFFFFF0
FFFFFFF0
FFFFFFF0
FFFFFFF0
FFC03FF0
FF801FF0
FF801FF0
FF801FF0
FF801FF0
FF801FF0
FF801FF0
FF801FF0
FF801FF0
FF801FF0
FF801FF0
FF801FF0
FF801FF0
FF801FF0
FF801FF0
FF801FF0
ENDCHAR
STARTCHAR 0069
ENCODING 105
SWIDTH 234 0
DWIDTH 13 0
BBX 9 39 2 0
BITMAP
FF80
FF80
FF80
FF80
FF80
FF80
FF80
FF80
FF80
FF80
FF80
FF80
FF80
FF80
FF80
FF80
FF80
FF80
FF80
FF80
FF80
FF80
FF80
FF80
FF80
FF80
FF80
FF80
FF80
FF80
FF80
FF80
FF80
FF80
FF80
FF80
FF80
FF80
FF80
ENDCHAR
STARTCHAR 006A
ENCODING 106
SWIDTH 504 0
DWIDTH 28 0
BBX 24 39 2 0
BITMAP
07FFFF
07FFFF
07FFFF
07FFFF
07FFFF
07FFFF
07FFFF
07FFFF
07FFFF
0001FF
0001FF
0001FF
0001FF
0001FF
0001FF
0001FF
0001FF
0001FF
0001FF
0001FF
0001FF
0001FF
0001FF
0001FF
0001FF
0001FF
0001FF
0001FF
FF81FF
FFC1FF
FFFFFF
FFFFFF
FFFFFF
7FFFFF
7FFFFF
3FFFFF
1FFFFF
0FFFFF
0FFFFF
ENDCHAR
STARTCHAR 006B
ENCODING 107
SWIDTH 558 0
DWIDTH 31 0
BBX 28 39 2 0
BITMAP
FF801FF0
FF803FF0
FF807FF0
FF807FF0
FF80FFF0
FF81FFE0
FF81FFC0
FF83FFC0
FF87FF80
FF87FF00
FF8FFE00
FF9FFE00
FF9FFC00
FFBFF800
FFFFF000
FFFFF000
FFFFE000
FFFFC000
FFFFC000
FFFF8000
FFFF8000
FFFFC000
FFFFE000
FFFFE000
FFFFF000
FFBFF800
FF9FFC00
FF9FFC00
FF8FFE00
FF87FF00
FF83FF80
FF83FF80
FF81FFC0
FF80FFE0
FF80FFF0
FF807FF0
FF803FF0
FF803FF0
FF801FF0
ENDCHAR
STARTCHAR 006C
ENCODING 108
SWIDTH 414 0
DWIDTH 23 0
BBX 21 39 2 0
BITMAP
FF8000
FF8000
FF8000
FF8000
FF8000
FF8000
FF8000
FF8000
FF8000
FF8000
FF8000
FF8000
FF8000
FF8000
FF8000
FF8000
FF8000
FF8000
FF8000
FF8000
FF8000
FF8000
FF8000
FF8000
FF8000
FF8000
FF8000
FF8000
FF8000
FFC000
FFFFF8
FFFFF8
FFFFF8
FFFFF8
FFFFF0
FFFFE0
FFFFC0
FFFFC0
FFFF80
ENDCHAR
STARTCHAR 006D
ENCODING 109
SWIDTH 684 0
DWIDTH 38 0
BBX 34 39 2 0
BITMAP
0FFC07FC00
0FFC0FFE00
1FFC0FFF00
3FFC0FFF00
3FFE0FFF80
7FFE0FFFC0
FFFE0FFFC0
FFFE0FFFC0
FFFE1FFFC0
FFFE1FFFC0
FFFF1FFFC0
FFFF1FFFC0
FFFF1FFFC0
FFBF1F3FC0
FFBF3F3FC0
FF9F3F3FC0
FF9F3F3FC0
FF9FBF3FC0
FF9FBE3FC0
FF9FBE3FC0
FF9FBE3FC0
FF8FFE3FC0
FF8FFE3FC0
FF8FFE3FC0
FF8FFE3FC0
FF8FFC3FC0
FF8FFC3FC0
FF8FFC3FC0
FF87FC3FC0
FF83F83FC0
FF80003FC0
FF80003FC0
FF80003FC0
FF80003FC0
FF80003FC0
FF80003FC0
FF80003FC0
FF80003FC0
FF80003FC0
ENDCHAR
STARTCHAR 006E
ENCODING 110
SWIDTH 558 0
DWIDTH 31 0
BBX 28 39 2 0
BITMAP
0F801FF0
0F801FF0
1FC01FF0
3FC01FF0
3FE01FF0
7FE01FF0
FFF01FF0
FFF01FF0
FFF81FF0
FFF81FF0
FFFC1FF0
FFFC1FF0
FFFC1FF0
FFFE1FF0
FFFE1FF0
FFFF1FF0
FFFF1FF0
FFFF9FF0
FFFF9FF0
FFFFDFF0
FF9FFFF0
FF9FFFF0
FF8FFFF0
FF8FFFF0
FF8FFFF0
FF87FFF0
FF87FFF0
FF83FFF0
FF83FFF0
FF81FFF0
FF81FFF0
FF80FFF0
FF80FFF0
FF80FFE0
FF807FC0
FF807FC0
FF803F80
FF803F00
FF801E00
ENDCHAR
STARTCHAR 006F
ENCODING 111
SWIDTH 612 0
DWIDTH 34 0
BBX 30 39 2 0
BITMAP
0FFFFFC0
0FFFFFE0
1FFFFFE0
3FFFFFF0
3FFFFFF8
7FFFFFFC
FFFFFFFC
FFFFFFFC
FFFFFFFC
FFC007FC
FF8007FC
FF8003FC
FF8003FC
FF8003FC
FF8003FC
FF8003FC
FF8003FC
FF8003FC
FF8003FC
FF8003FC
FF8003FC
FF8003FC
FF8003FC
FF8003FC
FF8003FC
FF8003FC
FF8003FC
FF8003FC
FF8003FC
FFC007FC
FFFFFFFC
FFFFFFFC
FFFFFFFC
7FFFFFFC
7FFFFFF8
3FFFFFF0
1FFFFFF0
0FFFFFE0
0FFFFFC0
ENDCHAR
STARTCHAR 0070
ENCODING 112
SWIDTH 540 0
DWIDTH 30 0
BBX 26 39 2 0
BITMAP
FFFFFC00
FFFFFC00
FFFFFE00
FFFFFF00
FFFFFF80
FFFFFF80
FFFFFFC0
FFFFFFC0
FFFFFFC0
FF80FFC0
FF807FC0
FF807FC0
FF807FC0
FF807FC0
FF807FC0
FF807FC0
FF807FC0
FF80FFC0
FFFFFFC0
FFFFFFC0
FFFFFFC0
FFFFFF80
FFFFFF00
FFFFFE00
FFFFFE00
FFFFFC00
FF800000
FF800000
FF800000
FF800000
FF800000
FF800000
FF800000
FF800000
FF800000
FF800000
FF800000
FF800000
FF800000
ENDCHAR
STARTCHAR 0071
ENCODING 113
SWIDTH 648 0
DWIDTH 36 0
BBX 34 39 2 -1
BITMAP
0FFFFFC000
0FFFFFE000
1FFFFFE000
3FFFFFF000
3FFFFFF800
7FFFFFFC00
FFFFFFFC00
FFFFFFFC00
FFFFFFFC00
FFC007FC00
FF8007FC00
FF8003FC00
FF8003FC00
FF8003FC00
FF8003FC00
FF8003FC00
FF8003FC00
FF8003FC00
FF8003FC00
FF8003FC00
FF8003FC00
FF8003FC00
FF8003FC00
FF8003FC00
FF8003FC00
FF8003FC00
FF8003FC00
FF8003FC00
FF8003FC00
FFC007FE00
FFFFFFFF80
FFFFFFFFC0
FFFFFFFFC0
7FFFFFFFC0
7FFFFFFFC0
3FFFFFFFC0
1FFFFFFF80
0FFFFFFF00
0FFFFFCE00
ENDCHAR
STARTCHAR 0072
ENCODING 114
SWIDTH 540 0
DWIDTH 30 0
BBX 27 39 2 0
BITMAP
FFFFFC00
FFFFFC00
FFFFFE00
FFFFFF00
FFFFFF80
FFFFFF80
FFFFFFC0
FFFFFFC0
FFFFFFC0
FF80FFC0
FF807FC0
FF807FC0
FF807FC0
FF807FC0
FF807FC0
FF80FFC0
FFFFFF80
FFFFFF80
FFFFFF00
FFFFFE00
FFFFFC00
FFFFFC00
FFFFFC00
FFFFFC00
FF87FE00
FF83FE00
FF83FE00
FF83FF00
FF81FF00
FF81FF80
FF81FF80
FF80FFC0
FF80FFC0
FF80FFC0
FF807FE0
FF807FE0
FF807FE0
FF803FE0
FF803FE0
ENDCHAR
STARTCHAR 0073
ENCODING 115
SWIDTH 540 0
DWIDTH 30 0
BBX 26 39 2 0
BITMAP
7FFFFC00
7FFFFC00
FFFFFE00
FFFFFF00
FFFFFF80
FFFFFF80
FFFFFFC0
FFFFFFC0
FFFFFFC0
FF803FC0
FFC01FC0
FFE00000
FFF00000
7FF80000
3FFC0000
1FFE0000
0FFF0000
07FF8000
03FFC000
01FFE000
00FFF000
007FF800
003FFC00
001FFE00
000FFF00
0007FF80
0003FFC0
0001FFC0
FE00FFC0
FF007FC0
FFFFFFC0
FFFFFFC0
FFFFFFC0
7FFFFFC0
7FFFFFC0
3FFFFFC0
1FFFFFC0
0FFFFFC0
0FFFFF80
ENDCHAR
STARTCHAR 0074
ENCODING 116
SWIDTH 522 0
DWIDTH 29 0
BBX 30 39 0 0
BITMAP
0FFFFF80
1FFFFFC0
1FFFFFE0
3FFFFFE0
7FFFFFF0
7FFFFFF8
FFFFFFFC
FFFFEFFC
FFBFE7FC
FE3FE3FC
FC3FE0FC
003FE000
003FE000
003FE000
003FE000
003FE000
003FE000
003FE000
003FE000
003FE000
003FE000
003FE000
003FE000
003FE000
003FE000
003FE000
003FE000
003FE000
003FE000
003FE000
003FE000
003FE000
003FE000
003FE000
003FE000
003FE000
003FE000
003FE000
003FE000
ENDCHAR
STARTCHAR 0075
ENCODING 117
SWIDTH 612 0
DWIDTH 34 0
BBX 30 39 2 0
BITMAP
FF8007FC
FF8007FC
FF8007FC
FF8007FC
FF8007FC
FF8007FC
FF8007FC
FF8007FC
FF8007FC
FF8007FC
FF8007FC
FF8007FC
FF8007FC
FF8007FC
FF8007FC
FF8007FC
FF8007FC
FF8007FC
FF8007FC
FF8007FC
FF8007FC
FF8007FC
FF8007FC
FF8007FC
FF8007FC
FF8007FC
FF8007FC
FF8007FC
FF8007FC
FFC00FFC
FFFFFFFC
FFFFFFFC
FFFFFFFC
7FFFFFF8
7FFFFFF8
3FFFFFF0
1FFFFFE0
0FFFFFC0
0FFFFFC0
ENDCHAR
STARTCHAR 0076
ENCODING 118
SWIDTH 576 0
DWIDTH 32 0
BBX 32 39 0 0
BITMAP
FF8001FF
7F8001FE
7F8001FE
7F8001FE
7FC003FE
7FC003FE
3FC003FC
3FC003FC
3FC003FC
3FC003FC
3FE007FC
1FE007F8
1FE007F8
1FE007F8
1FE007F8
1FE007F8
0FE007F0
0FF00FF0
0FF00FF0
0FF00FF0
0FF00FF0
07F00FE0
07F00FE0
07F81FE0
07F81FE0
07F81FE0
03F81FC0
03F81FC0
03F81FC0
03F81FC0
03FFFFC0
01FFFF80
01FFFF80
01FFFF80
01FFFF80
01FFFF80
00FFFF00
00FFFF00
007FFE00
ENDCHAR
STARTCHAR 0077
ENCODING 119
SWIDTH 882 0
DWIDTH 49 0
BBX 45 39 2 0
BITMAP
FF8000000FF8
FF8000000FF8
FF8000000FF8
FF8000000FF8
FFC000001FF8
FFC000001FF8
7FC000001FF0
7FC000001FF0
7FC000001FF0
7FE000001FF0
3FE000003FF0
3FE01FC03FE0
3FE03FE03FE0
3FE03FF03FE0
3FF03FF03FE0
1FF07FF03FE0
1FF07FF07FC0
1FF07FF87FC0
1FF07FF87FC0
1FF0FFF87FC0
0FF8FDF87FC0
0FF8FDFCFF80
0FF9FCFCFF80
0FF9FCFCFF80
0FF9F8FCFF80
07FFF8FFFF80
07FFF8FFFF00
07FFF87FFF00
07FFF87FFF00
03FFF07FFF00
03FFF07FFF00
03FFF07FFE00
03FFF03FFE00
03FFF03FFE00
01FFE03FFE00
01FFE03FFE00
01FFE03FFC00
01FFE01FFC00
01FFE01FFC00
ENDCHAR
STARTCHAR 0078
ENCODING 120
SWIDTH 612 0
DWIDTH 34 0
BBX 30 39 2 0
BITMAP
FF8007FC
FF8007FC
FFC007FC
FFC00FFC
FFC00FFC
7FE01FF8
7FE01FF8
3FF03FF0
3FF03FF0
1FF03FE0
1FF87FE0
0FF87FC0
0FFCFFC0
07FCFF80
07FDFF80
03FFFF00
03FFFF00
01FFFE00
01FFFE00
01FFFF00
03FFFF00
03FFFF00
07FFFF80
07FFFF80
07FFFFC0
0FFCFFC0
0FFCFFC0
1FF87FE0
1FF87FE0
3FF03FF0
3FF03FF0
3FF03FF8
7FE01FF8
7FE01FF8
FFC00FFC
FFC00FFC
FFC007FC
FF8007FC
FF8007FC
ENDCHAR
STARTCHAR 0079
ENCODING 121
SWIDTH 468 0
DWIDTH 26 0
BBX 26 39 0 0
BITMAP
FF003FC0
FF803FC0
FF807FC0
FF807FC0
FFC07FC0
7FC0FF80
7FC0FF80
3FE0FF80
3FE1FF00
1FE1FF00
1FF1FE00
1FF3FE00
0FF3FC00
0FFBFC00
07FFF800
07FFF800
03FFF800
03FFF000
01FFF000
01FFE000
01FFE000
00FFC000
00FFC000
007FC000
007F8000
007F8000
007F8000
007F8000
007F8000
007F8000
007F8000
007F8000
007F8000
007F8000
007F8000
007F8000
007F8000
007F8000
007F8000
ENDCHAR
STARTCHAR 007A
ENCODING 122
SWIDTH 558 0
DWIDTH 31 0
BBX 27 39 2 0
BITMAP
FFFFFE00
FFFFFF00
FFFFFF80
FFFFFF80
FFFFFFC0
FFFFFFE0
FFFFFFE0
7FFFFFE0
7FFFFFC0
0003FF80
0003FF80
0007FF00
0007FF00
000FFE00
001FFC00
001FFC00
003FF800
003FF800
007FF000
00FFE000
00FFE000
01FFC000
01FF8000
03FF8000
07FF0000
07FF0000
0FFE0000
1FFC0000
1FFC0000
3FF80000
3FFFFFC0
7FFFFFE0
FFFFFFE0
7FFFFFE0
7FFFFFE0
3FFFFFE0
1FFFFFE0
0FFFFFE0
0FFFFFE0
ENDCHAR
STARTCHAR 007B
ENCODING 123
SWIDTH 288 0
DWIDTH 16 0
BBX 14 44 1 -3
BITMAP
0FFC
0FFC
0FFC
0FFC
0FF8
0FF8
0F80
0F80
0F80
0F80
0F80
0F80
0F80
0F80
0F80
0F80
0F80
1F80
3F80
7F00
FC00
FC00
FC00
FE00
7F00
3F80
0F80
0F80
0F80
0F80
0F80
0F80
0F80
0F80
0F80
0F80
0F80
0F80
0FF8
0FFC
0FFC
0FFC
0FFC
0FFC
ENDCHAR
STARTCHAR 007C
ENCODING 124
SWIDTH 126 0
DWIDTH 7 0
BBX 6 44 1 -3
BITMAP
FC
FC
FC
FC
FC
FC
FC
FC
FC
FC
FC
FC
FC
FC
FC
FC
FC
FC
FC
FC
FC
FC
FC
FC
FC
FC
FC
FC
FC
FC
FC
FC
FC
FC
FC
FC
FC
FC
FC
FC
FC
FC
FC
FC
ENDCHAR
STARTCHAR 007D
ENCODING 125
SWIDTH 288 0
DWIDTH 16 0
BBX 14 44 1 -3
BITMAP
FFC0
FFC0
FFC0
FFC0
7FC0
7FC0
07C0
07C0
07C0
07C0
07C0
07C0
07C0
07C0
07C0
07C0
07C0
07E0
07F0
03FC
00FC
00FC
00FC
01FC
03F8
07F0
07C0
07C0
07C0
07C0
07C0
07C0
07C0
07C0
07C0
07C0
07C0
07C0
7FC0
7FC0
FFC0
FFC0
FFC0
FFC0
ENDCHAR
STARTCHAR 007E
ENCODING 126
SWIDTH 450 0
DWIDTH 25 0
BBX 23 8 1 15
BITMAP
01C000
07F802
1FFE0E
7FFFFE
FE7FFE
FC0FFE
F001F8
E00000
ENDCHAR
STARTCHAR 00A1
ENCODING 161
SWIDTH 162 0
DWIDTH 9 0
BBX 8 39 1 0
BITMAP
7E
7E
7E
7E
7E
7E
7E
00
00
00
3C
3C
3C
3C
3C
3C
3C
3C
7C
7C
7C
7E
7E
7E
7E
7E
7E
7E
7E
7E
7E
7E
FE
FE
FE
FF
FF
FE
7E
ENDCHAR
STARTCHAR 00A2
ENCODING 162
SWIDTH 540 0
DWIDTH 30 0
BBX 26 49 2 -5
BITMAP
007E0000
007E0000
007E0000
007E0000
007E0000
FFFFFC00
FFFFFE00
FFFFFE00
FFFFFF00
FFFFFF80
FFFFFFC0
FFFFFFC0
FFFFFFC0
FFFFFFC0
FF807FC0
FF803FC0
FF800000
FF800000
FF800000
FF800000
FF800000
FF800000
FF800000
FF800000
FF800000
FF800000
FF800000
FF800000
FF800000
FF800000
FF800000
FF800000
FF800000
FF803FC0
FF807FC0
FFFFFFC0
FFFFFFC0
FFFFFFC0
FFFFFFC0
FFFFFF80
FFFFFF00
FFFFFF00
FFFFFE00
FFFFFC00
007E0000
007E0000
007E0000
007E0000
007E0000
ENDCHAR
STARTCHAR 00A3
ENCODING 163
SWIDTH 486 0
DWIDTH 27 0
BBX 24 39 2 0
BITMAP
7FFFFE
7FFFFE
FFFFFF
FFFFFF
FFFFFF
FFFFFF
FFFFFF
FFFFFF
FFFFFF
FF81FF
7F80FF
7F8000
7FC000
3FC000
3FC000
FFFFFF
FFFFFF
FFFFFF
FFFFFF
FFFFFF
FFFFFF
0FF800
07F800
07F800
07F800
0FF800
0FF000
1FF000
3FE000
7FC000
FFFFFC
FFFFFE
FFFFFF
FFFFFF
FFFFFF
FFFFFF
FFFFFF
FFFFFF
FFFFFF
ENDCHAR
STARTCHAR 00A4
ENCODING 164
SWIDTH 324 0
DWIDTH 18 0
BBX 16 16 1 12
BITMAP
6002
F007
7FFF
3FFE
3FFC
3FFC
3C3C
3C3C
3C3C
3C3C
3FFC
3FFC
3FFE
7FFF
F007
6002
ENDCHAR
STARTCHAR 00A5
ENCODING 165
SWIDTH 468 0
DWIDTH 26 0
BBX 26 39 0 0
BITMAP
FF003FC0
FF803FC0
FF807FC0
FF807FC0
FFC07FC0
7FC0FF80
7FC0FF80
3FE0FF80
3FE1FF00
1FE1FF00
1FF1FE00
1FF3FE00
0FF3FC00
0FFBFC00
07FFF800
07FFF800
03FFF800
03FFF000
01FFF000
01FFE000
1FFFFE00
1FFFFE00
1FFFFE00
1FFFFE00
1FFFFE00
007F8000
007F8000
1FFFFE00
1FFFFE00
1FFFFE00
1FFFFE00
1FFFFE00
1FFFFE00
007F8000
007F8000
007F8000
007F8000
007F8000
007F8000
ENDCHAR
STARTCHAR 00A6
ENCODING 166
SWIDTH 126 0
DWIDTH 7 0
BBX 6 43 1 -2
BITMAP
FC
FC
FC
FC
FC
FC
FC
FC
FC
FC
FC
FC
FC
FC
FC
FC
FC
FC
FC
00
00
00
00
00
FC
FC
FC
FC
FC
FC
FC
FC
FC
FC
FC
FC
FC
FC
FC
FC
FC
FC
FC
ENDCHAR
STARTCHAR 00A7
ENCODING 167
SWIDTH 432 0
DWIDTH 24 0
BBX 20 39 2 0
BITMAP
3FFF80
3FFFC0
3FFFC0
3FFFE0
3FFFF0
3FFFF0
3F03F0
3F81F0
3FC000
3FE000
1FF000
7FF800
FFFC00
FFFC00
FFFE00
FFFF00
FFFF80
FFFFC0
FE1FE0
FF0FF0
7F87F0
3FC3F0
1FFFF0
0FFFF0
07FFF0
03FFF0
01FFF0
01FFE0
00FF80
007FC0
003FC0
F81FC0
FC0FC0
FFFFC0
FFFFC0
7FFFC0
3FFFC0
3FFFC0
1FFFC0
ENDCHAR
STARTCHAR 00A8
ENCODING 168
SWIDTH 288 0
DWIDTH 16 0
BBX 14 5 1 41
BITMAP
F87C
F87C
F87C
F87C
F87C
ENDCHAR
STARTCHAR 00A9
ENCODING 169
SWIDTH 720 0
DWIDTH 40 0
BBX 39 43 1 -2
BITMAP
7FFFFFFFF8
FFFFFFFFFC
FFFFFFFFFE
FFFFFFFFFE
FFFFFFFFFE
FC0000007E
FC0000007E
FC0000007E
FC0000007E
FC0000007E
FC0FFF807E
FC0FFFC07E
FC0FFFC07E
FC0FFFE07E
FC0FFFE07E
FC0F83E07E
FC0F80007E
FC0F80007E
FC0F80007E
FC0F80007E
FC0F80007E
FC0F80007E
FC0F80007E
FC0F80007E
FC0F80007E
FC0F80007E
FC0F80007E
FC0F83E07E
FC0FFFE07E
FC0FFFE07E
FC0FFFC07E
FC0FFFC07E
FC0FFF807E
FC0000007E
FC0000007E
FC0000007E
FC0000007E
FC0000007E
FFFFFFFFFE
FFFFFFFFFE
FFFFFFFFFE
FFFFFFFFFC
7FFFFFFFF8
ENDCHAR
STARTCHAR 00AB
ENCODING 171
SWIDTH 468 0
DWIDTH 26 0
BBX 24 23 1 7
BITMAP
000001
001003
003007
00F00F
01F03F
03F07F
0FE0FE
1FC1F8
3F87F0
7E0FE0
FC0F80
FC0F80
FC0F80
FC0FC0
7F0FE0
3F83F0
0FC1FC
07F0FE
03F07F
01F01F
00700F
003007
001001
ENDCHAR
STARTCHAR 00AC
ENCODING 172
SWIDTH 558 0
DWIDTH 31 0
BBX 29 15 1 7
BITMAP
FFFFFFF8
FFFFFFF8
FFFFFFF8
FFFFFFF8
FFFFFFF8
FFFFFFF8
000000F8
000000F8
000000F8
000000F8
000000F8
000000F8
000000F8
000000F8
000000F8
ENDCHAR
STARTCHAR 00AE
ENCODING 174
SWIDTH 378 0
DWIDTH 21 0
BBX 19 22 1 17
BITMAP
7FFFE0
FFFFE0
FFFFE0
E00060
E00060
E3F860
E3F860
E3FC60
E39C60
E39C60
E3F860
E3F060
E3B860
E3B860
E39C60
E39C60
E39C60
E00060
E00060
FFFFE0
FFFFE0
7FFFE0
ENDCHAR
STARTCHAR 00AF
ENCODING 175
SWIDTH 414 0
DWIDTH 23 0
BBX 22 6 1 41
BITMAP
FFFFFC
FFFFFC
FFFFFC
FFFFFC
FFFFFC
FFFFFC
ENDCHAR
STARTCHAR 00B0
ENCODING 176
SWIDTH 234 0
DWIDTH 13 0
BBX 12 11 1 28
BITMAP
7FE0
FFF0
FFF0
FFF0
F0F0
F0F0
F0F0
F9F0
FFF0
FFF0
7FE0
ENDCHAR
STARTCHAR 00B1
ENCODING 177
SWIDTH 414 0
DWIDTH 23 0
BBX 22 29 1 1
BITMAP
00FC00
00FC00
00FC00
00FC00
00FC00
00FC00
00FC00
00FC00
FFFFFC
FFFFFC
FFFFFC
FFFFFC
FFFFFC
00FC00
00FC00
00FC00
00FC00
00FC00
00FC00
00FC00
00FC00
000000
000000
FFFFFC
FFFFFC
FFFFFC
FFFFFC
FFFFFC
FFFFFC
ENDCHAR
STARTCHAR 00B4
ENCODING 180
SWIDTH 396 0
DWIDTH 22 0
BBX 20 6 1 41
BITMAP
0001F0
1FFFF0
FFFFF0
FFFF00
FFE000
FC0000
ENDCHAR
STARTCHAR 00B6
ENCODING 182
SWIDTH 414 0
DWIDTH 23 0
BBX 19 39 2 0
BITMAP
7FFCE0
7FFCE0
FFFCE0
FFFCE0
FFFCE0
FFFCE0
FFFCE0
FFFCE0
FFFCE0
FFFCE0
FFFCE0
FFFCE0
FFFCE0
FFFCE0
FFFCE0
FFFCE0
7FFCE0
7FFCE0
001CE0
001CE0
001CE0
001CE0
001CE0
001CE0
001CE0
001CE0
001CE0
001CE0
001CE0
001CE0
001CE0
001CE0
001CE0
001CE0
001CE0
001CE0
001CE0
001CE0
001CE0
ENDCHAR
STARTCHAR 00B7
ENCODING 183
SWIDTH 162 0
DWIDTH 9 0
BBX 8 8 1 17
BITMAP
FF
FF
FF
FF
FF
FF
FF
FF
ENDCHAR
STARTCHAR 00B8
ENCODING 184
SWIDTH 198 0
DWIDTH 11 0
BBX 9 8 1 -8
BITMAP
0380
0700
1F00
1F00
0700
7F00
7E00
FE00
ENDCHAR
STARTCHAR 00BB
ENCODING 187
SWIDTH 468 0
DWIDTH 26 0
BBX 24 23 1 7
BITMAP
800000
C00800
E00E00
F00F00
FC0F80
FE0FC0
7F07F0
1FC3F8
0FE1FC
07F07E
01F03F
01F03F
01F03F
03F03F
07F0FE
0FC1FC
3F83F8
7F0FE0
FE0FC0
F80F80
F00E00
E00C00
C00800
ENDCHAR
STARTCHAR 00BC
ENCODING 188
SWIDTH 576 0
DWIDTH 32 0
BBX 29 39 2 0
BITMAP
0F8007C0
1F800F80
3F800F80
7F801F00
FF801F00
FF803E00
F7803E00
E7807C00
07807C00
07807800
0780F800
0780F000
0781F000
0781F000
0783E000
0783E000
0787C000
0787C000
078F8000
078F8000
001F0FC0
001F0FC0
003E1FC0
003E3FC0
007C3FC0
007C7FC0
00F87FC0
00F8FBC0
00F9F3C0
01F1F3C0
01F1E3C0
03E1FFF0
03E1FFF8
07C1FFF8
07C1FFF8
0F8003C0
0F8003C0
1F0003C0
1F0003C0
ENDCHAR
STARTCHAR 00BD
ENCODING 189
SWIDTH 630 0
DWIDTH 35 0
BBX 31 39 2 0
BITMAP
0F8007C0
1F800F80
3F800F80
7F801F00
FF801F00
FF803E00
F7803E00
E7807C00
07807C00
07807800
0780F800
0780F000
0781F000
0781F000
0783E000
0783E000
0787C000
0787C000
078F8000
078F8000
001F0FFE
001F1FFE
003E3FFE
003E3FFE
007C3E1E
007C001E
00F8003E
00F8007E
00F800FC
01F001F8
01F003F0
03E007E0
03E00FC0
07C01F80
07C03F00
0F803FFE
0F803FFE
1F003FFE
1F003FFE
ENDCHAR
STARTCHAR 00BE
ENCODING 190
SWIDTH 630 0
DWIDTH 35 0
BBX 31 39 2 0
BITMAP
FFF000F0
FFF801F0
7FF801E0
3FF803E0
00F803C0
00F807C0
00F807C0
00F80F80
1FF80F80
1FF81F00
1FF81F00
1FF83E00
00F83E00
00F87C00
00F87C00
3FF8F800
3FF8F800
7FF9F000
FFF9F000
FFF1E000
0003E1F8
0003E3F8
0007C3F8
0007C7F8
000F87F8
000F8FF8
001F1F78
001F1F78
003E3E78
003E3E78
007C7C78
007C7FFE
00F87FFE
00F87FFE
01F03FFE
01F00078
01F00078
03E00078
03E00078
ENDCHAR
STARTCHAR 00BF
ENCODING 191
SWIDTH 522 0
DWIDTH 29 0
BBX 26 39 2 0
BITMAP
01FF0000
01FF0000
01FF0000
01FF0000
01FF0000
01FF0000
01FF0000
00000000
00000000
00000000
00000000
01FF0000
01FF0000
01FF0000
01FF0000
01FF0000
01FF0000
01FF0000
01FE0000
03FE0000
07FC0000
07F80000
0FF80000
1FF00000
3FE00000
3FE00000
7FC00000
FFC03FC0
FFC03FC0
FFC07FC0
FFFFFFC0
FFFFFFC0
FFFFFFC0
FFFFFF80
FFFFFF00
FFFFFF00
FFFFFE00
7FFFFC00
7FFFFC00
ENDCHAR
STARTCHAR 00C0
ENCODING 192
SWIDTH 576 0
DWIDTH 32 0
BBX 31 47 1 0
BITMAP
07C00000
07FE0000
07FFF000
07FFFF80
01FFFF80
00003F80
00000000
00000000
00FFFE00
01FFFE00
01FFFF00
01FFFF00
03FFFF00
03FFFF00
03FFFF80
03FFFF80
03FFFF80
07F83F80
07F83F80
07F03FC0
07F03FC0
07F03FC0
0FF01FC0
0FF01FC0
0FF01FE0
0FE01FE0
0FE01FE0
1FE01FE0
1FE01FE0
1FE00FF0
1FE00FF0
1FE00FF0
3FF01FF0
3FFFFFF0
3FFFFFF8
3FFFFFF8
3FFFFFF8
7FFFF7F8
7FDFF7F8
7F8007FC
7F8007FC
7F8007FC
FF8003FC
FF8003FC
FF8003FE
FF0003FE
FF0003FE
ENDCHAR
STARTCHAR 00C1
ENCODING 193
SWIDTH 576 0
DWIDTH 32 0
BBX 31 47 1 0
BITMAP
00001F80
00FFFF80
07FFFF80
07FFF800
07FF0000
07E00000
00000000
00000000
00FFFE00
01FFFE00
01FFFF00
01FFFF00
03FFFF00
03FFFF00
03FFFF80
03FFFF80
03FFFF80
07F83F80
07F83F80
07F03FC0
07F03FC0
07F03FC0
0FF01FC0
0FF01FC0
0FF01FE0
0FE01FE0
0FE01FE0
1FE01FE0
1FE01FE0
1FE00FF0
1FE00FF0
1FE00FF0
3FF01FF0
3FFFFFF0
3FFFFFF8
3FFFFFF8
3FFFFFF8
7FFFF7F8
7FDFF7F8
7F8007FC
7F8007FC
7F8007FC
FF8003FC
FF8003FC
FF8003FE
FF0003FE
FF0003FE
ENDCHAR
STARTCHAR 00C2
ENCODING 194
SWIDTH 576 0
DWIDTH 32 0
BBX 31 48 1 0
BITMAP
00FFFC00
03FFFE00
07FFFF80
0FFFFFC0
0FE01FC0
0F8007C0
0F0003C0
00000000
00000000
00FFFE00
01FFFE00
01FFFF00
01FFFF00
03FFFF00
03FFFF00
03FFFF80
03FFFF80
03FFFF80
07F83F80
07F83F80
07F03FC0
07F03FC0
07F03FC0
0FF01FC0
0FF01FC0
0FF01FE0
0FE01FE0
0FE01FE0
1FE01FE0
1FE01FE0
1FE00FF0
1FE00FF0
1FE00FF0
3FF01FF0
3FFFFFF0
3FFFFFF8
3FFFFFF8
3FFFFFF8
7FFFF7F8
7FDFF7F8
7F8007FC
7F8007FC
7F8007FC
FF8003FC
FF8003FC
FF8003FE
FF0003FE
FF0003FE
ENDCHAR
STARTCHAR 00C3
ENCODING 195
SWIDTH 576 0
DWIDTH 32 0
BBX 31 49 1 0
BITMAP
00100000
007E0000
01FFC0E0
07FFFBE0
0FFFFFE0
0FC3FFE0
0F007F80
0E000E00
00000000
00000000
00FFFE00
01FFFE00
01FFFF00
01FFFF00
03FFFF00
03FFFF00
03FFFF80
03FFFF80
03FFFF80
07F83F80
07F83F80
07F03FC0
07F03FC0
07F03FC0
0FF01FC0
0FF01FC0
0FF01FE0
0FE01FE0
0FE01FE0
1FE01FE0
1FE01FE0
1FE00FF0
1FE00FF0
1FE00FF0
3FF01FF0
3FFFFFF0
3FFFFFF8
3FFFFFF8
3FFFFFF8
7FFFF7F8
7FDFF7F8
7F8007FC
7F8007FC
7F8007FC
FF8003FC
FF8003FC
FF8003FE
FF0003FE
FF0003FE
ENDCHAR
STARTCHAR 00C4
ENCODING 196
SWIDTH 576 0
DWIDTH 32 0
BBX 31 46 1 0
BITMAP
00FC7C00
00FC7C00
00FC7C00
00FC7C00
00FC7C00
00000000
00000000
00FFFE00
01FFFE00
01FFFF00
01FFFF00
03FFFF00
03FFFF00
03FFFF80
03FFFF80
03FFFF80
07F83F80
07F83F80
07F03FC0
07F03FC0
07F03FC0
0FF01FC0
0FF01FC0
0FF01FE0
0FE01FE0
0FE01FE0
1FE01FE0
1FE01FE0
1FE00FF0
1FE00FF0
1FE00FF0
3FF01FF0
3FFFFFF0
3FFFFFF8
3FFFFFF8
3FFFFFF8
7FFFF7F8
7FDFF7F8
7F8007FC
7F8007FC
7F8007FC
FF8003FC
FF8003FC
FF8003FE
FF0003FE
FF0003FE
ENDCHAR
STARTCHAR 00C5
ENCODING 197
SWIDTH 576 0
DWIDTH 32 0
BBX 31 49 1 0
BITMAP
000FC000
001FE000
001CE000
001C6000
001C6000
001FE000
000FE000
000FC000
00000000
00000000
00FFFE00
01FFFE00
01FFFF00
01FFFF00
03FFFF00
03FFFF00
03FFFF80
03FFFF80
03FFFF80
07F83F80
07F83F80
07F03FC0
07F03FC0
07F03FC0
0FF01FC0
0FF01FC0
0FF01FE0
0FE01FE0
0FE01FE0
1FE01FE0
1FE01FE0
1FE00FF0
1FE00FF0
1FE00FF0
3FF01FF0
3FFFFFF0
3FFFFFF8
3FFFFFF8
3FFFFFF8
7FFFF7F8
7FDFF7F8
7F8007FC
7F8007FC
7F8007FC
FF8003FC
FF8003FC
FF8003FE
FF0003FE
FF0003FE
ENDCHAR
STARTCHAR 00C6
ENCODING 198
SWIDTH 828 0
DWIDTH 46 0
BBX 43 39 1 0
BITMAP
00FFFFFFFE00
01FFFFFFFF00
01FFFFFFFF80
01FFFFFFFF80
03FFFFFFFFC0
03FFFFFFFFE0
03FFFFFFFFE0
03FFFFFFFFE0
03FFFFFFFFE0
07F83FC00FE0
07F83FC007E0
07F03FC00000
07F03FC00000
07F03FC00000
0FF03FC00000
0FF03FC00000
0FF03FFFF800
0FE03FFFF800
0FE03FFFF800
1FE03FFFF800
1FE03FFFF800
1FE03FFFF800
1FE03FFFF800
1FE03FC00000
3FF03FC00000
3FFFFFC00000
3FFFFFC00000
3FFFFFC00000
3FFFFFC007E0
7FFFFFC00FE0
7FDFFFFFFFE0
7F803FFFFFE0
7F803FFFFFE0
7F803FFFFFE0
FF803FFFFFC0
FF803FFFFFC0
FF803FFFFF80
FF003FFFFF00
FF003FFFFE00
ENDCHAR
STARTCHAR 00C7
ENCODING 199
SWIDTH 540 0
DWIDTH 30 0
BBX 26 47 2 -8
BITMAP
FFFFFC00
FFFFFE00
FFFFFE00
FFFFFF00
FFFFFF80
FFFFFFC0
FFFFFFC0
FFFFFFC0
FFFFFFC0
FF807FC0
FF803FC0
FF800000
FF800000
FF800000
FF800000
FF800000
FF800000
FF800000
FF800000
FF800000
FF800000
FF800000
FF800000
FF800000
FF800000
FF800000
FF800000
FF800000
FF803FC0
FF807FC0
FFFFFFC0
FFFFFFC0
FFFFFFC0
FFFFFFC0
FFFFFF80
FFFFFF00
FFFFFF00
FFFFFE00
FFFFFC00
00070000
000E0000
003E0000
003E0000
000E0000
007E0000
00FE0000
01FC0000
ENDCHAR
STARTCHAR 00C8
ENCODING 200
SWIDTH 540 0
DWIDTH 30 0
BBX 26 47 2 0
BITMAP
1F000000
1FF80000
1FFFC000
1FFFFE00
07FFFE00
0000FE00
00000000
00000000
FFFFFC00
FFFFFE00
FFFFFE00
FFFFFF00
FFFFFF80
FFFFFF80
FFFFFFC0
FFFFFFC0
FFFFFFC0
FF803FC0
FF801FC0
FF800000
FF800000
FF800000
FF800000
FF800000
FFFFE000
FFFFE000
FFFFE000
FFFFE000
FFFFE000
FFFFE000
FFFFE000
FF800000
FF800000
FF800000
FF800000
FF800000
FF801FC0
FF801FC0
FFFFFFC0
FFFFFFC0
FFFFFFC0
FFFFFF80
FFFFFF80
FFFFFF00
FFFFFE00
FFFFFE00
FFFFFC00
ENDCHAR
STARTCHAR 00C9
ENCODING 201
SWIDTH 540 0
DWIDTH 30 0
BBX 26 47 2 0
BITMAP
00007E00
07FFFE00
1FFFFE00
1FFFC000
1FF80000
1F800000
00000000
00000000
FFFFFC00
FFFFFE00
FFFFFE00
FFFFFF00
FFFFFF80
FFFFFF80
FFFFFFC0
FFFFFFC0
FFFFFFC0
FF803FC0
FF801FC0
FF800000
FF800000
FF800000
FF800000
FF800000
FFFFE000
FFFFE000
FFFFE000
FFFFE000
FFFFE000
FFFFE000
FFFFE000
FF800000
FF800000
FF800000
FF800000
FF800000
FF801FC0
FF801FC0
FFFFFFC0
FFFFFFC0
FFFFFFC0
FFFFFF80
FFFFFF80
FFFFFF00
FFFFFE00
FFFFFE00
FFFFFC00
ENDCHAR
STARTCHAR 00CA
ENCODING 202
SWIDTH 540 0
DWIDTH 30 0
BBX 26 48 2 0
BITMAP
0FFFE000
1FFFF000
3FFFF800
7FFFFC00
FE00FE00
FC007E00
F8003E00
00000000
00000000
FFFFFC00
FFFFFE00
FFFFFE00
FFFFFF00
FFFFFF80
FFFFFF80
FFFFFFC0
FFFFFFC0
FFFFFFC0
FF803FC0
FF801FC0
FF800000
FF800000
FF800000
FF800000
FF800000
FFFFE000
FFFFE000
FFFFE000
FFFFE000
FFFFE000
FFFFE000
FFFFE000
FF800000
FF800000
FF800000
FF800000
FF800000
FF801FC0
FF801FC0
FFFFFFC0
FFFFFFC0
FFFFFFC0
FFFFFF80
FFFFFF80
FFFFFF00
FFFFFE00
FFFFFE00
FFFFFC00
ENDCHAR
STARTCHAR 00CB
ENCODING 203
SWIDTH 540 0
DWIDTH 30 0
BBX 26 46 2 0
BITMAP
07C3F000
07C3F000
07C3F000
07C3F000
07C3F000
00000000
00000000
FFFFFC00
FFFFFE00
FFFFFE00
FFFFFF00
FFFFFF80
FFFFFF80
FFFFFFC0
FFFFFFC0
FFFFFFC0
FF803FC0
FF801FC0
FF800000
FF800000
FF800000
FF800000
FF800000
FFFFE000
FFFFE000
FFFFE000
FFFFE000
FFFFE000
FFFFE000
FFFFE000
FF800000
FF800000
FF800000
FF800000
FF800000
FF801FC0
FF801FC0
FFFFFFC0
FFFFFFC0
FFFFFFC0
FFFFFF80
FFFFFF80
FFFFFF00
FFFFFE00
FFFFFE00
FFFFFC00
ENDCHAR
STARTCHAR 00CC
ENCODING 204
SWIDTH 234 0
DWIDTH 13 0
BBX 20 47 -2 0
BITMAP
F80000
FFC000
FFFE00
FFFFF0
3FFFF0
0007F0
000000
000000
0FF800
0FF800
0FF800
0FF800
0FF800
0FF800
0FF800
0FF800
0FF800
0FF800
0FF800
0FF800
0FF800
0FF800
0FF800
0FF800
0FF800
0FF800
0FF800
0FF800
0FF800
0FF800
0FF800
0FF800
0FF800
0FF800
0FF800
0FF800
0FF800
0FF800
0FF800
0FF800
0FF800
0FF800
0FF800
0FF800
0FF800
0FF800
0FF800
ENDCHAR
STARTCHAR 00CD
ENCODING 205
SWIDTH 234 0
DWIDTH 13 0
BBX 20 47 -3 0
BITMAP
0003F0
3FFFF0
FFFFF0
FFFE00
FFC000
F80000
000000
000000
07FC00
07FC00
07FC00
07FC00
07FC00
07FC00
07FC00
07FC00
07FC00
07FC00
07FC00
07FC00
07FC00
07FC00
07FC00
07FC00
07FC00
07FC00
07FC00
07FC00
07FC00
07FC00
07FC00
07FC00
07FC00
07FC00
07FC00
07FC00
07FC00
07FC00
07FC00
07FC00
07FC00
07FC00
07FC00
07FC00
07FC00
07FC00
07FC00
ENDCHAR
STARTCHAR 00CE
ENCODING 206
SWIDTH 486 0
DWIDTH 27 0
BBX 23 48 2 0
BITMAP
0FFFE0
1FFFF0
3FFFF8
7FFFFC
FE00FE
FC007E
F8003E
000000
000000
01FF00
01FF00
01FF00
01FF00
01FF00
01FF00
01FF00
01FF00
01FF00
01FF00
01FF00
01FF00
01FF00
01FF00
01FF00
01FF00
01FF00
01FF00
01FF00
01FF00
01FF00
01FF00
01FF00
01FF00
01FF00
01FF00
01FF00
01FF00
01FF00
01FF00
01FF00
01FF00
01FF00
01FF00
01FF00
01FF00
01FF00
01FF00
01FF00
ENDCHAR
STARTCHAR 00CF
ENCODING 207
SWIDTH 234 0
DWIDTH 13 0
BBX 15 46 -1 0
BITMAP
FC7E
FC7E
FC7E
FC7E
FC7E
0000
0000
1FF0
1FF0
1FF0
1FF0
1FF0
1FF0
1FF0
1FF0
1FF0
1FF0
1FF0
1FF0
1FF0
1FF0
1FF0
1FF0
1FF0
1FF0
1FF0
1FF0
1FF0
1FF0
1FF0
1FF0
1FF0
1FF0
1FF0
1FF0
1FF0
1FF0
1FF0
1FF0
1FF0
1FF0
1FF0
1FF0
1FF0
1FF0
1FF0
ENDCHAR
STARTCHAR 00D0
ENCODING 208
SWIDTH 576 0
DWIDTH 32 0
BBX 31 39 -1 0
BITMAP
1FFFFFE0
1FFFFFF0
1FFFFFF0
1FFFFFF8
1FFFFFFC
1FFFFFFC
1FFFFFFE
1FFFFFFE
1FFFFFFE
1FF003FE
1FF003FE
1FF003FE
1FF003FE
1FF003FE
1FF003FE
1FF003FE
1FF003FE
FFFF83FE
FFFF83FE
FFFF83FE
FFFF83FE
FFFF83FE
FFFF83FE
1FF003FE
1FF003FE
1FF003FE
1FF003FE
1FF003FE
1FF003FE
1FF003FE
1FFFFFFE
1FFFFFFE
1FFFFFFE
1FFFFFFC
1FFFFFFC
1FFFFFF8
1FFFFFF0
1FFFFFF0
1FFFFFE0
ENDCHAR
STARTCHAR 00D1
ENCODING 209
SWIDTH 558 0
DWIDTH 31 0
BBX 28 49 2 0
BITMAP
00200000
00FC0000
03FF81C0
0FFFF7C0
1FFFFFC0
1F87FFC0
1E00FF00
1C001C00
00000000
00000000
0F801FF0
0F801FF0
1FC01FF0
3FC01FF0
3FE01FF0
7FE01FF0
FFF01FF0
FFF01FF0
FFF81FF0
FFF81FF0
FFFC1FF0
FFFC1FF0
FFFC1FF0
FFFE1FF0
FFFE1FF0
FFFF1FF0
FFFF1FF0
FFFF9FF0
FFFF9FF0
FFFFDFF0
FF9FFFF0
FF9FFFF0
FF8FFFF0
FF8FFFF0
FF8FFFF0
FF87FFF0
FF87FFF0
FF83FFF0
FF83FFF0
FF81FFF0
FF81FFF0
FF80FFF0
FF80FFF0
FF80FFE0
FF807FC0
FF807FC0
FF803F80
FF803F00
FF801E00
ENDCHAR
STARTCHAR 00D2
ENCODING 210
SWIDTH 612 0
DWIDTH 34 0
BBX 30 47 2 0
BITMAP
03E00000
03FF0000
03FFF800
03FFFFC0
00FFFFC0
00001FC0
00000000
00000000
0FFFFFC0
0FFFFFE0
1FFFFFE0
3FFFFFF0
3FFFFFF8
7FFFFFFC
FFFFFFFC
FFFFFFFC
FFFFFFFC
FFC007FC
FF8007FC
FF8003FC
FF8003FC
FF8003FC
FF8003FC
FF8003FC
FF8003FC
FF8003FC
FF8003FC
FF8003FC
FF8003FC
FF8003FC
FF8003FC
FF8003FC
FF8003FC
FF8003FC
FF8003FC
FF8003FC
FF8003FC
FFC007FC
FFFFFFFC
FFFFFFFC
FFFFFFFC
7FFFFFFC
7FFFFFF8
3FFFFFF0
1FFFFFF0
0FFFFFE0
0FFFFFC0
ENDCHAR
STARTCHAR 00D3
ENCODING 211
SWIDTH 612 0
DWIDTH 34 0
BBX 30 47 2 0
BITMAP
00000FC0
007FFFC0
03FFFFC0
03FFFC00
03FF8000
03F00000
00000000
00000000
0FFFFFC0
0FFFFFE0
1FFFFFE0
3FFFFFF0
3FFFFFF8
7FFFFFFC
FFFFFFFC
FFFFFFFC
FFFFFFFC
FFC007FC
FF8007FC
FF8003FC
FF8003FC
FF8003FC
FF8003FC
FF8003FC
FF8003FC
FF8003FC
FF8003FC
FF8003FC
FF8003FC
FF8003FC
FF8003FC
FF8003FC
FF8003FC
FF8003FC
FF8003FC
FF8003FC
FF8003FC
FFC007FC
FFFFFFFC
FFFFFFFC
FFFFFFFC
7FFFFFFC
7FFFFFF8
3FFFFFF0
1FFFFFF0
0FFFFFE0
0FFFFFC0
ENDCHAR
STARTCHAR 00D4
ENCODING 212
SWIDTH 612 0
DWIDTH 34 0
BBX 30 48 2 0
BITMAP
00FFFE00
01FFFF00
03FFFF80
07FFFFC0
0FE00FE0
0FC007E0
0F8003E0
00000000
00000000
0FFFFFC0
0FFFFFE0
1FFFFFE0
3FFFFFF0
3FFFFFF8
7FFFFFFC
FFFFFFFC
FFFFFFFC
FFFFFFFC
FFC007FC
FF8007FC
FF8003FC
FF8003FC
FF8003FC
FF8003FC
FF8003FC
FF8003FC
FF8003FC
FF8003FC
FF8003FC
FF8003FC
FF8003FC
FF8003FC
FF8003FC
FF8003FC
FF8003FC
FF8003FC
FF8003FC
FF8003FC
FFC007FC
FFFFFFFC
FFFFFFFC
FFFFFFFC
7FFFFFFC
7FFFFFF8
3FFFFFF0
1FFFFFF0
0FFFFFE0
0FFFFFC0
ENDCHAR
STARTCHAR 00D5
ENCODING 213
SWIDTH 612 0
DWIDTH 34 0
BBX 30 49 2 0
BITMAP
00100000
007E0000
01FFC0E0
07FFFBE0
0FFFFFE0
0FC3FFE0
0F007F80
0E000E00
00000000
00000000
0FFFFFC0
0FFFFFE0
1FFFFFE0
3FFFFFF0
3FFFFFF8
7FFFFFFC
FFFFFFFC
FFFFFFFC
FFFFFFFC
FFC007FC
FF8007FC
FF8003FC
FF8003FC
FF8003FC
FF8003FC
FF8003FC
FF8003FC
FF8003FC
FF8003FC
FF8003FC
FF8003FC
FF8003FC
FF8003FC
FF8003FC
FF8003FC
FF8003FC
FF8003FC
FF8003FC
FF8003FC
FFC007FC
FFFFFFFC
FFFFFFFC
FFFFFFFC
7FFFFFFC
7FFFFFF8
3FFFFFF0
1FFFFFF0
0FFFFFE0
0FFFFFC0
ENDCHAR
STARTCHAR 00D6
ENCODING 214
SWIDTH 612 0
DWIDTH 34 0
BBX 30 46 2 0
BITMAP
00F87C00
00F87C00
00F87C00
00F87C00
00F87C00
00000000
00000000
0FFFFFC0
0FFFFFE0
1FFFFFE0
3FFFFFF0
3FFFFFF8
7FFFFFFC
FFFFFFFC
FFFFFFFC
FFFFFFFC
FFC007FC
FF8007FC
FF8003FC
FF8003FC
FF8003FC
FF8003FC
FF8003FC
FF8003FC
FF8003FC
FF8003FC
FF8003FC
FF8003FC
FF8003FC
FF8003FC
FF8003FC
FF8003FC
FF8003FC
FF8003FC
FF8003FC
FF8003FC
FFC007FC
FFFFFFFC
FFFFFFFC
FFFFFFFC
7FFFFFFC
7FFFFFF8
3FFFFFF0
1FFFFFF0
0FFFFFE0
0FFFFFC0
ENDCHAR
STARTCHAR 00D7
ENCODING 215
SWIDTH 396 0
DWIDTH 22 0
BBX 21 17 1 10
BITMAP
1801C0
3E03E0
7F07F0
FF8FF0
3FDFE0
1FFFC0
0FFF80
07FF00
03FE00
07FF00
1FFF80
3FFFE0
7FDFF0
FF8FF8
7E07F0
3C01E0
1800C0
ENDCHAR
STARTCHAR 00D8
ENCODING 216
SWIDTH 612 0
DWIDTH 34 0
BBX 30 47 2 -4
BITMAP
000001F8
000003F8
000003F0
000003F0
0FFFFFE0
0FFFFFE0
1FFFFFF0
3FFFFFF0
3FFFFFF8
7FFFFFFC
FFFFFFFC
FFFFFFFC
FFFFFFFC
FFC07FFC
FF80FFFC
FF80FFFC
FF81FFFC
FF81FBFC
FF83FBFC
FF83F3FC
FF83F3FC
FF87E3FC
FF87E3FC
FF8FC3FC
FF8FC3FC
FF9F83FC
FF9F83FC
FFBF03FC
FFBF03FC
FFFE03FC
FFFE03FC
FFFE03FC
FFFC03FC
FFFC07FC
FFFFFFFC
FFFFFFFC
FFFFFFFC
7FFFFFFC
7FFFFFF8
3FFFFFF0
1FFFFFF0
0FFFFFE0
1FFFFFC0
1F800000
3F000000
3F000000
7F000000
ENDCHAR
STARTCHAR 00D9
ENCODING 217
SWIDTH 612 0
DWIDTH 34 0
BBX 30 47 2 0
BITMAP
07E00000
07FF0000
07FFF800
07FFFF80
00FFFF80
00001F80
00000000
00000000
FF8007FC
FF8007FC
FF8007FC
FF8007FC
FF8007FC
FF8007FC
FF8007FC
FF8007FC
FF8007FC
FF8007FC
FF8007FC
FF8007FC
FF8007FC
FF8007FC
FF8007FC
FF8007FC
FF8007FC
FF8007FC
FF8007FC
FF8007FC
FF8007FC
FF8007FC
FF8007FC
FF8007FC
FF8007FC
FF8007FC
FF8007FC
FF8007FC
FF8007FC
FFC00FFC
FFFFFFFC
FFFFFFFC
FFFFFFFC
7FFFFFF8
7FFFFFF8
3FFFFFF0
1FFFFFE0
0FFFFFC0
0FFFFFC0
ENDCHAR
STARTCHAR 00DA
ENCODING 218
SWIDTH 612 0
DWIDTH 34 0
BBX 30 47 2 0
BITMAP
00000F80
00FFFF80
07FFFF80
07FFF800
07FF0000
07E00000
00000000
00000000
FF8007FC
FF8007FC
FF8007FC
FF8007FC
FF8007FC
FF8007FC
FF8007FC
FF8007FC
FF8007FC
FF8007FC
FF8007FC
FF8007FC
FF8007FC
FF8007FC
FF8007FC
FF8007FC
FF8007FC
FF8007FC
FF8007FC
FF8007FC
FF8007FC
FF8007FC
FF8007FC
FF8007FC
FF8007FC
FF8007FC
FF8007FC
FF8007FC
FF8007FC
FFC00FFC
FFFFFFFC
FFFFFFFC
FFFFFFFC
7FFFFFF8
7FFFFFF8
3FFFFFF0
1FFFFFE0
0FFFFFC0
0FFFFFC0
ENDCHAR
STARTCHAR 00DB
ENCODING 219
SWIDTH 612 0
DWIDTH 34 0
BBX 30 48 2 0
BITMAP
00FFFC00
01FFFF00
07FFFF80
0FFFFFC0
0FE01FC0
0F8007C0
0F0003C0
00000000
00000000
FF8007FC
FF8007FC
FF8007FC
FF8007FC
FF8007FC
FF8007FC
FF8007FC
FF8007FC
FF8007FC
FF8007FC
FF8007FC
FF8007FC
FF8007FC
FF8007FC
FF8007FC
FF8007FC
FF8007FC
FF8007FC
FF8007FC
FF8007FC
FF8007FC
FF8007FC
FF8007FC
FF8007FC
FF8007FC
FF8007FC
FF8007FC
FF8007FC
FF8007FC
FFC00FFC
FFFFFFFC
FFFFFFFC
FFFFFFFC
7FFFFFF8
7FFFFFF8
3FFFFFF0
1FFFFFE0
0FFFFFC0
0FFFFFC0
ENDCHAR
STARTCHAR 00DC
ENCODING 220
SWIDTH 612 0
DWIDTH 34 0
BBX 30 46 2 0
BITMAP
00F87C00
00F87C00
00F87C00
00F87C00
00F87C00
00000000
00000000
FF8007FC
FF8007FC
FF8007FC
FF8007FC
FF8007FC
FF8007FC
FF8007FC
FF8007FC
FF8007FC
FF8007FC
FF8007FC
FF8007FC
FF8007FC
FF8007FC
FF8007FC
FF8007FC
FF8007FC
FF8007FC
FF8007FC
FF8007FC
FF8007FC
FF8007FC
FF8007FC
FF8007FC
FF8007FC
FF8007FC
FF8007FC
FF8007FC
FF8007FC
FFC00FFC
FFFFFFFC
FFFFFFFC
FFFFFFFC
7FFFFFF8
7FFFFFF8
3FFFFFF0
1FFFFFE0
0FFFFFC0
0FFFFFC0
ENDCHAR
STARTCHAR 00DD
ENCODING 221
SWIDTH 468 0
DWIDTH 26 0
BBX 26 47 0 0
BITMAP
00007E00
03FFFE00
1FFFFE00
1FFFE000
1FFC0000
1F800000
00000000
00000000
FF003FC0
FF803FC0
FF807FC0
FF807FC0
FFC07FC0
7FC0FF80
7FC0FF80
3FE0FF80
3FE1FF00
1FE1FF00
1FF1FE00
1FF3FE00
0FF3FC00
0FFBFC00
07FFF800
07FFF800
03FFF800
03FFF000
01FFF000
01FFE000
01FFE000
00FFC000
00FFC000
007FC000
007F8000
007F8000
007F8000
007F8000
007F8000
007F8000
007F8000
007F8000
007F8000
007F8000
007F8000
007F8000
007F8000
007F8000
007F8000
ENDCHAR
STARTCHAR 00DE
ENCODING 222
SWIDTH 540 0
DWIDTH 30 0
BBX 26 45 2 0
BITMAP
FF800000
FF800000
FF800000
FF800000
FF800000
FF800000
FFFFFC00
FFFFFC00
FFFFFE00
FFFFFF00
FFFFFF80
FFFFFF80
FFFFFFC0
FFFFFFC0
FFFFFFC0
FF80FFC0
FF807FC0
FF807FC0
FF807FC0
FF807FC0
FF807FC0
FF807FC0
FF807FC0
FF80FFC0
FFFFFFC0
FFFFFFC0
FFFFFFC0
FFFFFF80
FFFFFF00
FFFFFE00
FFFFFE00
FFFFFC00
FF800000
FF800000
FF800000
FF800000
FF800000
FF800000
FF800000
FF800000
FF800000
FF800000
FF800000
FF800000
FF800000
ENDCHAR
STARTCHAR 00DF
ENCODING 223
SWIDTH 576 0
DWIDTH 32 0
BBX 28 39 2 0
BITMAP
0FFFFF00
0FFFFF80
1FFFFF80
3FFFFFC0
3FFFFFE0
7FFFFFE0
FFFFFFF0
FFFFFFF0
FF801FF0
FF801FF0
FF801FF0
FF801FF0
FF801FF0
FF801FF0
FF801FF0
FF87FFF0
FF8FFFF0
FF8FFFE0
FF8FFFC0
FF8FFF80
FF8FFFE0
FF8FFFF0
FF8FFFF0
FF87FFF0
FF801FF0
FF801FF0
FF801FF0
FF801FF0
FF801FF0
FF801FF0
FF801FF0
FF8FFFF0
FF8FFFF0
FF8FFFE0
FF8FFFE0
FF8FFFC0
FF8FFF80
FF8FFF80
FF8FFF00
ENDCHAR
STARTCHAR 00E0
ENCODING 224
SWIDTH 576 0
DWIDTH 32 0
BBX 31 47 1 0
BITMAP
07C00000
07FE0000
07FFF000
07FFFF80
01FFFF80
00003F80
00000000
00000000
00FFFE00
01FFFE00
01FFFF00
01FFFF00
03FFFF00
03FFFF00
03FFFF80
03FFFF80
03FFFF80
07F83F80
07F83F80
07F03FC0
07F03FC0
07F03FC0
0FF01FC0
0FF01FC0
0FF01FE0
0FE01FE0
0FE01FE0
1FE01FE0
1FE01FE0
1FE00FF0
1FE00FF0
1FE00FF0
3FF01FF0
3FFFFFF0
3FFFFFF8
3FFFFFF8
3FFFFFF8
7FFFF7F8
7FDFF7F8
7F8007FC
7F8007FC
7F8007FC
FF8003FC
FF8003FC
FF8003FE
FF0003FE
FF0003FE
ENDCHAR
STARTCHAR 00E1
ENCODING 225
SWIDTH 576 0
DWIDTH 32 0
BBX 31 47 1 0
BITMAP
00001F80
00FFFF80
07FFFF80
07FFF800
07FF0000
07E00000
00000000
00000000
00FFFE00
01FFFE00
01FFFF00
01FFFF00
03FFFF00
03FFFF00
03FFFF80
03FFFF80
03FFFF80
07F83F80
07F83F80
07F03FC0
07F03FC0
07F03FC0
0FF01FC0
0FF01FC0
0FF01FE0
0FE01FE0
0FE01FE0
1FE01FE0
1FE01FE0
1FE00FF0
1FE00FF0
1FE00FF0
3FF01FF0
3FFFFFF0
3FFFFFF8
3FFFFFF8
3FFFFFF8
7FFFF7F8
7FDFF7F8
7F8007FC
7F8007FC
7F8007FC
FF8003FC
FF8003FC
FF8003FE
FF0003FE
FF0003FE
ENDCHAR
STARTCHAR 00E2
ENCODING 226
SWIDTH 576 0
DWIDTH 32 0
BBX 31 48 1 0
BITMAP
00FFFC00
03FFFE00
07FFFF80
0FFFFFC0
0FE01FC0
0F8007C0
0F0003C0
00000000
00000000
00FFFE00
01FFFE00
01FFFF00
01FFFF00
03FFFF00
03FFFF00
03FFFF80
03FFFF80
03FFFF80
07F83F80
07F83F80
07F03FC0
07F03FC0
07F03FC0
0FF01FC0
0FF01FC0
0FF01FE0
0FE01FE0
0FE01FE0
1FE01FE0
1FE01FE0
1FE00FF0
1FE00FF0
1FE00FF0
3FF01FF0
3FFFFFF0
3FFFFFF8
3FFFFFF8
3FFFFFF8
7FFFF7F8
7FDFF7F8
7F8007FC
7F8007FC
7F8007FC
FF8003FC
FF8003FC
FF8003FE
FF0003FE
FF0003FE
ENDCHAR
STARTCHAR 00E3
ENCODING 227
SWIDTH 576 0
DWIDTH 32 0
BBX 31 49 1 0
BITMAP
00100000
007E0000
01FFC0E0
07FFFBE0
0FFFFFE0
0FC3FFE0
0F007F80
0E000E00
00000000
00000000
00FFFE00
01FFFE00
01FFFF00
01FFFF00
03FFFF00
03FFFF00
03FFFF80
03FFFF80
03FFFF80
07F83F80
07F83F80
07F03FC0
07F03FC0
07F03FC0
0FF01FC0
0FF01FC0
0FF01FE0
0FE01FE0
0FE01FE0
1FE01FE0
1FE01FE0
1FE00FF0
1FE00FF0
1FE00FF0
3FF01FF0
3FFFFFF0
3FFFFFF8
3FFFFFF8
3FFFFFF8
7FFFF7F8
7FDFF7F8
7F8007FC
7F8007FC
7F8007FC
FF8003FC
FF8003FC
FF8003FE
FF0003FE
FF0003FE
ENDCHAR
STARTCHAR 00E4
ENCODING 228
SWIDTH 576 0
DWIDTH 32 0
BBX 31 46 1 0
BITMAP
00FC7C00
00FC7C00
00FC7C00
00FC7C00
00FC7C00
00000000
00000000
00FFFE00
01FFFE00
01FFFF00
01FFFF00
03FFFF00
03FFFF00
03FFFF80
03FFFF80
03FFFF80
07F83F80
07F83F80
07F03FC0
07F03FC0
07F03FC0
0FF01FC0
0FF01FC0
0FF01FE0
0FE01FE0
0FE01FE0
1FE01FE0
1FE01FE0
1FE00FF0
1FE00FF0
1FE00FF0
3FF01FF0
3FFFFFF0
3FFFFFF8
3FFFFFF8
3FFFFFF8
7FFFF7F8
7FDFF7F8
7F8007FC
7F8007FC
7F8007FC
FF8003FC
FF8003FC
FF8003FE
FF0003FE
FF0003FE
ENDCHAR
STARTCHAR 00E5
ENCODING 229
SWIDTH 576 0
DWIDTH 32 0
BBX 31 49 1 0
BITMAP
000FC000
001FE000
001CE000
001C6000
001C6000
001FE000
000FE000
000FC000
00000000
00000000
00FFFE00
01FFFE00
01FFFF00
01FFFF00
03FFFF00
03FFFF00
03FFFF80
03FFFF80
03FFFF80
07F83F80
07F83F80
07F03FC0
07F03FC0
07F03FC0
0FF01FC0
0FF01FC0
0FF01FE0
0FE01FE0
0FE01FE0
1FE01FE0
1FE01FE0
1FE00FF0
1FE00FF0
1FE00FF0
3FF01FF0
3FFFFFF0
3FFFFFF8
3FFFFFF8
3FFFFFF8
7FFFF7F8
7FDFF7F8
7F8007FC
7F8007FC
7F8007FC
FF8003FC
FF8003FC
FF8003FE
FF0003FE
FF0003FE
ENDCHAR
STARTCHAR 00E6
ENCODING 230
SWIDTH 828 0
DWIDTH 46 0
BBX 43 39 1 0
BITMAP
00FFFFFFFE00
01FFFFFFFF00
01FFFFFFFF80
01FFFFFFFF80
03FFFFFFFFC0
03FFFFFFFFE0
03FFFFFFFFE0
03FFFFFFFFE0
03FFFFFFFFE0
07F83FC00FE0
07F83FC007E0
07F03FC00000
07F03FC00000
07F03FC00000
0FF03FC00000
0FF03FC00000
0FF03FFFF800
0FE03FFFF800
0FE03FFFF800
1FE03FFFF800
1FE03FFFF800
1FE03FFFF800
1FE03FFFF800
1FE03FC00000
3FF03FC00000
3FFFFFC00000
3FFFFFC00000
3FFFFFC00000
3FFFFFC007E0
7FFFFFC00FE0
7FDFFFFFFFE0
7F803FFFFFE0
7F803FFFFFE0
7F803FFFFFE0
FF803FFFFFC0
FF803FFFFFC0
FF803FFFFF80
FF003FFFFF00
FF003FFFFE00
ENDCHAR
STARTCHAR 00E7
ENCODING 231
SWIDTH 540 0
DWIDTH 30 0
BBX 26 47 2 -8
BITMAP
FFFFFC00
FFFFFE00
FFFFFE00
FFFFFF00
FFFFFF80
FFFFFFC0
FFFFFFC0
FFFFFFC0
FFFFFFC0
FF807FC0
FF803FC0
FF800000
FF800000
FF800000
FF800000
FF800000
FF800000
FF800000
FF800000
FF800000
FF800000
FF800000
FF800000
FF800000
FF800000
FF800000
FF800000
FF800000
FF803FC0
FF807FC0
FFFFFFC0
FFFFFFC0
FFFFFFC0
FFFFFFC0
FFFFFF80
FFFFFF00
FFFFFF00
FFFFFE00
FFFFFC00
00070000
000E0000
003E0000
003E0000
000E0000
007E0000
00FE0000
01FC0000
ENDCHAR
STARTCHAR 00E8
ENCODING 232
SWIDTH 540 0
DWIDTH 30 0
BBX 26 47 2 0
BITMAP
1F000000
1FF80000
1FFFC000
1FFFFE00
07FFFE00
0000FE00
00000000
00000000
FFFFFC00
FFFFFE00
FFFFFE00
FFFFFF00
FFFFFF80
FFFFFF80
FFFFFFC0
FFFFFFC0
FFFFFFC0
FF803FC0
FF801FC0
FF800000
FF800000
FF800000
FF800000
FF800000
FFFFE000
FFFFE000
FFFFE000
FFFFE000
FFFFE000
FFFFE000
FFFFE000
FF800000
FF800000
FF800000
FF800000
FF800000
FF801FC0
FF801FC0
FFFFFFC0
FFFFFFC0
FFFFFFC0
FFFFFF80
FFFFFF80
FFFFFF00
FFFFFE00
FFFFFE00
FFFFFC00
ENDCHAR
STARTCHAR 00E9
ENCODING 233
SWIDTH 540 0
DWIDTH 30 0
BBX 26 47 2 0
BITMAP
00007E00
07FFFE00
1FFFFE00
1FFFC000
1FF80000
1F800000
00000000
00000000
FFFFFC00
FFFFFE00
FFFFFE00
FFFFFF00
FFFFFF80
FFFFFF80
FFFFFFC0
FFFFFFC0
FFFFFFC0
FF803FC0
FF801FC0
FF800000
FF800000
FF800000
FF800000
FF800000
FFFFE000
FFFFE000
FFFFE000
FFFFE000
FFFFE000
FFFFE000
FFFFE000
FF800000
FF800000
FF800000
FF800000
FF800000
FF801FC0
FF801FC0
FFFFFFC0
FFFFFFC0
FFFFFFC0
FFFFFF80
FFFFFF80
FFFFFF00
FFFFFE00
FFFFFE00
FFFFFC00
ENDCHAR
STARTCHAR 00EA
ENCODING 234
SWIDTH 540 0
DWIDTH 30 0
BBX 26 48 2 0
BITMAP
0FFFE000
1FFFF000
3FFFF800
7FFFFC00
FE00FE00
FC007E00
F8003E00
00000000
00000000
FFFFFC00
FFFFFE00
FFFFFE00
FFFFFF00
FFFFFF80
FFFFFF80
FFFFFFC0
FFFFFFC0
FFFFFFC0
FF803FC0
FF801FC0
FF800000
FF800000
FF800000
FF800000
FF800000
FFFFE000
FFFFE000
FFFFE000
FFFFE000
FFFFE000
FFFFE000
FFFFE000
FF800000
FF800000
FF800000
FF800000
FF800000
FF801FC0
FF801FC0
FFFFFFC0
FFFFFFC0
FFFFFFC0
FFFFFF80
FFFFFF80
FFFFFF00
FFFFFE00
FFFFFE00
FFFFFC00
ENDCHAR
STARTCHAR 00EB
ENCODING 235
SWIDTH 540 0
DWIDTH 30 0
BBX 26 46 2 0
BITMAP
07C3E000
07C3E000
07C3E000
07C3E000
07C3E000
00000000
00000000
FFFFFC00
FFFFFE00
FFFFFE00
FFFFFF00
FFFFFF80
FFFFFF80
FFFFFFC0
FFFFFFC0
FFFFFFC0
FF803FC0
FF801FC0
FF800000
FF800000
FF800000
FF800000
FF800000
FFFFE000
FFFFE000
FFFFE000
FFFFE000
FFFFE000
FFFFE000
FFFFE000
FF800000
FF800000
FF800000
FF800000
FF800000
FF801FC0
FF801FC0
FFFFFFC0
FFFFFFC0
FFFFFFC0
FFFFFF80
FFFFFF80
FFFFFF00
FFFFFE00
FFFFFE00
FFFFFC00
ENDCHAR
STARTCHAR 00EC
ENCODING 236
SWIDTH 234 0
DWIDTH 13 0
BBX 20 47 -3 0
BITMAP
F80000
FFC000
FFFE00
FFFFF0
3FFFF0
0007F0
000000
000000
07FC00
07FC00
07FC00
07FC00
07FC00
07FC00
07FC00
07FC00
07FC00
07FC00
07FC00
07FC00
07FC00
07FC00
07FC00
07FC00
07FC00
07FC00
07FC00
07FC00
07FC00
07FC00
07FC00
07FC00
07FC00
07FC00
07FC00
07FC00
07FC00
07FC00
07FC00
07FC00
07FC00
07FC00
07FC00
07FC00
07FC00
07FC00
07FC00
ENDCHAR
STARTCHAR 00ED
ENCODING 237
SWIDTH 234 0
DWIDTH 13 0
BBX 20 47 -3 0
BITMAP
0003F0
3FFFF0
FFFFF0
FFFE00
FFC000
F80000
000000
000000
07FC00
07FC00
07FC00
07FC00
07FC00
07FC00
07FC00
07FC00
07FC00
07FC00
07FC00
07FC00
07FC00
07FC00
07FC00
07FC00
07FC00
07FC00
07FC00
07FC00
07FC00
07FC00
07FC00
07FC00
07FC00
07FC00
07FC00
07FC00
07FC00
07FC00
07FC00
07FC00
07FC00
07FC00
07FC00
07FC00
07FC00
07FC00
07FC00
ENDCHAR
STARTCHAR 00EE
ENCODING 238
SWIDTH 486 0
DWIDTH 27 0
BBX 23 48 2 0
BITMAP
0FFFE0
1FFFF0
3FFFF8
7FFFFC
FE00FE
FC007E
F8003E
000000
000000
000000
00FF00
00FF00
00FF00
00FF00
00FF00
00FF00
00FF00
00FF00
00FF00
00FF00
00FF00
00FF00
00FF00
00FF00
00FF00
00FF00
00FF00
00FF00
00FF00
00FF00
00FF00
00FF00
00FF00
00FF00
00FF00
00FF00
00FF00
00FF00
00FF00
00FF00
00FF00
00FF00
00FF00
00FF00
00FF00
00FF00
00FF00
00FF00
ENDCHAR
STARTCHAR 00EF
ENCODING 239
SWIDTH 234 0
DWIDTH 13 0
BBX 15 46 -1 0
BITMAP
FC7E
FC7E
FC7E
FC7E
FC7E
0000
0000
1FF0
1FF0
1FF0
1FF0
1FF0
1FF0
1FF0
1FF0
1FF0
1FF0
1FF0
1FF0
1FF0
1FF0
1FF0
1FF0
1FF0
1FF0
1FF0
1FF0
1FF0
1FF0
1FF0
1FF0
1FF0
1FF0
1FF0
1FF0
1FF0
1FF0
1FF0
1FF0
1FF0
1FF0
1FF0
1FF0
1FF0
1FF0
1FF0
ENDCHAR
STARTCHAR 00F0
ENCODING 240
SWIDTH 576 0
DWIDTH 32 0
BBX 31 39 -1 0
BITMAP
1FFFFFE0
1FFFFFF0
1FFFFFF0
1FFFFFF8
1FFFFFFC
1FFFFFFC
1FFFFFFE
1FFFFFFE
1FFFFFFE
1FF003FE
1FF003FE
1FF003FE
1FF003FE
1FF003FE
1FF003FE
1FF003FE
1FF003FE
FFFF83FE
FFFF83FE
FFFF83FE
FFFF83FE
FFFF83FE
FFFF83FE
1FF003FE
1FF003FE
1FF003FE
1FF003FE
1FF003FE
1FF003FE
1FF003FE
1FFFFFFE
1FFFFFFE
1FFFFFFE
1FFFFFFC
1FFFFFFC
1FFFFFF8
1FFFFFF0
1FFFFFF0
1FFFFFE0
ENDCHAR
STARTCHAR 00F1
ENCODING 241
SWIDTH 558 0
DWIDTH 31 0
BBX 28 49 2 0
BITMAP
00200000
00FC0000
03FF81C0
0FFFF7C0
1FFFFFC0
1F87FFC0
1E00FF00
1C001C00
00000000
00000000
0F801FF0
0F801FF0
1FC01FF0
3FC01FF0
3FE01FF0
7FE01FF0
FFF01FF0
FFF01FF0
FFF81FF0
FFF81FF0
FFFC1FF0
FFFC1FF0
FFFC1FF0
FFFE1FF0
FFFE1FF0
FFFF1FF0
FFFF1FF0
FFFF9FF0
FFFF9FF0
FFFFDFF0
FF9FFFF0
FF9FFFF0
FF8FFFF0
FF8FFFF0
FF8FFFF0
FF87FFF0
FF87FFF0
FF83FFF0
FF83FFF0
FF81FFF0
FF81FFF0
FF80FFF0
FF80FFF0
FF80FFE0
FF807FC0
FF807FC0
FF803F80
FF803F00
FF801E00
ENDCHAR
STARTCHAR 00F2
ENCODING 242
SWIDTH 612 0
DWIDTH 34 0
BBX 30 47 2 0
BITMAP
07C00000
07FE0000
07FFF000
07FFFF80
01FFFF80
00003F80
00000000
00000000
0FFFFFC0
0FFFFFE0
1FFFFFE0
3FFFFFF0
3FFFFFF8
7FFFFFFC
FFFFFFFC
FFFFFFFC
FFFFFFFC
FFC007FC
FF8007FC
FF8003FC
FF8003FC
FF8003FC
FF8003FC
FF8003FC
FF8003FC
FF8003FC
FF8003FC
FF8003FC
FF8003FC
FF8003FC
FF8003FC
FF8003FC
FF8003FC
FF8003FC
FF8003FC
FF8003FC
FF8003FC
FFC007FC
FFFFFFFC
FFFFFFFC
FFFFFFFC
7FFFFFFC
7FFFFFF8
3FFFFFF0
1FFFFFF0
0FFFFFE0
0FFFFFC0
ENDCHAR
STARTCHAR 00F3
ENCODING 243
SWIDTH 612 0
DWIDTH 34 0
BBX 30 47 2 0
BITMAP
00001F80
01FFFF80
07FFFF80
07FFF000
07FE0000
07E00000
00000000
00000000
0FFFFFC0
0FFFFFE0
1FFFFFE0
3FFFFFF0
3FFFFFF8
7FFFFFFC
FFFFFFFC
FFFFFFFC
FFFFFFFC
FFC007FC
FF8007FC
FF8003FC
FF8003FC
FF8003FC
FF8003FC
FF8003FC
FF8003FC
FF8003FC
FF8003FC
FF8003FC
FF8003FC
FF8003FC
FF8003FC
FF8003FC
FF8003FC
FF8003FC
FF8003FC
FF8003FC
FF8003FC
FFC007FC
FFFFFFFC
FFFFFFFC
FFFFFFFC
7FFFFFFC
7FFFFFF8
3FFFFFF0
1FFFFFF0
0FFFFFE0
0FFFFFC0
ENDCHAR
STARTCHAR 00F4
ENCODING 244
SWIDTH 612 0
DWIDTH 34 0
BBX 30 48 2 0
BITMAP
00FFFE00
01FFFF00
03FFFF80
07FFFFC0
0FE00FE0
0FC007E0
0F8003E0
00000000
00000000
0FFFFFC0
0FFFFFE0
1FFFFFE0
3FFFFFF0
3FFFFFF8
7FFFFFFC
FFFFFFFC
FFFFFFFC
FFFFFFFC
FFC007FC
FF8007FC
FF8003FC
FF8003FC
FF8003FC
FF8003FC
FF8003FC
FF8003FC
FF8003FC
FF8003FC
FF8003FC
FF8003FC
FF8003FC
FF8003FC
FF8003FC
FF8003FC
FF8003FC
FF8003FC
FF8003FC
FF8003FC
FFC007FC
FFFFFFFC
FFFFFFFC
FFFFFFFC
7FFFFFFC
7FFFFFF8
3FFFFFF0
1FFFFFF0
0FFFFFE0
0FFFFFC0
ENDCHAR
STARTCHAR 00F5
ENCODING 245
SWIDTH 612 0
DWIDTH 34 0
BBX 30 49 2 0
BITMAP
00100000
007E0000
01FFC0E0
07FFFBE0
0FFFFFE0
0FC3FFE0
0F007F80
0E000E00
00000000
00000000
0FFFFFC0
0FFFFFE0
1FFFFFE0
3FFFFFF0
3FFFFFF8
7FFFFFFC
FFFFFFFC
FFFFFFFC
FFFFFFFC
FFC007FC
FF8007FC
FF8003FC
FF8003FC
FF8003FC
FF8003FC
FF8003FC
FF8003FC
FF8003FC
FF8003FC
FF8003FC
FF8003FC
FF8003FC
FF8003FC
FF8003FC
FF8003FC
FF8003FC
FF8003FC
FF8003FC
FF8003FC
FFC007FC
FFFFFFFC
FFFFFFFC
FFFFFFFC
7FFFFFFC
7FFFFFF8
3FFFFFF0
1FFFFFF0
0FFFFFE0
0FFFFFC0
ENDCHAR
STARTCHAR 00F6
ENCODING 246
SWIDTH 612 0
DWIDTH 34 0
BBX 30 46 2 0
BITMAP
00F87C00
00F87C00
00F87C00
00F87C00
00F87C00
00000000
00000000
0FFFFFC0
0FFFFFE0
1FFFFFE0
3FFFFFF0
3FFFFFF8
7FFFFFFC
FFFFFFFC
FFFFFFFC
FFFFFFFC
FFC007FC
FF8007FC
FF8003FC
FF8003FC
FF8003FC
FF8003FC
FF8003FC
FF8003FC
FF8003FC
FF8003FC
FF8003FC
FF8003FC
FF8003FC
FF8003FC
FF8003FC
FF8003FC
FF8003FC
FF8003FC
FF8003FC
FF8003FC
FFC007FC
FFFFFFFC
FFFFFFFC
FFFFFFFC
7FFFFFFC
7FFFFFF8
3FFFFFF0
1FFFFFF0
0FFFFFE0
0FFFFFC0
ENDCHAR
STARTCHAR 00F7
ENCODING 247
SWIDTH 414 0
DWIDTH 23 0
BBX 22 20 1 10
BITMAP
00FC00
00FC00
00FC00
00FC00
00FC00
000000
000000
FFFFFC
FFFFFC
FFFFFC
FFFFFC
FFFFFC
FFFFFC
000000
000000
00FC00
00FC00
00FC00
00FC00
00FC00
ENDCHAR
STARTCHAR 00F8
ENCODING 248
SWIDTH 612 0
DWIDTH 34 0
BBX 30 47 2 -4
BITMAP
000001F8
000003F8
000003F0
000003F0
0FFFFFE0
0FFFFFE0
1FFFFFF0
3FFFFFF0
3FFFFFF8
7FFFFFFC
FFFFFFFC
FFFFFFFC
FFFFFFFC
FFC07FFC
FF80FFFC
FF80FFFC
FF81FFFC
FF81FBFC
FF83FBFC
FF83F3FC
FF83F3FC
FF87E3FC
FF87E3FC
FF8FC3FC
FF8FC3FC
FF9F83FC
FF9F83FC
FFBF03FC
FFBF03FC
FFFE03FC
FFFE03FC
FFFE03FC
FFFC03FC
FFFC07FC
FFFFFFFC
FFFFFFFC
FFFFFFFC
7FFFFFFC
7FFFFFF8
3FFFFFF0
1FFFFFF0
0FFFFFE0
1FFFFFC0
1F800000
3F000000
3F000000
7F000000
ENDCHAR
STARTCHAR 00F9
ENCODING 249
SWIDTH 612 0
DWIDTH 34 0
BBX 30 47 2 0
BITMAP
07E00000
07FF0000
07FFF800
07FFFF80
00FFFF80
00001F80
00000000
00000000
FF8007FC
FF8007FC
FF8007FC
FF8007FC
FF8007FC
FF8007FC
FF8007FC
FF8007FC
FF8007FC
FF8007FC
FF8007FC
FF8007FC
FF8007FC
FF8007FC
FF8007FC
FF8007FC
FF8007FC
FF8007FC
FF8007FC
FF8007FC
FF8007FC
FF8007FC
FF8007FC
FF8007FC
FF8007FC
FF8007FC
FF8007FC
FF8007FC
FF8007FC
FFC00FFC
FFFFFFFC
FFFFFFFC
FFFFFFFC
7FFFFFF8
7FFFFFF8
3FFFFFF0
1FFFFFE0
0FFFFFC0
0FFFFFC0
ENDCHAR
STARTCHAR 00FA
ENCODING 250
SWIDTH 612 0
DWIDTH 34 0
BBX 30 47 2 0
BITMAP
00000F80
00FFFF80
07FFFF80
07FFF800
07FF0000
07E00000
00000000
00000000
FF8007FC
FF8007FC
FF8007FC
FF8007FC
FF8007FC
FF8007FC
FF8007FC
FF8007FC
FF8007FC
FF8007FC
FF8007FC
FF8007FC
FF8007FC
FF8007FC
FF8007FC
FF8007FC
FF8007FC
FF8007FC
FF8007FC
FF8007FC
FF8007FC
FF8007FC
FF8007FC
FF8007FC
FF8007FC
FF8007FC
FF8007FC
FF8007FC
FF8007FC
FFC00FFC
FFFFFFFC
FFFFFFFC
FFFFFFFC
7FFFFFF8
7FFFFFF8
3FFFFFF0
1FFFFFE0
0FFFFFC0
0FFFFFC0
ENDCHAR
STARTCHAR 00FB
ENCODING 251
SWIDTH 612 0
DWIDTH 34 0
BBX 30 48 2 0
BITMAP
00FFFC00
01FFFF00
07FFFF80
0FFFFFC0
0FE01FC0
0F8007C0
0F0003C0
00000000
00000000
FF8007FC
FF8007FC
FF8007FC
FF8007FC
FF8007FC
FF8007FC
FF8007FC
FF8007FC
FF8007FC
FF8007FC
FF8007FC
FF8007FC
FF8007FC
FF8007FC
FF8007FC
FF8007FC
FF8007FC
FF8007FC
FF8007FC
FF8007FC
FF8007FC
FF8007FC
FF8007FC
FF8007FC
FF8007FC
FF8007FC
FF8007FC
FF8007FC
FF8007FC
FFC00FFC
FFFFFFFC
FFFFFFFC
FFFFFFFC
7FFFFFF8
7FFFFFF8
3FFFFFF0
1FFFFFE0
0FFFFFC0
0FFFFFC0
ENDCHAR
STARTCHAR 00FC
ENCODING 252
SWIDTH 612 0
DWIDTH 34 0
BBX 30 46 2 0
BITMAP
00F87C00
00F87C00
00F87C00
00F87C00
00F87C00
00000000
00000000
FF8007FC
FF8007FC
FF8007FC
FF8007FC
FF8007FC
FF8007FC
FF8007FC
FF8007FC
FF8007FC
FF8007FC
FF8007FC
FF8007FC
FF8007FC
FF8007FC
FF8007FC
FF8007FC
FF8007FC
FF8007FC
FF8007FC
FF8007FC
FF8007FC
FF8007FC
FF8007FC
FF8007FC
FF8007FC
FF8007FC
FF8007FC
FF8007FC
FF8007FC
FFC00FFC
FFFFFFFC
FFFFFFFC
FFFFFFFC
7FFFFFF8
7FFFFFF8
3FFFFFF0
1FFFFFE0
0FFFFFC0
0FFFFFC0
ENDCHAR
STARTCHAR 00FD
ENCODING 253
SWIDTH 468 0
DWIDTH 26 0
BBX 26 47 0 0
BITMAP
00007E00
03FFFE00
1FFFFE00
1FFFE000
1FFC0000
1F800000
00000000
00000000
FF003FC0
FF803FC0
FF807FC0
FF807FC0
FFC07FC0
7FC0FF80
7FC0FF80
3FE0FF80
3FE1FF00
1FE1FF00
1FF1FE00
1FF3FE00
0FF3FC00
0FFBFC00
07FFF800
07FFF800
03FFF800
03FFF000
01FFF000
01FFE000
01FFE000
00FFC000
00FFC000
007FC000
007F8000
007F8000
007F8000
007F8000
007F8000
007F8000
007F8000
007F8000
007F8000
007F8000
007F8000
007F8000
007F8000
007F8000
007F8000
ENDCHAR
STARTCHAR 00FE
ENCODING 254
SWIDTH 540 0
DWIDTH 30 0
BBX 26 45 2 0
BITMAP
FF800000
FF800000
FF800000
FF800000
FF800000
FF800000
FFFFFC00
FFFFFC00
FFFFFE00
FFFFFF00
FFFFFF80
FFFFFF80
FFFFFFC0
FFFFFFC0
FFFFFFC0
FF80FFC0
FF807FC0
FF807FC0
FF807FC0
FF807FC0
FF807FC0
FF807FC0
FF807FC0
FF80FFC0
FFFFFFC0
FFFFFFC0
FFFFFFC0
FFFFFF80
FFFFFF00
FFFFFE00
FFFFFE00
FFFFFC00
FF800000
FF800000
FF800000
FF800000
FF800000
FF800000
FF800000
FF800000
FF800000
FF800000
FF800000
FF800000
FF800000
ENDCHAR
STARTCHAR 00FF
ENCODING 255
SWIDTH 468 0
DWIDTH 26 0
BBX 26 46 0 0
BITMAP
03E1F000
03E1F000
03E1F000
03E1F000
03E1F000
00000000
00000000
FF003FC0
FF803FC0
FF807FC0
FF807FC0
FFC07FC0
7FC0FF80
7FC0FF80
3FE0FF80
3FE1FF00
1FE1FF00
1FF1FE00
1FF3FE00
0FF3FC00
0FFBFC00
07FFF800
07FFF800
03FFF800
03FFF000
01FFF000
01FFE000
01FFE000
00FFC000
00FFC000
007FC000
007F8000
007F8000
007F8000
007F8000
007F8000
007F8000
007F8000
007F8000
007F8000
007F8000
007F8000
007F8000
007F8000
007F8000
007F8000
ENDCHAR
STARTCHAR 0100
ENCODING 256
SWIDTH 576 0
DWIDTH 32 0
BBX 31 47 1 0
BITMAP
0FFFFFC0
0FFFFFC0
0FFFFFC0
0FFFFFC0
0FFFFFC0
0FFFFFC0
00000000
00000000
00FFFE00
01FFFE00
01FFFF00
01FFFF00
03FFFF00
03FFFF00
03FFFF80
03FFFF80
03FFFF80
07F83F80
07F83F80
07F03FC0
07F03FC0
07F03FC0
0FF01FC0
0FF01FC0
0FF01FE0
0FE01FE0
0FE01FE0
1FE01FE0
1FE01FE0
1FE00FF0
1FE00FF0
1FE00FF0
3FF01FF0
3FFFFFF0
3FFFFFF8
3FFFFFF8
3FFFFFF8
7FFFF7F8
7FDFF7F8
7F8007FC
7F8007FC
7F8007FC
FF8003FC
FF8003FC
FF8003FE
FF0003FE
FF0003FE
ENDCHAR
STARTCHAR 0101
ENCODING 257
SWIDTH 576 0
DWIDTH 32 0
BBX 31 47 1 0
BITMAP
0FFFFFC0
0FFFFFC0
0FFFFFC0
0FFFFFC0
0FFFFFC0
0FFFFFC0
00000000
00000000
00FFFE00
01FFFE00
01FFFF00
01FFFF00
03FFFF00
03FFFF00
03FFFF80
03FFFF80
03FFFF80
07F83F80
07F83F80
07F03FC0
07F03FC0
07F03FC0
0FF01FC0
0FF01FC0
0FF01FE0
0FE01FE0
0FE01FE0
1FE01FE0
1FE01FE0
1FE00FF0
1FE00FF0
1FE00FF0
3FF01FF0
3FFFFFF0
3FFFFFF8
3FFFFFF8
3FFFFFF8
7FFFF7F8
7FDFF7F8
7F8007FC
7F8007FC
7F8007FC
FF8003FC
FF8003FC
FF8003FE
FF0003FE
FF0003FE
ENDCHAR
STARTCHAR 0102
ENCODING 258
SWIDTH 576 0
DWIDTH 32 0
BBX 31 48 1 0
BITMAP
0F0003C0
0F8007C0
0FC01FC0
0FFFFFC0
07FFFF80
03FFFF00
01FFFC00
00000000
00000000
00FFFE00
01FFFE00
01FFFF00
01FFFF00
03FFFF00
03FFFF00
03FFFF80
03FFFF80
03FFFF80
07F83F80
07F83F80
07F03FC0
07F03FC0
07F03FC0
0FF01FC0
0FF01FC0
0FF01FE0
0FE01FE0
0FE01FE0
1FE01FE0
1FE01FE0
1FE00FF0
1FE00FF0
1FE00FF0
3FF01FF0
3FFFFFF0
3FFFFFF8
3FFFFFF8
3FFFFFF8
7FFFF7F8
7FDFF7F8
7F8007FC
7F8007FC
7F8007FC
FF8003FC
FF8003FC
FF8003FE
FF0003FE
FF0003FE
ENDCHAR
STARTCHAR 0103
ENCODING 259
SWIDTH 576 0
DWIDTH 32 0
BBX 31 48 1 0
BITMAP
0F0003C0
0F8007C0
0FC01FC0
0FFFFFC0
07FFFF80
03FFFF00
01FFFC00
00000000
00000000
00FFFE00
01FFFE00
01FFFF00
01FFFF00
03FFFF00
03FFFF00
03FFFF80
03FFFF80
03FFFF80
07F83F80
07F83F80
07F03FC0
07F03FC0
07F03FC0
0FF01FC0
0FF01FC0
0FF01FE0
0FE01FE0
0FE01FE0
1FE01FE0
1FE01FE0
1FE00FF0
1FE00FF0
1FE00FF0
3FF01FF0
3FFFFFF0
3FFFFFF8
3FFFFFF8
3FFFFFF8
7FFFF7F8
7FDFF7F8
7F8007FC
7F8007FC
7F8007FC
FF8003FC
FF8003FC
FF8003FE
FF0003FE
FF0003FE
ENDCHAR
STARTCHAR 0104
ENCODING 260
SWIDTH 576 0
DWIDTH 32 0
BBX 34 48 1 -9
BITMAP
00FFFE0000
01FFFE0000
01FFFF0000
01FFFF0000
03FFFF0000
03FFFF0000
03FFFF8000
03FFFF8000
03FFFF8000
07F83F8000
07F83F8000
07F03FC000
07F03FC000
07F03FC000
0FF01FC000
0FF01FC000
0FF01FE000
0FE01FE000
0FE01FE000
1FE01FE000
1FE01FE000
1FE00FF000
1FE00FF000
1FE00FF000
3FF01FF000
3FFFFFF000
3FFFFFF800
3FFFFFF800
3FFFFFF800
7FFFF7F800
7FDFF7F800
7F8007FC00
7F8007FC00
7F8007FC00
FF8003FC00
FF8003FC00
FF8003FE00
FF0003FE00
FF0003FE00
0000001E00
0000003C00
0000003800
0000007800
00000071C0
0000007FC0
0000007FC0
0000007F80
0000007F80
ENDCHAR
STARTCHAR 0105
ENCODING 261
SWIDTH 576 0
DWIDTH 32 0
BBX 34 48 1 -9
BITMAP
00FFFE0000
01FFFE0000
01FFFF0000
01FFFF0000
03FFFF0000
03FFFF0000
03FFFF8000
03FFFF8000
03FFFF8000
07F83F8000
07F83F8000
07F03FC000
07F03FC000
07F03FC000
0FF01FC000
0FF01FC000
0FF01FE000
0FE01FE000
0FE01FE000
1FE01FE000
1FE01FE000
1FE00FF000
1FE00FF000
1FE00FF000
3FF01FF000
3FFFFFF000
3FFFFFF800
3FFFFFF800
3FFFFFF800
7FFFF7F800
7FDFF7F800
7F8007FC00
7F8007FC00
7F8007FC00
FF8003FC00
FF8003FC00
FF8003FE00
FF0003FE00
FF0003FE00
0000001E00
0000003C00
0000003800
0000007800
00000071C0
0000007FC0
0000007FC0
0000007F80
0000007F80
ENDCHAR
STARTCHAR 0106
ENCODING 262
SWIDTH 540 0
DWIDTH 30 0
BBX 26 47 2 0
BITMAP
00003E00
03FFFE00
1FFFFE00
1FFFE000
1FFC0000
1F800000
00000000
00000000
FFFFFC00
FFFFFE00
FFFFFE00
FFFFFF00
FFFFFF80
FFFFFFC0
FFFFFFC0
FFFFFFC0
FFFFFFC0
FF807FC0
FF803FC0
FF800000
FF800000
FF800000
FF800000
FF800000
FF800000
FF800000
FF800000
FF800000
FF800000
FF800000
FF800000
FF800000
FF800000
FF800000
FF800000
FF800000
FF803FC0
FF807FC0
FFFFFFC0
FFFFFFC0
FFFFFFC0
FFFFFFC0
FFFFFF80
FFFFFF00
FFFFFF00
FFFFFE00
FFFFFC00
ENDCHAR
STARTCHAR 0107
ENCODING 263
SWIDTH 540 0
DWIDTH 30 0
BBX 26 47 2 0
BITMAP
00003E00
03FFFE00
1FFFFE00
1FFFE000
1FFC0000
1F800000
00000000
00000000
FFFFFC00
FFFFFE00
FFFFFE00
FFFFFF00
FFFFFF80
FFFFFFC0
FFFFFFC0
FFFFFFC0
FFFFFFC0
FF807FC0
FF803FC0
FF800000
FF800000
FF800000
FF800000
FF800000
FF800000
FF800000
FF800000
FF800000
FF800000
FF800000
FF800000
FF800000
FF800000
FF800000
FF800000
FF800000
FF803FC0
FF807FC0
FFFFFFC0
FFFFFFC0
FFFFFFC0
FFFFFFC0
FFFFFF80
FFFFFF00
FFFFFF00
FFFFFE00
FFFFFC00
ENDCHAR
STARTCHAR 0108
ENCODING 264
SWIDTH 540 0
DWIDTH 30 0
BBX 26 48 2 0
BITMAP
0FFFE000
1FFFF000
3FFFF800
7FFFFC00
FE00FE00
FC007E00
F8003E00
00000000
00000000
FFFFFC00
FFFFFE00
FFFFFE00
FFFFFF00
FFFFFF80
FFFFFFC0
FFFFFFC0
FFFFFFC0
FFFFFFC0
FF807FC0
FF803FC0
FF800000
FF800000
FF800000
FF800000
FF800000
FF800000
FF800000
FF800000
FF800000
FF800000
FF800000
FF800000
FF800000
FF800000
FF800000
FF800000
FF800000
FF803FC0
FF807FC0
FFFFFFC0
FFFFFFC0
FFFFFFC0
FFFFFFC0
FFFFFF80
FFFFFF00
FFFFFF00
FFFFFE00
FFFFFC00
ENDCHAR
STARTCHAR 0109
ENCODING 265
SWIDTH 540 0
DWIDTH 30 0
BBX 26 48 2 0
BITMAP
0FFFE000
1FFFF000
3FFFF800
7FFFFC00
FE00FE00
FC007E00
F8003E00
00000000
00000000
FFFFFC00
FFFFFE00
FFFFFE00
FFFFFF00
FFFFFF80
FFFFFFC0
FFFFFFC0
FFFFFFC0
FFFFFFC0
FF807FC0
FF803FC0
FF800000
FF800000
FF800000
FF800000
FF800000
FF800000
FF800000
FF800000
FF800000
FF800000
FF800000
FF800000
FF800000
FF800000
FF800000
FF800000
FF800000
FF803FC0
FF807FC0
FFFFFFC0
FFFFFFC0
FFFFFFC0
FFFFFFC0
FFFFFF80
FFFFFF00
FFFFFF00
FFFFFE00
FFFFFC00
ENDCHAR
STARTCHAR 010A
ENCODING 266
SWIDTH 540 0
DWIDTH 30 0
BBX 26 48 2 0
BITMAP
001E0000
003F0000
003F8000
003F8000
003F8000
003F8000
001F0000
00000000
00000000
FFFFFC00
FFFFFE00
FFFFFE00
FFFFFF00
FFFFFF80
FFFFFFC0
FFFFFFC0
FFFFFFC0
FFFFFFC0
FF807FC0
FF803FC0
FF800000
FF800000
FF800000
FF800000
FF800000
FF800000
FF800000
FF800000
FF800000
FF800000
FF800000
FF800000
FF800000
FF800000
FF800000
FF800000
FF800000
FF803FC0
FF807FC0
FFFFFFC0
FFFFFFC0
FFFFFFC0
FFFFFFC0
FFFFFF80
FFFFFF00
FFFFFF00
FFFFFE00
FFFFFC00
ENDCHAR
STARTCHAR 010B
ENCODING 267
SWIDTH 540 0
DWIDTH 30 0
BBX 26 48 2 0
BITMAP
001E0000
003F0000
003F8000
003F8000
003F8000
003F8000
001F0000
00000000
00000000
FFFFFC00
FFFFFE00
FFFFFE00
FFFFFF00
FFFFFF80
FFFFFFC0
FFFFFFC0
FFFFFFC0
FFFFFFC0
FF807FC0
FF803FC0
FF800000
FF800000
FF800000
FF800000
FF800000
FF800000
FF800000
FF800000
FF800000
FF800000
FF800000
FF800000
FF800000
FF800000
FF800000
FF800000
FF800000
FF803FC0
FF807FC0
FFFFFFC0
FFFFFFC0
FFFFFFC0
FFFFFFC0
FFFFFF80
FFFFFF00
FFFFFF00
FFFFFE00
FFFFFC00
ENDCHAR
STARTCHAR 010C
ENCODING 268
SWIDTH 540 0
DWIDTH 30 0
BBX 26 48 2 0
BITMAP
06006000
0700E000
0781E000
07FFE000
03FFC000
01FF8000
00FF0000
00000000
00000000
FFFFFC00
FFFFFE00
FFFFFE00
FFFFFF00
FFFFFF80
FFFFFFC0
FFFFFFC0
FFFFFFC0
FFFFFFC0
FF807FC0
FF803FC0
FF800000
FF800000
FF800000
FF800000
FF800000
FF800000
FF800000
FF800000
FF800000
FF800000
FF800000
FF800000
FF800000
FF800000
FF800000
FF800000
FF800000
FF803FC0
FF807FC0
FFFFFFC0
FFFFFFC0
FFFFFFC0
FFFFFFC0
FFFFFF80
FFFFFF00
FFFFFF00
FFFFFE00
FFFFFC00
ENDCHAR
STARTCHAR 010D
ENCODING 269
SWIDTH 540 0
DWIDTH 30 0
BBX 26 48 2 0
BITMAP
06006000
0700E000
0781E000
07FFE000
03FFC000
01FF8000
00FF0000
00000000
00000000
FFFFFC00
FFFFFE00
FFFFFE00
FFFFFF00
FFFFFF80
FFFFFFC0
FFFFFFC0
FFFFFFC0
FFFFFFC0
FF807FC0
FF803FC0
FF800000
FF800000
FF800000
FF800000
FF800000
FF800000
FF800000
FF800000
FF800000
FF800000
FF800000
FF800000
FF800000
FF800000
FF800000
FF800000
FF800000
FF803FC0
FF807FC0
FFFFFFC0
FFFFFFC0
FFFFFFC0
FFFFFFC0
FFFFFF80
FFFFFF00
FFFFFF00
FFFFFE00
FFFFFC00
ENDCHAR
STARTCHAR 010E
ENCODING 270
SWIDTH 576 0
DWIDTH 32 0
BBX 28 48 2 0
BITMAP
01801C00
01C03C00
01E07C00
01FFF800
00FFF000
007FE000
003FC000
00000000
00000000
FFFFFF00
FFFFFF80
FFFFFF80
FFFFFFC0
FFFFFFE0
FFFFFFE0
FFFFFFF0
FFFFFFF0
FFFFFFF0
FF801FF0
FF801FF0
FF801FF0
FF801FF0
FF801FF0
FF801FF0
FF801FF0
FF801FF0
FF801FF0
FF801FF0
FF801FF0
FF801FF0
FF801FF0
FF801FF0
FF801FF0
FF801FF0
FF801FF0
FF801FF0
FF801FF0
FF801FF0
FF801FF0
FFFFFFF0
FFFFFFF0
FFFFFFF0
FFFFFFE0
FFFFFFE0
FFFFFFC0
FFFFFF80
FFFFFF80
FFFFFF00
ENDCHAR
STARTCHAR 010F
ENCODING 271
SWIDTH 756 0
DWIDTH 42 0
BBX 40 39 2 0
BITMAP
FFFFFF003E
FFFFFF803E
FFFFFF803F
FFFFFFC03F
FFFFFFE03F
FFFFFFE03F
FFFFFFF03F
FFFFFFF07E
FFFFFFF07E
FF801FF0FC
FF801FF1F8
FF801FF1F8
FF801FF3F0
FF801FF000
FF801FF000
FF801FF000
FF801FF000
FF801FF000
FF801FF000
FF801FF000
FF801FF000
FF801FF000
FF801FF000
FF801FF000
FF801FF000
FF801FF000
FF801FF000
FF801FF000
FF801FF000
FF801FF000
FFFFFFF000
FFFFFFF000
FFFFFFF000
FFFFFFE000
FFFFFFE000
FFFFFFC000
FFFFFF8000
FFFFFF8000
FFFFFF0000
ENDCHAR
STARTCHAR 0110
ENCODING 272
SWIDTH 576 0
DWIDTH 32 0
BBX 31 39 -1 0
BITMAP
1FFFFFE0
1FFFFFF0
1FFFFFF0
1FFFFFF8
1FFFFFFC
1FFFFFFC
1FFFFFFE
1FFFFFFE
1FFFFFFE
1FF003FE
1FF003FE
1FF003FE
1FF003FE
1FF003FE
1FF003FE
1FF003FE
1FF003FE
FFFF83FE
FFFF83FE
FFFF83FE
FFFF83FE
FFFF83FE
FFFF83FE
1FF003FE
1FF003FE
1FF003FE
1FF003FE
1FF003FE
1FF003FE
1FF003FE
1FFFFFFE
1FFFFFFE
1FFFFFFE
1FFFFFFC
1FFFFFFC
1FFFFFF8
1FFFFFF0
1FFFFFF0
1FFFFFE0
ENDCHAR
STARTCHAR 0111
ENCODING 273
SWIDTH 576 0
DWIDTH 32 0
BBX 31 39 -1 0
BITMAP
1FFFFFE0
1FFFFFF0
1FFFFFF0
1FFFFFF8
1FFFFFFC
1FFFFFFC
1FFFFFFE
1FFFFFFE
1FFFFFFE
1FF003FE
1FF003FE
1FF003FE
1FF003FE
1FF003FE
1FF003FE
1FF003FE
1FF003FE
FFFF83FE
FFFF83FE
FFFF83FE
FFFF83FE
FFFF83FE
FFFF83FE
1FF003FE
1FF003FE
1FF003FE
1FF003FE
1FF003FE
1FF003FE
1FF003FE
1FFFFFFE
1FFFFFFE
1FFFFFFE
1FFFFFFC
1FFFFFFC
1FFFFFF8
1FFFFFF0
1FFFFFF0
1FFFFFE0
ENDCHAR
STARTCHAR 0112
ENCODING 274
SWIDTH 540 0
DWIDTH 30 0
BBX 26 47 2 0
BITMAP
FFFFFE00
FFFFFE00
FFFFFE00
FFFFFE00
FFFFFE00
FFFFFE00
00000000
00000000
FFFFFC00
FFFFFE00
FFFFFE00
FFFFFF00
FFFFFF80
FFFFFF80
FFFFFFC0
FFFFFFC0
FFFFFFC0
FF803FC0
FF801FC0
FF800000
FF800000
FF800000
FF800000
FF800000
FFFFE000
FFFFE000
FFFFE000
FFFFE000
FFFFE000
FFFFE000
FFFFE000
FF800000
FF800000
FF800000
FF800000
FF800000
FF801FC0
FF801FC0
FFFFFFC0
FFFFFFC0
FFFFFFC0
FFFFFF80
FFFFFF80
FFFFFF00
FFFFFE00
FFFFFE00
FFFFFC00
ENDCHAR
STARTCHAR 0113
ENCODING 275
SWIDTH 540 0
DWIDTH 30 0
BBX 26 47 2 0
BITMAP
FFFFFE00
FFFFFE00
FFFFFE00
FFFFFE00
FFFFFE00
FFFFFE00
00000000
00000000
FFFFFC00
FFFFFE00
FFFFFE00
FFFFFF00
FFFFFF80
FFFFFF80
FFFFFFC0
FFFFFFC0
FFFFFFC0
FF803FC0
FF801FC0
FF800000
FF800000
FF800000
FF800000
FF800000
FFFFE000
FFFFE000
FFFFE000
FFFFE000
FFFFE000
FFFFE000
FFFFE000
FF800000
FF800000
FF800000
FF800000
FF800000
FF801FC0
FF801FC0
FFFFFFC0
FFFFFFC0
FFFFFFC0
FFFFFF80
FFFFFF80
FFFFFF00
FFFFFE00
FFFFFE00
FFFFFC00
ENDCHAR
STARTCHAR 0116
ENCODING 278
SWIDTH 540 0
DWIDTH 30 0
BBX 26 48 2 0
BITMAP
003C0000
007E0000
007F0000
007F0000
007F0000
007F0000
003E0000
00000000
00000000
FFFFFC00
FFFFFE00
FFFFFE00
FFFFFF00
FFFFFF80
FFFFFF80
FFFFFFC0
FFFFFFC0
FFFFFFC0
FF803FC0
FF801FC0
FF800000
FF800000
FF800000
FF800000
FF800000
FFFFE000
FFFFE000
FFFFE000
FFFFE000
FFFFE000
FFFFE000
FFFFE000
FF800000
FF800000
FF800000
FF800000
FF800000
FF801FC0
FF801FC0
FFFFFFC0
FFFFFFC0
FFFFFFC0
FFFFFF80
FFFFFF80
FFFFFF00
FFFFFE00
FFFFFE00
FFFFFC00
ENDCHAR
STARTCHAR 0117
ENCODING 279
SWIDTH 540 0
DWIDTH 30 0
BBX 26 48 2 0
BITMAP
003C0000
007E0000
007F0000
007F0000
007F0000
007F0000
003E0000
00000000
00000000
FFFFFC00
FFFFFE00
FFFFFE00
FFFFFF00
FFFFFF80
FFFFFF80
FFFFFFC0
FFFFFFC0
FFFFFFC0
FF803FC0
FF801FC0
FF800000
FF800000
FF800000
FF800000
FF800000
FFFFE000
FFFFE000
FFFFE000
FFFFE000
FFFFE000
FFFFE000
FFFFE000
FF800000
FF800000
FF800000
FF800000
FF800000
FF801FC0
FF801FC0
FFFFFFC0
FFFFFFC0
FFFFFFC0
FFFFFF80
FFFFFF80
FFFFFF00
FFFFFE00
FFFFFE00
FFFFFC00
ENDCHAR
STARTCHAR 0118
ENCODING 280
SWIDTH 540 0
DWIDTH 30 0
BBX 26 48 2 -9
BITMAP
FFFFFC00
FFFFFE00
FFFFFE00
FFFFFF00
FFFFFF80
FFFFFF80
FFFFFFC0
FFFFFFC0
FFFFFFC0
FF803FC0
FF801FC0
FF800000
FF800000
FF800000
FF800000
FF800000
FFFFE000
FFFFE000
FFFFE000
FFFFE000
FFFFE000
FFFFE000
FFFFE000
FF800000
FF800000
FF800000
FF800000
FF800000
FF801FC0
FF801FC0
FFFFFFC0
FFFFFFC0
FFFFFFC0
FFFFFF80
FFFFFF80
FFFFFF00
FFFFFE00
FFFFFE00
FFFFFC00
003C0000
00780000
00780000
00F00000
00F38000
00FF8000
00FF8000
00FF0000
00FF0000
ENDCHAR
STARTCHAR 0119
ENCODING 281
SWIDTH 540 0
DWIDTH 30 0
BBX 26 48 2 -9
BITMAP
FFFFFC00
FFFFFE00
FFFFFE00
FFFFFF00
FFFFFF80
FFFFFF80
FFFFFFC0
FFFFFFC0
FFFFFFC0
FF803FC0
FF801FC0
FF800000
FF800000
FF800000
FF800000
FF800000
FFFFE000
FFFFE000
FFFFE000
FFFFE000
FFFFE000
FFFFE000
FFFFE000
FF800000
FF800000
FF800000
FF800000
FF800000
FF801FC0
FF801FC0
FFFFFFC0
FFFFFFC0
FFFFFFC0
FFFFFF80
FFFFFF80
FFFFFF00
FFFFFE00
FFFFFE00
FFFFFC00
003C0000
00780000
00780000
00F00000
00F38000
00FF8000
00FF8000
00FF0000
00FF0000
ENDCHAR
STARTCHAR 011C
ENCODING 284
SWIDTH 540 0
DWIDTH 30 0
BBX 27 48 2 0
BITMAP
03FFF000
07FFFC00
1FFFFE00
3FFFFF00
3F807F00
3E001F00
3C000F00
00000000
00000000
FFFFFC00
FFFFFE00
FFFFFF00
FFFFFF80
FFFFFF80
FFFFFFC0
FFFFFFE0
FFFFFFE0
FFFFFFE0
FF801FE0
FF801FE0
FF800000
FF800000
FF800000
FF800000
FF800000
FF800000
FF87FFE0
FF87FFE0
FF87FFE0
FF87FFE0
FF87FFE0
FF87FFE0
FF87FFE0
FF87FFE0
FF803FE0
FF803FE0
FF803FE0
FF803FE0
FF803FE0
FFFFFFE0
FFFFFFE0
FFFFFFE0
FFFFFFE0
FFFFFFE0
FFFFFFE0
FFFFFFE0
FFFFFFE0
FFFFF3E0
ENDCHAR
STARTCHAR 011D
ENCODING 285
SWIDTH 540 0
DWIDTH 30 0
BBX 27 48 2 0
BITMAP
03FFF000
07FFFC00
1FFFFE00
3FFFFF00
3F807F00
3E001F00
3C000F00
00000000
00000000
FFFFFC00
FFFFFE00
FFFFFF00
FFFFFF80
FFFFFF80
FFFFFFC0
FFFFFFE0
FFFFFFE0
FFFFFFE0
FF801FE0
FF801FE0
FF800000
FF800000
FF800000
FF800000
FF800000
FF800000
FF87FFE0
FF87FFE0
FF87FFE0
FF87FFE0
FF87FFE0
FF87FFE0
FF87FFE0
FF87FFE0
FF803FE0
FF803FE0
FF803FE0
FF803FE0
FF803FE0
FFFFFFE0
FFFFFFE0
FFFFFFE0
FFFFFFE0
FFFFFFE0
FFFFFFE0
FFFFFFE0
FFFFFFE0
FFFFF3E0
ENDCHAR
STARTCHAR 011E
ENCODING 286
SWIDTH 540 0
DWIDTH 30 0
BBX 27 48 2 0
BITMAP
3C000F00
3E001F00
3F803F00
3FFFFF00
1FFFFE00
0FFFFC00
03FFF800
00000000
00000000
FFFFFC00
FFFFFE00
FFFFFF00
FFFFFF80
FFFFFF80
FFFFFFC0
FFFFFFE0
FFFFFFE0
FFFFFFE0
FF801FE0
FF801FE0
FF800000
FF800000
FF800000
FF800000
FF800000
FF800000
FF87FFE0
FF87FFE0
FF87FFE0
FF87FFE0
FF87FFE0
FF87FFE0
FF87FFE0
FF87FFE0
FF803FE0
FF803FE0
FF803FE0
FF803FE0
FF803FE0
FFFFFFE0
FFFFFFE0
FFFFFFE0
FFFFFFE0
FFFFFFE0
FFFFFFE0
FFFFFFE0
FFFFFFE0
FFFFF3E0
ENDCHAR
STARTCHAR 011F
ENCODING 287
SWIDTH 540 0
DWIDTH 30 0
BBX 27 48 2 0
BITMAP
3C000F00
3E001F00
3F803F00
3FFFFF00
1FFFFE00
0FFFFC00
03FFF800
00000000
00000000
FFFFFC00
FFFFFE00
FFFFFF00
FFFFFF80
FFFFFF80
FFFFFFC0
FFFFFFE0
FFFFFFE0
FFFFFFE0
FF801FE0
FF801FE0
FF800000
FF800000
FF800000
FF800000
FF800000
FF800000
FF87FFE0
FF87FFE0
FF87FFE0
FF87FFE0
FF87FFE0
FF87FFE0
FF87FFE0
FF87FFE0
FF803FE0
FF803FE0
FF803FE0
FF803FE0
FF803FE0
FFFFFFE0
FFFFFFE0
FFFFFFE0
FFFFFFE0
FFFFFFE0
FFFFFFE0
FFFFFFE0
FFFFFFE0
FFFFF3E0
ENDCHAR
STARTCHAR 0120
ENCODING 288
SWIDTH 540 0
DWIDTH 30 0
BBX 27 48 2 0
BITMAP
001F0000
003F8000
003F8000
003F8000
003F8000
003F8000
001F0000
00000000
00000000
FFFFFC00
FFFFFE00
FFFFFF00
FFFFFF80
FFFFFF80
FFFFFFC0
FFFFFFE0
FFFFFFE0
FFFFFFE0
FF801FE0
FF801FE0
FF800000
FF800000
FF800000
FF800000
FF800000
FF800000
FF87FFE0
FF87FFE0
FF87FFE0
FF87FFE0
FF87FFE0
FF87FFE0
FF87FFE0
FF87FFE0
FF803FE0
FF803FE0
FF803FE0
FF803FE0
FF803FE0
FFFFFFE0
FFFFFFE0
FFFFFFE0
FFFFFFE0
FFFFFFE0
FFFFFFE0
FFFFFFE0
FFFFFFE0
FFFFF3E0
ENDCHAR
STARTCHAR 0121
ENCODING 289
SWIDTH 540 0
DWIDTH 30 0
BBX 27 48 2 0
BITMAP
001F0000
003F8000
003F8000
003F8000
003F8000
003F8000
001F0000
00000000
00000000
FFFFFC00
FFFFFE00
FFFFFF00
FFFFFF80
FFFFFF80
FFFFFFC0
FFFFFFE0
FFFFFFE0
FFFFFFE0
FF801FE0
FF801FE0
FF800000
FF800000
FF800000
FF800000
FF800000
FF800000
FF87FFE0
FF87FFE0
FF87FFE0
FF87FFE0
FF87FFE0
FF87FFE0
FF87FFE0
FF87FFE0
FF803FE0
FF803FE0
FF803FE0
FF803FE0
FF803FE0
FFFFFFE0
FFFFFFE0
FFFFFFE0
FFFFFFE0
FFFFFFE0
FFFFFFE0
FFFFFFE0
FFFFFFE0
FFFFF3E0
ENDCHAR
STARTCHAR 0122
ENCODING 290
SWIDTH 540 0
DWIDTH 30 0
BBX 27 48 2 -9
BITMAP
FFFFFC00
FFFFFE00
FFFFFF00
FFFFFF80
FFFFFF80
FFFFFFC0
FFFFFFE0
FFFFFFE0
FFFFFFE0
FF801FE0
FF801FE0
FF800000
FF800000
FF800000
FF800000
FF800000
FF800000
FF87FFE0
FF87FFE0
FF87FFE0
FF87FFE0
FF87FFE0
FF87FFE0
FF87FFE0
FF87FFE0
FF803FE0
FF803FE0
FF803FE0
FF803FE0
FF803FE0
FFFFFFE0
FFFFFFE0
FFFFFFE0
FFFFFFE0
FFFFFFE0
FFFFFFE0
FFFFFFE0
FFFFFFE0
FFFFF3E0
00000000
000E0000
000E0000
000E0000
000E0000
000E0000
001C0000
003C0000
00780000
ENDCHAR
STARTCHAR 0123
ENCODING 291
SWIDTH 540 0
DWIDTH 30 0
BBX 27 48 2 -9
BITMAP
FFFFFC00
FFFFFE00
FFFFFF00
FFFFFF80
FFFFFF80
FFFFFFC0
FFFFFFE0
FFFFFFE0
FFFFFFE0
FF801FE0
FF801FE0
FF800000
FF800000
FF800000
FF800000
FF800000
FF800000
FF87FFE0
FF87FFE0
FF87FFE0
FF87FFE0
FF87FFE0
FF87FFE0
FF87FFE0
FF87FFE0
FF803FE0
FF803FE0
FF803FE0
FF803FE0
FF803FE0
FFFFFFE0
FFFFFFE0
FFFFFFE0
FFFFFFE0
FFFFFFE0
FFFFFFE0
FFFFFFE0
FFFFFFE0
FFFFF3E0
00000000
000E0000
000E0000
000E0000
000E0000
000E0000
001C0000
003C0000
00780000
ENDCHAR
STARTCHAR 0124
ENCODING 292
SWIDTH 576 0
DWIDTH 32 0
BBX 28 48 2 0
BITMAP
01FFFC00
03FFFE00
07FFFF00
0FFFFF80
1FC01FC0
1F800FC0
1E0007C0
00000000
00000000
FF801FF0
FF801FF0
FF801FF0
FF801FF0
FF801FF0
FF801FF0
FF801FF0
FF801FF0
FF801FF0
FF801FF0
FF801FF0
FF801FF0
FF801FF0
FF801FF0
FFC03FF0
FFFFFFF0
FFFFFFF0
FFFFFFF0
FFFFFFF0
FFFFFFF0
FFFFFFF0
FFFFFFF0
FFFFFFF0
FFC03FF0
FF801FF0
FF801FF0
FF801FF0
FF801FF0
FF801FF0
FF801FF0
FF801FF0
FF801FF0
FF801FF0
FF801FF0
FF801FF0
FF801FF0
FF801FF0
FF801FF0
FF801FF0
ENDCHAR
STARTCHAR 0125
ENCODING 293
SWIDTH 576 0
DWIDTH 32 0
BBX 28 48 2 0
BITMAP
01FFFC00
03FFFE00
07FFFF00
0FFFFF80
1FC01FC0
1F800FC0
1E0007C0
00000000
00000000
FF801FF0
FF801FF0
FF801FF0
FF801FF0
FF801FF0
FF801FF0
FF801FF0
FF801FF0
FF801FF0
FF801FF0
FF801FF0
FF801FF0
FF801FF0
FF801FF0
FFC03FF0
FFFFFFF0
FFFFFFF0
FFFFFFF0
FFFFFFF0
FFFFFFF0
FFFFFFF0
FFFFFFF0
FFFFFFF0
FFC03FF0
FF801FF0
FF801FF0
FF801FF0
FF801FF0
FF801FF0
FF801FF0
FF801FF0
FF801FF0
FF801FF0
FF801FF0
FF801FF0
FF801FF0
FF801FF0
FF801FF0
FF801FF0
ENDCHAR
STARTCHAR 0126
ENCODING 294
SWIDTH 576 0
DWIDTH 32 0
BBX 37 39 -2 0
BITMAP
0FF801FF00
0FF801FF00
0FF801FF00
0FF801FF00
FFFFFFFFF8
FFFFFFFFF8
FFFFFFFFF8
FFFFFFFFF8
FFFFFFFFF8
FFFFFFFFF8
0FF801FF00
0FF801FF00
0FF801FF00
0FF801FF00
0FFC03FF00
0FFFFFFF00
0FFFFFFF00
0FFFFFFF00
0FFFFFFF00
0FFFFFFF00
0FFFFFFF00
0FFFFFFF00
0FFFFFFF00
0FFC03FF00
0FF801FF00
0FF801FF00
0FF801FF00
0FF801FF00
0FF801FF00
0FF801FF00
0FF801FF00
0FF801FF00
0FF801FF00
0FF801FF00
0FF801FF00
0FF801FF00
0FF801FF00
0FF801FF00
0FF801FF00
ENDCHAR
STARTCHAR 0127
ENCODING 295
SWIDTH 576 0
DWIDTH 32 0
BBX 37 39 -2 0
BITMAP
0FF801FF00
0FF801FF00
0FF801FF00
0FF801FF00
FFFFFFFFF8
FFFFFFFFF8
FFFFFFFFF8
FFFFFFFFF8
FFFFFFFFF8
FFFFFFFFF8
0FF801FF00
0FF801FF00
0FF801FF00
0FF801FF00
0FFC03FF00
0FFFFFFF00
0FFFFFFF00
0FFFFFFF00
0FFFFFFF00
0FFFFFFF00
0FFFFFFF00
0FFFFFFF00
0FFFFFFF00
0FFC03FF00
0FF801FF00
0FF801FF00
0FF801FF00
0FF801FF00
0FF801FF00
0FF801FF00
0FF801FF00
0FF801FF00
0FF801FF00
0FF801FF00
0FF801FF00
0FF801FF00
0FF801FF00
0FF801FF00
0FF801FF00
ENDCHAR
STARTCHAR 0128
ENCODING 296
SWIDTH 234 0
DWIDTH 13 0
BBX 23 49 -5 0
BITMAP
010000
07E000
1FFC0E
7FFFBE
FFFFFE
FC3FFE
F007F8
E000E0
000000
000000
01FF00
01FF00
01FF00
01FF00
01FF00
01FF00
01FF00
01FF00
01FF00
01FF00
01FF00
01FF00
01FF00
01FF00
01FF00
01FF00
01FF00
01FF00
01FF00
01FF00
01FF00
01FF00
01FF00
01FF00
01FF00
01FF00
01FF00
01FF00
01FF00
01FF00
01FF00
01FF00
01FF00
01FF00
01FF00
01FF00
01FF00
01FF00
01FF00
ENDCHAR
STARTCHAR 0129
ENCODING 297
SWIDTH 234 0
DWIDTH 13 0
BBX 23 49 -5 0
BITMAP
010000
07E000
1FFC0E
7FFFBE
FFFFFE
FC1FFE
F807F8
E000E0
000000
000000
01FF00
01FF00
01FF00
01FF00
01FF00
01FF00
01FF00
01FF00
01FF00
01FF00
01FF00
01FF00
01FF00
01FF00
01FF00
01FF00
01FF00
01FF00
01FF00
01FF00
01FF00
01FF00
01FF00
01FF00
01FF00
01FF00
01FF00
01FF00
01FF00
01FF00
01FF00
01FF00
01FF00
01FF00
01FF00
01FF00
01FF00
01FF00
01FF00
ENDCHAR
STARTCHAR 012A
ENCODING 298
SWIDTH 234 0
DWIDTH 13 0
BBX 23 47 -5 0
BITMAP
FFFFFE
FFFFFE
FFFFFE
FFFFFE
FFFFFE
FFFFFE
000000
000000
01FF00
01FF00
01FF00
01FF00
01FF00
01FF00
01FF00
01FF00
01FF00
01FF00
01FF00
01FF00
01FF00
01FF00
01FF00
01FF00
01FF00
01FF00
01FF00
01FF00
01FF00
01FF00
01FF00
01FF00
01FF00
01FF00
01FF00
01FF00
01FF00
01FF00
01FF00
01FF00
01FF00
01FF00
01FF00
01FF00
01FF00
01FF00
01FF00
ENDCHAR
STARTCHAR 012B
ENCODING 299
SWIDTH 234 0
DWIDTH 13 0
BBX 23 47 -5 0
BITMAP
FFFFFE
FFFFFE
FFFFFE
FFFFFE
FFFFFE
FFFFFE
000000
000000
01FF00
01FF00
01FF00
01FF00
01FF00
01FF00
01FF00
01FF00
01FF00
01FF00
01FF00
01FF00
01FF00
01FF00
01FF00
01FF00
01FF00
01FF00
01FF00
01FF00
01FF00
01FF00
01FF00
01FF00
01FF00
01FF00
01FF00
01FF00
01FF00
01FF00
01FF00
01FF00
01FF00
01FF00
01FF00
01FF00
01FF00
01FF00
01FF00
ENDCHAR
STARTCHAR 012E
ENCODING 302
SWIDTH 234 0
DWIDTH 13 0
BBX 9 48 2 -9
BITMAP
FF80
FF80
FF80
FF80
FF80
FF80
FF80
FF80
FF80
FF80
FF80
FF80
FF80
FF80
FF80
FF80
FF80
FF80
FF80
FF80
FF80
FF80
FF80
FF80
FF80
FF80
FF80
FF80
FF80
FF80
FF80
FF80
FF80
FF80
FF80
FF80
FF80
FF80
FF80
3C00
7800
7800
F000
F380
FF80
FF80
FF00
FF00
ENDCHAR
STARTCHAR 012F
ENCODING 303
SWIDTH 234 0
DWIDTH 13 0
BBX 9 48 2 -9
BITMAP
FF80
FF80
FF80
FF80
FF80
FF80
FF80
FF80
FF80
FF80
FF80
FF80
FF80
FF80
FF80
FF80
FF80
FF80
FF80
FF80
FF80
FF80
FF80
FF80
FF80
FF80
FF80
FF80
FF80
FF80
FF80
FF80
FF80
FF80
FF80
FF80
FF80
FF80
FF80
3C00
7800
7800
F000
F380
FF80
FF80
FF00
FF00
ENDCHAR
STARTCHAR 0134
ENCODING 308
SWIDTH 504 0
DWIDTH 28 0
BBX 24 48 2 0
BITMAP
007FF0
01FFF8
03FFFC
07FFFE
07F07F
07C03F
07801F
000000
000000
07FFFF
07FFFF
07FFFF
07FFFF
07FFFF
07FFFF
07FFFF
07FFFF
07FFFF
0001FF
0001FF
0001FF
0001FF
0001FF
0001FF
0001FF
0001FF
0001FF
0001FF
0001FF
0001FF
0001FF
0001FF
0001FF
0001FF
0001FF
0001FF
0001FF
FF81FF
FFC1FF
FFFFFF
FFFFFF
FFFFFF
7FFFFF
7FFFFF
3FFFFF
1FFFFF
0FFFFF
0FFFFF
ENDCHAR
STARTCHAR 0135
ENCODING 309
SWIDTH 504 0
DWIDTH 28 0
BBX 24 48 2 0
BITMAP
007FF0
01FFF8
03FFFC
07FFFE
07F07F
07C03F
07801F
000000
000000
07FFFF
07FFFF
07FFFF
07FFFF
07FFFF
07FFFF
07FFFF
07FFFF
07FFFF
0001FF
0001FF
0001FF
0001FF
0001FF
0001FF
0001FF
0001FF
0001FF
0001FF
0001FF
0001FF
0001FF
0001FF
0001FF
0001FF
0001FF
0001FF
0001FF
FF81FF
FFC1FF
FFFFFF
FFFFFF
FFFFFF
7FFFFF
7FFFFF
3FFFFF
1FFFFF
0FFFFF
0FFFFF
ENDCHAR
STARTCHAR 0136
ENCODING 310
SWIDTH 558 0
DWIDTH 31 0
BBX 28 48 2 -9
BITMAP
FF801FF0
FF803FF0
FF807FF0
FF807FF0
FF80FFF0
FF81FFE0
FF81FFC0
FF83FFC0
FF87FF80
FF87FF00
FF8FFE00
FF9FFE00
FF9FFC00
FFBFF800
FFFFF000
FFFFF000
FFFFE000
FFFFC000
FFFFC000
FFFF8000
FFFF8000
FFFFC000
FFFFE000
FFFFE000
FFFFF000
FFBFF800
FF9FFC00
FF9FFC00
FF8FFE00
FF87FF00
FF83FF80
FF83FF80
FF81FFC0
FF80FFE0
FF80FFF0
FF807FF0
FF803FF0
FF803FF0
FF801FF0
00000000
000E0000
000F0000
000F0000
000F0000
000F0000
000E0000
001E0000
003C0000
ENDCHAR
STARTCHAR 0137
ENCODING 311
SWIDTH 558 0
DWIDTH 31 0
BBX 28 48 2 -9
BITMAP
FF801FF0
FF803FF0
FF807FF0
FF807FF0
FF80FFF0
FF81FFE0
FF81FFC0
FF83FFC0
FF87FF80
FF87FF00
FF8FFE00
FF9FFE00
FF9FFC00
FFBFF800
FFFFF000
FFFFF000
FFFFE000
FFFFC000
FFFFC000
FFFF8000
FFFF8000
FFFFC000
FFFFE000
FFFFE000
FFFFF000
FFBFF800
FF9FFC00
FF9FFC00
FF8FFE00
FF87FF00
FF83FF80
FF83FF80
FF81FFC0
FF80FFE0
FF80FFF0
FF807FF0
FF803FF0
FF803FF0
FF801FF0
00000000
000E0000
000F0000
000F0000
000F0000
000F0000
000E0000
001E0000
003C0000
ENDCHAR
STARTCHAR 0139
ENCODING 313
SWIDTH 414 0
DWIDTH 23 0
BBX 26 47 -3 0
BITMAP
0001F000
1FFFF000
FFFFF000
FFFF0000
FFE00000
FC000000
00000000
00000000
07FC0000
07FC0000
07FC0000
07FC0000
07FC0000
07FC0000
07FC0000
07FC0000
07FC0000
07FC0000
07FC0000
07FC0000
07FC0000
07FC0000
07FC0000
07FC0000
07FC0000
07FC0000
07FC0000
07FC0000
07FC0000
07FC0000
07FC0000
07FC0000
07FC0000
07FC0000
07FC0000
07FC0000
07FC0000
07FE0000
07FFFFC0
07FFFFC0
07FFFFC0
07FFFFC0
07FFFF80
07FFFF00
07FFFE00
07FFFE00
07FFFC00
ENDCHAR
STARTCHAR 013A
ENCODING 314
SWIDTH 414 0
DWIDTH 23 0
BBX 26 47 -3 0
BITMAP
0001F000
1FFFF000
FFFFF000
FFFF0000
FFE00000
FC000000
00000000
00000000
07FC0000
07FC0000
07FC0000
07FC0000
07FC0000
07FC0000
07FC0000
07FC0000
07FC0000
07FC0000
07FC0000
07FC0000
07FC0000
07FC0000
07FC0000
07FC0000
07FC0000
07FC0000
07FC0000
07FC0000
07FC0000
07FC0000
07FC0000
07FC0000
07FC0000
07FC0000
07FC0000
07FC0000
07FC0000
07FE0000
07FFFFC0
07FFFFC0
07FFFFC0
07FFFFC0
07FFFF80
07FFFF00
07FFFE00
07FFFE00
07FFFC00
ENDCHAR
STARTCHAR 013C
ENCODING 316
SWIDTH 414 0
DWIDTH 23 0
BBX 21 48 2 -9
BITMAP
FF8000
FF8000
FF8000
FF8000
FF8000
FF8000
FF8000
FF8000
FF8000
FF8000
FF8000
FF8000
FF8000
FF8000
FF8000
FF8000
FF8000
FF8000
FF8000
FF8000
FF8000
FF8000
FF8000
FF8000
FF8000
FF8000
FF8000
FF8000
FF8000
FFC000
FFFFF8
FFFFF8
FFFFF8
FFFFF8
FFFFF0
FFFFE0
FFFFC0
FFFFC0
FFFF80
000000
007000
007000
007000
007000
007000
00F000
01E000
01C000
ENDCHAR
STARTCHAR 013D
ENCODING 317
SWIDTH 414 0
DWIDTH 23 0
BBX 24 48 -1 0
BITMAP
E00E00
F01E00
F83E00
7C7E00
3FFC00
1FF800
0FE000
000000
000000
1FF000
1FF000
1FF000
1FF000
1FF000
1FF000
1FF000
1FF000
1FF000
1FF000
1FF000
1FF000
1FF000
1FF000
1FF000
1FF000
1FF000
1FF000
1FF000
1FF000
1FF000
1FF000
1FF000
1FF000
1FF000
1FF000
1FF000
1FF000
1FF000
1FF800
1FFFFF
1FFFFF
1FFFFF
1FFFFF
1FFFFE
1FFFFC
1FFFF8
1FFFF8
1FFFF0
ENDCHAR
STARTCHAR 013E
ENCODING 318
SWIDTH 414 0
DWIDTH 23 0
BBX 24 48 -1 0
BITMAP
E00E00
F01E00
F83E00
7C7E00
3FFC00
1FF800
0FE000
000000
000000
1FF000
1FF000
1FF000
1FF000
1FF000
1FF000
1FF000
1FF000
1FF000
1FF000
1FF000
1FF000
1FF000
1FF000
1FF000
1FF000
1FF000
1FF000
1FF000
1FF000
1FF000
1FF000
1FF000
1FF000
1FF000
1FF000
1FF000
1FF000
1FF000
1FF800
1FFFFF
1FFFFF
1FFFFF
1FFFFF
1FFFFE
1FFFFC
1FFFF8
1FFFF8
1FFFF0
ENDCHAR
STARTCHAR 0141
ENCODING 321
SWIDTH 504 0
DWIDTH 28 0
BBX 26 39 2 0
BITMAP
07FC0000
07FC0000
07FC0000
07FC0000
07FC0000
07FC0000
07FC0000
07FC0000
07FC0000
07FC3800
07FC7800
07FDF800
07FFF800
07FFF800
07FFF800
07FFE000
07FF8000
0FFF0000
1FFC0000
7FFC0000
FFFC0000
FFFC0000
FFFC0000
FFFC0000
F7FC0000
C7FC0000
07FC0000
07FC0000
07FC0000
07FE0000
07FFFFC0
07FFFFC0
07FFFFC0
07FFFFC0
07FFFF80
07FFFF00
07FFFE00
07FFFE00
07FFFC00
ENDCHAR
STARTCHAR 0142
ENCODING 322
SWIDTH 504 0
DWIDTH 28 0
BBX 26 39 2 0
BITMAP
07FC0000
07FC0000
07FC0000
07FC0000
07FC0000
07FC0000
07FC0000
07FC0000
07FC0000
07FC3800
07FC7800
07FDF800
07FFF800
07FFF800
07FFF800
07FFE000
07FF8000
0FFF0000
1FFC0000
7FFC0000
FFFC0000
FFFC0000
FFFC0000
FFFC0000
F7FC0000
C7FC0000
07FC0000
07FC0000
07FC0000
07FE0000
07FFFFC0
07FFFFC0
07FFFFC0
07FFFFC0
07FFFF80
07FFFF00
07FFFE00
07FFFE00
07FFFC00
ENDCHAR
STARTCHAR 0143
ENCODING 323
SWIDTH 558 0
DWIDTH 31 0
BBX 28 47 2 0
BITMAP
00003F00
01FFFF00
0FFFFF00
0FFFF000
0FFE0000
0FC00000
00000000
00000000
0F801FF0
0F801FF0
1FC01FF0
3FC01FF0
3FE01FF0
7FE01FF0
FFF01FF0
FFF01FF0
FFF81FF0
FFF81FF0
FFFC1FF0
FFFC1FF0
FFFC1FF0
FFFE1FF0
FFFE1FF0
FFFF1FF0
FFFF1FF0
FFFF9FF0
FFFF9FF0
FFFFDFF0
FF9FFFF0
FF9FFFF0
FF8FFFF0
FF8FFFF0
FF8FFFF0
FF87FFF0
FF87FFF0
FF83FFF0
FF83FFF0
FF81FFF0
FF81FFF0
FF80FFF0
FF80FFF0
FF80FFE0
FF807FC0
FF807FC0
FF803F80
FF803F00
FF801E00
ENDCHAR
STARTCHAR 0144
ENCODING 324
SWIDTH 558 0
DWIDTH 31 0
BBX 28 47 2 0
BITMAP
00003F00
01FFFF00
0FFFFF00
0FFFF000
0FFE0000
0FC00000
00000000
00000000
0F801FF0
0F801FF0
1FC01FF0
3FC01FF0
3FE01FF0
7FE01FF0
FFF01FF0
FFF01FF0
FFF81FF0
FFF81FF0
FFFC1FF0
FFFC1FF0
FFFC1FF0
FFFE1FF0
FFFE1FF0
FFFF1FF0
FFFF1FF0
FFFF9FF0
FFFF9FF0
FFFFDFF0
FF9FFFF0
FF9FFFF0
FF8FFFF0
FF8FFFF0
FF8FFFF0
FF87FFF0
FF87FFF0
FF83FFF0
FF83FFF0
FF81FFF0
FF81FFF0
FF80FFF0
FF80FFF0
FF80FFE0
FF807FC0
FF807FC0
FF803F80
FF803F00
FF801E00
ENDCHAR
STARTCHAR 0145
ENCODING 325
SWIDTH 558 0
DWIDTH 31 0
BBX 28 48 2 -9
BITMAP
0F801FF0
0F801FF0
1FC01FF0
3FC01FF0
3FE01FF0
7FE01FF0
FFF01FF0
FFF01FF0
FFF81FF0
FFF81FF0
FFFC1FF0
FFFC1FF0
FFFC1FF0
FFFE1FF0
FFFE1FF0
FFFF1FF0
FFFF1FF0
FFFF9FF0
FFFF9FF0
FFFFDFF0
FF9FFFF0
FF9FFFF0
FF8FFFF0
FF8FFFF0
FF8FFFF0
FF87FFF0
FF87FFF0
FF83FFF0
FF83FFF0
FF81FFF0
FF81FFF0
FF80FFF0
FF80FFF0
FF80FFE0
FF807FC0
FF807FC0
FF803F80
FF803F00
FF801E00
00000000
00070000
00078000
00078000
00078000
00078000
000F0000
000E0000
001E0000
ENDCHAR
STARTCHAR 0146
ENCODING 326
SWIDTH 558 0
DWIDTH 31 0
BBX 28 48 2 -9
BITMAP
0F801FF0
0F801FF0
1FC01FF0
3FC01FF0
3FE01FF0
7FE01FF0
FFF01FF0
FFF01FF0
FFF81FF0
FFF81FF0
FFFC1FF0
FFFC1FF0
FFFC1FF0
FFFE1FF0
FFFE1FF0
FFFF1FF0
FFFF1FF0
FFFF9FF0
FFFF9FF0
FFFFDFF0
FF9FFFF0
FF9FFFF0
FF8FFFF0
FF8FFFF0
FF8FFFF0
FF87FFF0
FF87FFF0
FF83FFF0
FF83FFF0
FF81FFF0
FF81FFF0
FF80FFF0
FF80FFF0
FF80FFE0
FF807FC0
FF807FC0
FF803F80
FF803F00
FF801E00
00000000
00070000
00078000
00078000
00078000
00078000
000F0000
000E0000
001E0000
ENDCHAR
STARTCHAR 0147
ENCODING 327
SWIDTH 558 0
DWIDTH 31 0
BBX 28 48 2 0
BITMAP
03801800
03C07800
03E0F800
01FFF800
00FFF000
007FE000
003FC000
00000000
00000000
0F801FF0
0F801FF0
1FC01FF0
3FC01FF0
3FE01FF0
7FE01FF0
FFF01FF0
FFF01FF0
FFF81FF0
FFF81FF0
FFFC1FF0
FFFC1FF0
FFFC1FF0
FFFE1FF0
FFFE1FF0
FFFF1FF0
FFFF1FF0
FFFF9FF0
FFFF9FF0
FFFFDFF0
FF9FFFF0
FF9FFFF0
FF8FFFF0
FF8FFFF0
FF8FFFF0
FF87FFF0
FF87FFF0
FF83FFF0
FF83FFF0
FF81FFF0
FF81FFF0
FF80FFF0
FF80FFF0
FF80FFE0
FF807FC0
FF807FC0
FF803F80
FF803F00
FF801E00
ENDCHAR
STARTCHAR 0148
ENCODING 328
SWIDTH 558 0
DWIDTH 31 0
BBX 28 48 2 0
BITMAP
03801800
03C03800
03E0F800
01F1F800
00FFF000
007FE000
003FC000
00000000
00000000
0F801FF0
0F801FF0
1FC01FF0
3FC01FF0
3FE01FF0
7FE01FF0
FFF01FF0
FFF01FF0
FFF81FF0
FFF81FF0
FFFC1FF0
FFFC1FF0
FFFC1FF0
FFFE1FF0
FFFE1FF0
FFFF1FF0
FFFF1FF0
FFFF9FF0
FFFF9FF0
FFFFDFF0
FF9FFFF0
FF9FFFF0
FF8FFFF0
FF8FFFF0
FF8FFFF0
FF87FFF0
FF87FFF0
FF83FFF0
FF83FFF0
FF81FFF0
FF81FFF0
FF80FFF0
FF80FFF0
FF80FFE0
FF807FC0
FF807FC0
FF803F80
FF803F00
FF801E00
ENDCHAR
STARTCHAR 014C
ENCODING 332
SWIDTH 612 0
DWIDTH 34 0
BBX 30 47 2 0
BITMAP
0FFFFFC0
0FFFFFC0
0FFFFFC0
0FFFFFC0
0FFFFFC0
0FFFFFC0
00000000
00000000
0FFFFFC0
0FFFFFE0
1FFFFFE0
3FFFFFF0
3FFFFFF8
7FFFFFFC
FFFFFFFC
FFFFFFFC
FFFFFFFC
FFC007FC
FF8007FC
FF8003FC
FF8003FC
FF8003FC
FF8003FC
FF8003FC
FF8003FC
FF8003FC
FF8003FC
FF8003FC
FF8003FC
FF8003FC
FF8003FC
FF8003FC
FF8003FC
FF8003FC
FF8003FC
FF8003FC
FF8003FC
FFC007FC
FFFFFFFC
FFFFFFFC
FFFFFFFC
7FFFFFFC
7FFFFFF8
3FFFFFF0
1FFFFFF0
0FFFFFE0
0FFFFFC0
ENDCHAR
STARTCHAR 014D
ENCODING 333
SWIDTH 612 0
DWIDTH 34 0
BBX 30 47 2 0
BITMAP
0FFFFFC0
0FFFFFC0
0FFFFFC0
0FFFFFC0
0FFFFFC0
0FFFFFC0
00000000
00000000
0FFFFFC0
0FFFFFE0
1FFFFFE0
3FFFFFF0
3FFFFFF8
7FFFFFFC
FFFFFFFC
FFFFFFFC
FFFFFFFC
FFC007FC
FF8007FC
FF8003FC
FF8003FC
FF8003FC
FF8003FC
FF8003FC
FF8003FC
FF8003FC
FF8003FC
FF8003FC
FF8003FC
FF8003FC
FF8003FC
FF8003FC
FF8003FC
FF8003FC
FF8003FC
FF8003FC
FF8003FC
FFC007FC
FFFFFFFC
FFFFFFFC
FFFFFFFC
7FFFFFFC
7FFFFFF8
3FFFFFF0
1FFFFFF0
0FFFFFE0
0FFFFFC0
ENDCHAR
STARTCHAR 0150
ENCODING 336
SWIDTH 612 0
DWIDTH 34 0
BBX 30 50 2 0
BITMAP
00079C00
00079C00
00079C00
0007BC00
000F3C00
000F7800
001E7800
001EF000
003CF000
00000000
00000000
0FFFFFC0
0FFFFFE0
1FFFFFE0
3FFFFFF0
3FFFFFF8
7FFFFFFC
FFFFFFFC
FFFFFFFC
FFFFFFFC
FFC007FC
FF8007FC
FF8003FC
FF8003FC
FF8003FC
FF8003FC
FF8003FC
FF8003FC
FF8003FC
FF8003FC
FF8003FC
FF8003FC
FF8003FC
FF8003FC
FF8003FC
FF8003FC
FF8003FC
FF8003FC
FF8003FC
FF8003FC
FFC007FC
FFFFFFFC
FFFFFFFC
FFFFFFFC
7FFFFFFC
7FFFFFF8
3FFFFFF0
1FFFFFF0
0FFFFFE0
0FFFFFC0
ENDCHAR
STARTCHAR 0151
ENCODING 337
SWIDTH 612 0
DWIDTH 34 0
BBX 30 50 2 0
BITMAP
00079C00
00079C00
00079C00
0007BC00
000F3C00
000F7800
001E7800
001EF000
003CF000
00000000
00000000
0FFFFFC0
0FFFFFE0
1FFFFFE0
3FFFFFF0
3FFFFFF8
7FFFFFFC
FFFFFFFC
FFFFFFFC
FFFFFFFC
FFC007FC
FF8007FC
FF8003FC
FF8003FC
FF8003FC
FF8003FC
FF8003FC
FF8003FC
FF8003FC
FF8003FC
FF8003FC
FF8003FC
FF8003FC
FF8003FC
FF8003FC
FF8003FC
FF8003FC
FF8003FC
FF8003FC
FF8003FC
FFC007FC
FFFFFFFC
FFFFFFFC
FFFFFFFC
7FFFFFFC
7FFFFFF8
3FFFFFF0
1FFFFFF0
0FFFFFE0
0FFFFFC0
ENDCHAR
STARTCHAR 0152
ENCODING 338
SWIDTH 846 0
DWIDTH 47 0
BBX 44 39 2 0
BITMAP
0FFFFFFFFE00
0FFFFFFFFF00
1FFFFFFFFF80
3FFFFFFFFFC0
3FFFFFFFFFC0
7FFFFFFFFFE0
FFFFFFFFFFF0
FFFFFFFFFFF0
FFFFFFFFFFF0
FFC03FC00FF0
FF803FC007F0
FF803FC00000
FF803FC00000
FF803FC00000
FF803FC00000
FF803FC00000
FF803FFFF800
FF803FFFF800
FF803FFFF800
FF803FFFF800
FF803FFFF800
FF803FFFF800
FF803FFFF800
FF803FC00000
FF803FC00000
FF803FC00000
FF803FC00000
FF803FC00000
FF803FC007F0
FFC03FC00FF0
FFFFFFFFFFF0
FFFFFFFFFFF0
FFFFFFFFFFF0
7FFFFFFFFFE0
7FFFFFFFFFC0
3FFFFFFFFFC0
1FFFFFFFFF80
0FFFFFFFFF00
0FFFFFFFFE00
ENDCHAR
STARTCHAR 0153
ENCODING 339
SWIDTH 846 0
DWIDTH 47 0
BBX 44 39 2 0
BITMAP
0FFFFFFFFE00
0FFFFFFFFF00
1FFFFFFFFF80
3FFFFFFFFFC0
3FFFFFFFFFC0
7FFFFFFFFFE0
FFFFFFFFFFF0
FFFFFFFFFFF0
FFFFFFFFFFF0
FFC03FC00FF0
FF803FC007F0
FF803FC00000
FF803FC00000
FF803FC00000
FF803FC00000
FF803FC00000
FF803FFFF800
FF803FFFF800
FF803FFFF800
FF803FFFF800
FF803FFFF800
FF803FFFF800
FF803FFFF800
FF803FC00000
FF803FC00000
FF803FC00000
FF803FC00000
FF803FC00000
FF803FC007F0
FFC03FC00FF0
FFFFFFFFFFF0
FFFFFFFFFFF0
FFFFFFFFFFF0
7FFFFFFFFFE0
7FFFFFFFFFC0
3FFFFFFFFFC0
1FFFFFFFFF80
0FFFFFFFFF00
0FFFFFFFFE00
ENDCHAR
STARTCHAR 0154
ENCODING 340
SWIDTH 540 0
DWIDTH 30 0
BBX 27 47 2 0
BITMAP
00007E00
03FFFE00
1FFFFE00
1FFFE000
1FFC0000
1F800000
00000000
00000000
FFFFFC00
FFFFFC00
FFFFFE00
FFFFFF00
FFFFFF80
FFFFFF80
FFFFFFC0
FFFFFFC0
FFFFFFC0
FF80FFC0
FF807FC0
FF807FC0
FF807FC0
FF807FC0
FF807FC0
FF80FFC0
FFFFFF80
FFFFFF80
FFFFFF00
FFFFFE00
FFFFFC00
FFFFFC00
FFFFFC00
FFFFFC00
FF87FE00
FF83FE00
FF83FE00
FF83FF00
FF81FF00
FF81FF80
FF81FF80
FF80FFC0
FF80FFC0
FF80FFC0
FF807FE0
FF807FE0
FF807FE0
FF803FE0
FF803FE0
ENDCHAR
STARTCHAR 0155
ENCODING 341
SWIDTH 540 0
DWIDTH 30 0
BBX 27 47 2 0
BITMAP
00007E00
03FFFE00
1FFFFE00
1FFFE000
1FFC0000
1F800000
00000000
00000000
FFFFFC00
FFFFFC00
FFFFFE00
FFFFFF00
FFFFFF80
FFFFFF80
FFFFFFC0
FFFFFFC0
FFFFFFC0
FF80FFC0
FF807FC0
FF807FC0
FF807FC0
FF807FC0
FF807FC0
FF80FFC0
FFFFFF80
FFFFFF80
FFFFFF00
FFFFFE00
FFFFFC00
FFFFFC00
FFFFFC00
FFFFFC00
FF87FE00
FF83FE00
FF83FE00
FF83FF00
FF81FF00
FF81FF80
FF81FF80
FF80FFC0
FF80FFC0
FF80FFC0
FF807FE0
FF807FE0
FF807FE0
FF803FE0
FF803FE0
ENDCHAR
STARTCHAR 0156
ENCODING 342
SWIDTH 540 0
DWIDTH 30 0
BBX 27 48 2 -9
BITMAP
FFFFFC00
FFFFFC00
FFFFFE00
FFFFFF00
FFFFFF80
FFFFFF80
FFFFFFC0
FFFFFFC0
FFFFFFC0
FF80FFC0
FF807FC0
FF807FC0
FF807FC0
FF807FC0
FF807FC0
FF80FFC0
FFFFFF80
FFFFFF80
FFFFFF00
FFFFFE00
FFFFFC00
FFFFFC00
FFFFFC00
FFFFFC00
FF87FE00
FF83FE00
FF83FE00
FF83FF00
FF81FF00
FF81FF80
FF81FF80
FF80FFC0
FF80FFC0
FF80FFC0
FF807FE0
FF807FE0
FF807FE0
FF803FE0
FF803FE0
00000000
000E0000
000F0000
000F0000
000F0000
000F0000
000E0000
001C0000
003C0000
ENDCHAR
STARTCHAR 0157
ENCODING 343
SWIDTH 540 0
DWIDTH 30 0
BBX 27 48 2 -9
BITMAP
FFFFFC00
FFFFFC00
FFFFFE00
FFFFFF00
FFFFFF80
FFFFFF80
FFFFFFC0
FFFFFFC0
FFFFFFC0
FF80FFC0
FF807FC0
FF807FC0
FF807FC0
FF807FC0
FF807FC0
FF80FFC0
FFFFFF80
FFFFFF80
FFFFFF00
FFFFFE00
FFFFFC00
FFFFFC00
FFFFFC00
FFFFFC00
FF87FE00
FF83FE00
FF83FE00
FF83FF00
FF81FF00
FF81FF80
FF81FF80
FF80FFC0
FF80FFC0
FF80FFC0
FF807FE0
FF807FE0
FF807FE0
FF803FE0
FF803FE0
00000000
000E0000
000F0000
000F0000
000F0000
000F0000
000E0000
001C0000
003C0000
ENDCHAR
STARTCHAR 0158
ENCODING 344
SWIDTH 540 0
DWIDTH 30 0
BBX 27 48 2 0
BITMAP
06007000
0700F000
0781F000
07FFE000
03FFC000
01FF8000
00FF0000
00000000
00000000
FFFFFC00
FFFFFC00
FFFFFE00
FFFFFF00
FFFFFF80
FFFFFF80
FFFFFFC0
FFFFFFC0
FFFFFFC0
FF80FFC0
FF807FC0
FF807FC0
FF807FC0
FF807FC0
FF807FC0
FF80FFC0
FFFFFF80
FFFFFF80
FFFFFF00
FFFFFE00
FFFFFC00
FFFFFC00
FFFFFC00
FFFFFC00
FF87FE00
FF83FE00
FF83FE00
FF83FF00
FF81FF00
FF81FF80
FF81FF80
FF80FFC0
FF80FFC0
FF80FFC0
FF807FE0
FF807FE0
FF807FE0
FF803FE0
FF803FE0
ENDCHAR
STARTCHAR 0159
ENCODING 345
SWIDTH 540 0
DWIDTH 30 0
BBX 27 48 2 0
BITMAP
06006000
0700E000
0781E000
07C3E000
03FFC000
01FF8000
00FF0000
00000000
00000000
FFFFFC00
FFFFFC00
FFFFFE00
FFFFFF00
FFFFFF80
FFFFFF80
FFFFFFC0
FFFFFFC0
FFFFFFC0
FF80FFC0
FF807FC0
FF807FC0
FF807FC0
FF807FC0
FF807FC0
FF80FFC0
FFFFFF80
FFFFFF80
FFFFFF00
FFFFFE00
FFFFFC00
FFFFFC00
FFFFFC00
FFFFFC00
FF87FE00
FF83FE00
FF83FE00
FF83FF00
FF81FF00
FF81FF80
FF81FF80
FF80FFC0
FF80FFC0
FF80FFC0
FF807FE0
FF807FE0
FF807FE0
FF803FE0
FF803FE0
ENDCHAR
STARTCHAR 015C
ENCODING 348
SWIDTH 540 0
DWIDTH 30 0
BBX 26 48 2 0
BITMAP
0FFFE000
1FFFF000
3FFFF800
7FFFFC00
FE00FE00
FC007E00
F8003E00
00000000
00000000
7FFFFC00
7FFFFC00
FFFFFE00
FFFFFF00
FFFFFF80
FFFFFF80
FFFFFFC0
FFFFFFC0
FFFFFFC0
FF803FC0
FFC01FC0
FFE00000
FFF00000
7FF80000
3FFC0000
1FFE0000
0FFF0000
07FF8000
03FFC000
01FFE000
00FFF000
007FF800
003FFC00
001FFE00
000FFF00
0007FF80
0003FFC0
0001FFC0
FE00FFC0
FF007FC0
FFFFFFC0
FFFFFFC0
FFFFFFC0
7FFFFFC0
7FFFFFC0
3FFFFFC0
1FFFFFC0
0FFFFFC0
0FFFFF80
ENDCHAR
STARTCHAR 015D
ENCODING 349
SWIDTH 540 0
DWIDTH 30 0
BBX 26 48 2 0
BITMAP
0FFFE000
1FFFF000
3FFFF800
7FFFFC00
FE00FE00
FC007E00
F8003E00
00000000
00000000
7FFFFC00
7FFFFC00
FFFFFE00
FFFFFF00
FFFFFF80
FFFFFF80
FFFFFFC0
FFFFFFC0
FFFFFFC0
FF803FC0
FFC01FC0
FFE00000
FFF00000
7FF80000
3FFC0000
1FFE0000
0FFF0000
07FF8000
03FFC000
01FFE000
00FFF000
007FF800
003FFC00
001FFE00
000FFF00
0007FF80
0003FFC0
0001FFC0
FE00FFC0
FF007FC0
FFFFFFC0
FFFFFFC0
FFFFFFC0
7FFFFFC0
7FFFFFC0
3FFFFFC0
1FFFFFC0
0FFFFFC0
0FFFFF80
ENDCHAR
STARTCHAR 015E
ENCODING 350
SWIDTH 540 0
DWIDTH 30 0
BBX 26 47 2 -8
BITMAP
7FFFFC00
7FFFFC00
FFFFFE00
FFFFFF00
FFFFFF80
FFFFFF80
FFFFFFC0
FFFFFFC0
FFFFFFC0
FF803FC0
FFC01FC0
FFE00000
FFF00000
7FF80000
3FFC0000
1FFE0000
0FFF0000
07FF8000
03FFC000
01FFE000
00FFF000
007FF800
003FFC00
001FFE00
000FFF00
0007FF80
0003FFC0
0001FFC0
FE00FFC0
FF007FC0
FFFFFFC0
FFFFFFC0
FFFFFFC0
7FFFFFC0
7FFFFFC0
3FFFFFC0
1FFFFFC0
0FFFFFC0
0FFFFF80
0003C000
00038000
001F0000
001F0000
00070000
003F0000
007F0000
007E0000
ENDCHAR
STARTCHAR 015F
ENCODING 351
SWIDTH 540 0
DWIDTH 30 0
BBX 26 47 2 -8
BITMAP
7FFFFC00
7FFFFC00
FFFFFE00
FFFFFF00
FFFFFF80
FFFFFF80
FFFFFFC0
FFFFFFC0
FFFFFFC0
FF803FC0
FFC01FC0
FFE00000
FFF00000
7FF80000
3FFC0000
1FFE0000
0FFF0000
07FF8000
03FFC000
01FFE000
00FFF000
007FF800
003FFC00
001FFE00
000FFF00
0007FF80
0003FFC0
0001FFC0
FE00FFC0
FF007FC0
FFFFFFC0
FFFFFFC0
FFFFFFC0
7FFFFFC0
7FFFFFC0
3FFFFFC0
1FFFFFC0
0FFFFFC0
0FFFFF80
0003C000
00038000
001F0000
001F0000
00070000
003F0000
007F0000
007E0000
ENDCHAR
STARTCHAR 0160
ENCODING 352
SWIDTH 540 0
DWIDTH 30 0
BBX 26 48 2 0
BITMAP
07007000
0780F000
07C1F000
03E3F000
01FFE000
00FF8000
007F0000
00000000
00000000
7FFFFC00
7FFFFC00
FFFFFE00
FFFFFF00
FFFFFF80
FFFFFF80
FFFFFFC0
FFFFFFC0
FFFFFFC0
FF803FC0
FFC01FC0
FFE00000
FFF00000
7FF80000
3FFC0000
1FFE0000
0FFF0000
07FF8000
03FFC000
01FFE000
00FFF000
007FF800
003FFC00
001FFE00
000FFF00
0007FF80
0003FFC0
0001FFC0
FE00FFC0
FF007FC0
FFFFFFC0
FFFFFFC0
FFFFFFC0
7FFFFFC0
7FFFFFC0
3FFFFFC0
1FFFFFC0
0FFFFFC0
0FFFFF80
ENDCHAR
STARTCHAR 0161
ENCODING 353
SWIDTH 540 0
DWIDTH 30 0
BBX 26 48 2 0
BITMAP
07007000
0780F000
07C1F000
07E3E000
03FFC000
00FF8000
007F0000
00000000
00000000
7FFFFC00
7FFFFC00
FFFFFE00
FFFFFF00
FFFFFF80
FFFFFF80
FFFFFFC0
FFFFFFC0
FFFFFFC0
FF803FC0
FFC01FC0
FFE00000
FFF00000
7FF80000
3FFC0000
1FFE0000
0FFF0000
07FF8000
03FFC000
01FFE000
00FFF000
007FF800
003FFC00
001FFE00
000FFF00
0007FF80
0003FFC0
0001FFC0
FE00FFC0
FF007FC0
FFFFFFC0
FFFFFFC0
FFFFFFC0
7FFFFFC0
7FFFFFC0
3FFFFFC0
1FFFFFC0
0FFFFFC0
0FFFFF80
ENDCHAR
STARTCHAR 0162
ENCODING 354
SWIDTH 522 0
DWIDTH 29 0
BBX 30 47 0 -8
BITMAP
0FFFFF80
1FFFFFC0
1FFFFFE0
3FFFFFE0
7FFFFFF0
7FFFFFF8
FFFFFFFC
FFFFEFFC
FFBFE7FC
FE3FE3FC
FC3FE0FC
003FE000
003FE000
003FE000
003FE000
003FE000
003FE000
003FE000
003FE000
003FE000
003FE000
003FE000
003FE000
003FE000
003FE000
003FE000
003FE000
003FE000
003FE000
003FE000
003FE000
003FE000
003FE000
003FE000
003FE000
003FE000
003FE000
003FE000
003FE000
0000E000
0001C000
0007C000
0007C000
0001C000
001FC000
001F8000
003F8000
ENDCHAR
STARTCHAR 0163
ENCODING 355
SWIDTH 522 0
DWIDTH 29 0
BBX 30 47 0 -8
BITMAP
0FFFFF80
1FFFFFC0
1FFFFFE0
3FFFFFE0
7FFFFFF0
7FFFFFF8
FFFFFFFC
FFFFEFFC
FFBFE7FC
FE3FE3FC
FC3FE0FC
003FE000
003FE000
003FE000
003FE000
003FE000
003FE000
003FE000
003FE000
003FE000
003FE000
003FE000
003FE000
003FE000
003FE000
003FE000
003FE000
003FE000
003FE000
003FE000
003FE000
003FE000
003FE000
003FE000
003FE000
003FE000
003FE000
003FE000
003FE000
0000E000
0001C000
0007C000
0007C000
0001C000
001FC000
001F8000
003F8000
ENDCHAR
STARTCHAR 0164
ENCODING 356
SWIDTH 522 0
DWIDTH 29 0
BBX 30 48 0 0
BITMAP
01C01C00
01E03C00
01F07C00
00FFFC00
007FF800
003FF000
001FE000
00000000
00000000
0FFFFF80
1FFFFFC0
1FFFFFE0
3FFFFFE0
7FFFFFF0
7FFFFFF8
FFFFFFFC
FFFFEFFC
FFBFE7FC
FE3FE3FC
FC3FE0FC
003FE000
003FE000
003FE000
003FE000
003FE000
003FE000
003FE000
003FE000
003FE000
003FE000
003FE000
003FE000
003FE000
003FE000
003FE000
003FE000
003FE000
003FE000
003FE000
003FE000
003FE000
003FE000
003FE000
003FE000
003FE000
003FE000
003FE000
003FE000
ENDCHAR
STARTCHAR 0165
ENCODING 357
SWIDTH 522 0
DWIDTH 29 0
BBX 30 48 0 0
BITMAP
01C01C00
01E03C00
01F07C00
00FFFC00
007FF800
003FF000
001FE000
00000000
00000000
0FFFFF80
1FFFFFC0
1FFFFFE0
3FFFFFE0
7FFFFFF0
7FFFFFF8
FFFFFFFC
FFFFEFFC
FFBFE7FC
FE3FE3FC
FC3FE0FC
003FE000
003FE000
003FE000
003FE000
003FE000
003FE000
003FE000
003FE000
003FE000
003FE000
003FE000
003FE000
003FE000
003FE000
003FE000
003FE000
003FE000
003FE000
003FE000
003FE000
003FE000
003FE000
003FE000
003FE000
003FE000
003FE000
003FE000
003FE000
ENDCHAR
STARTCHAR 0166
ENCODING 358
SWIDTH 522 0
DWIDTH 29 0
BBX 30 39 0 0
BITMAP
0FFFFF80
1FFFFFC0
1FFFFFE0
3FFFFFE0
7FFFFFF0
7FFFFFF8
FFFFFFFC
FFFFEFFC
FFBFE7FC
FE3FE3FC
FC3FE0FC
003FE000
003FE000
003FE000
003FE000
003FE000
003FE000
0FFFFFC0
0FFFFFC0
0FFFFFC0
0FFFFFC0
0FFFFFC0
0FFFFFC0
003FE000
003FE000
003FE000
003FE000
003FE000
003FE000
003FE000
003FE000
003FE000
003FE000
003FE000
003FE000
003FE000
003FE000
003FE000
003FE000
ENDCHAR
STARTCHAR 0167
ENCODING 359
SWIDTH 522 0
DWIDTH 29 0
BBX 30 39 0 0
BITMAP
0FFFFF80
1FFFFFC0
1FFFFFE0
3FFFFFE0
7FFFFFF0
7FFFFFF8
FFFFFFFC
FFFFEFFC
FFBFE7FC
FE3FE3FC
FC3FE0FC
003FE000
003FE000
003FE000
003FE000
003FE000
003FE000
0FFFFFC0
0FFFFFC0
0FFFFFC0
0FFFFFC0
0FFFFFC0
0FFFFFC0
003FE000
003FE000
003FE000
003FE000
003FE000
003FE000
003FE000
003FE000
003FE000
003FE000
003FE000
003FE000
003FE000
003FE000
003FE000
003FE000
ENDCHAR
STARTCHAR 0168
ENCODING 360
SWIDTH 612 0
DWIDTH 34 0
BBX 30 49 2 0
BITMAP
00100000
007E0000
01FFC0E0
07FFFBE0
0FFFFFE0
0FC3FFE0
0F007F80
0E000E00
00000000
00000000
FF8007FC
FF8007FC
FF8007FC
FF8007FC
FF8007FC
FF8007FC
FF8007FC
FF8007FC
FF8007FC
FF8007FC
FF8007FC
FF8007FC
FF8007FC
FF8007FC
FF8007FC
FF8007FC
FF8007FC
FF8007FC
FF8007FC
FF8007FC
FF8007FC
FF8007FC
FF8007FC
FF8007FC
FF8007FC
FF8007FC
FF8007FC
FF8007FC
FF8007FC
FFC00FFC
FFFFFFFC
FFFFFFFC
FFFFFFFC
7FFFFFF8
7FFFFFF8
3FFFFFF0
1FFFFFE0
0FFFFFC0
0FFFFFC0
ENDCHAR
STARTCHAR 0169
ENCODING 361
SWIDTH 612 0
DWIDTH 34 0
BBX 30 49 2 0
BITMAP
00100000
007E0000
01FFC0E0
07FFFBE0
0FFFFFE0
0FC3FFE0
0F007F80
0E000E00
00000000
00000000
FF8007FC
FF8007FC
FF8007FC
FF8007FC
FF8007FC
FF8007FC
FF8007FC
FF8007FC
FF8007FC
FF8007FC
FF8007FC
FF8007FC
FF8007FC
FF8007FC
FF8007FC
FF8007FC
FF8007FC
FF8007FC
FF8007FC
FF8007FC
FF8007FC
FF8007FC
FF8007FC
FF8007FC
FF8007FC
FF8007FC
FF8007FC
FF8007FC
FF8007FC
FFC00FFC
FFFFFFFC
FFFFFFFC
FFFFFFFC
7FFFFFF8
7FFFFFF8
3FFFFFF0
1FFFFFE0
0FFFFFC0
0FFFFFC0
ENDCHAR
STARTCHAR 016A
ENCODING 362
SWIDTH 612 0
DWIDTH 34 0
BBX 30 47 2 0
BITMAP
0FFFFFC0
0FFFFFC0
0FFFFFC0
0FFFFFC0
0FFFFFC0
0FFFFFC0
00000000
00000000
FF8007FC
FF8007FC
FF8007FC
FF8007FC
FF8007FC
FF8007FC
FF8007FC
FF8007FC
FF8007FC
FF8007FC
FF8007FC
FF8007FC
FF8007FC
FF8007FC
FF8007FC
FF8007FC
FF8007FC
FF8007FC
FF8007FC
FF8007FC
FF8007FC
FF8007FC
FF8007FC
FF8007FC
FF8007FC
FF8007FC
FF8007FC
FF8007FC
FF8007FC
FFC00FFC
FFFFFFFC
FFFFFFFC
FFFFFFFC
7FFFFFF8
7FFFFFF8
3FFFFFF0
1FFFFFE0
0FFFFFC0
0FFFFFC0
ENDCHAR
STARTCHAR 016B
ENCODING 363
SWIDTH 612 0
DWIDTH 34 0
BBX 30 47 2 0
BITMAP
0FFFFFC0
0FFFFFC0
0FFFFFC0
0FFFFFC0
0FFFFFC0
0FFFFFC0
00000000
00000000
FF8007FC
FF8007FC
FF8007FC
FF8007FC
FF8007FC
FF8007FC
FF8007FC
FF8007FC
FF8007FC
FF8007FC
FF8007FC
FF8007FC
FF8007FC
FF8007FC
FF8007FC
FF8007FC
FF8007FC
FF8007FC
FF8007FC
FF8007FC
FF8007FC
FF8007FC
FF8007FC
FF8007FC
FF8007FC
FF8007FC
FF8007FC
FF8007FC
FF8007FC
FFC00FFC
FFFFFFFC
FFFFFFFC
FFFFFFFC
7FFFFFF8
7FFFFFF8
3FFFFFF0
1FFFFFE0
0FFFFFC0
0FFFFFC0
ENDCHAR
STARTCHAR 016E
ENCODING 366
SWIDTH 612 0
DWIDTH 34 0
BBX 30 49 2 0
BITMAP
000FC000
001FE000
001CE000
001C6000
001C6000
001FE000
001FE000
000FC000
00000000
00000000
FF8007FC
FF8007FC
FF8007FC
FF8007FC
FF8007FC
FF8007FC
FF8007FC
FF8007FC
FF8007FC
FF8007FC
FF8007FC
FF8007FC
FF8007FC
FF8007FC
FF8007FC
FF8007FC
FF8007FC
FF8007FC
FF8007FC
FF8007FC
FF8007FC
FF8007FC
FF8007FC
FF8007FC
FF8007FC
FF8007FC
FF8007FC
FF8007FC
FF8007FC
FFC00FFC
FFFFFFFC
FFFFFFFC
FFFFFFFC
7FFFFFF8
7FFFFFF8
3FFFFFF0
1FFFFFE0
0FFFFFC0
0FFFFFC0
ENDCHAR
STARTCHAR 016F
ENCODING 367
SWIDTH 612 0
DWIDTH 34 0
BBX 30 49 2 0
BITMAP
000FC000
001FE000
001CE000
001C6000
001C6000
001FE000
001FE000
000FC000
00000000
00000000
FF8007FC
FF8007FC
FF8007FC
FF8007FC
FF8007FC
FF8007FC
FF8007FC
FF8007FC
FF8007FC
FF8007FC
FF8007FC
FF8007FC
FF8007FC
FF8007FC
FF8007FC
FF8007FC
FF8007FC
FF8007FC
FF8007FC
FF8007FC
FF8007FC
FF8007FC
FF8007FC
FF8007FC
FF8007FC
FF8007FC
FF8007FC
FF8007FC
FF8007FC
FFC00FFC
FFFFFFFC
FFFFFFFC
FFFFFFFC
7FFFFFF8
7FFFFFF8
3FFFFFF0
1FFFFFE0
0FFFFFC0
0FFFFFC0
ENDCHAR
STARTCHAR 0170
ENCODING 368
SWIDTH 612 0
DWIDTH 34 0
BBX 30 50 2 0
BITMAP
00079C00
00079C00
00079C00
00073C00
000F3C00
000E7800
001E7800
001CF000
003CF000
00000000
00000000
FF8007FC
FF8007FC
FF8007FC
FF8007FC
FF8007FC
FF8007FC
FF8007FC
FF8007FC
FF8007FC
FF8007FC
FF8007FC
FF8007FC
FF8007FC
FF8007FC
FF8007FC
FF8007FC
FF8007FC
FF8007FC
FF8007FC
FF8007FC
FF8007FC
FF8007FC
FF8007FC
FF8007FC
FF8007FC
FF8007FC
FF8007FC
FF8007FC
FF8007FC
FFC00FFC
FFFFFFFC
FFFFFFFC
FFFFFFFC
7FFFFFF8
7FFFFFF8
3FFFFFF0
1FFFFFE0
0FFFFFC0
0FFFFFC0
ENDCHAR
STARTCHAR 0171
ENCODING 369
SWIDTH 612 0
DWIDTH 34 0
BBX 30 50 2 0
BITMAP
00079C00
00079C00
00079C00
00073C00
000F3C00
000E7800
001E7800
001CF000
003CF000
00000000
00000000
FF8007FC
FF8007FC
FF8007FC
FF8007FC
FF8007FC
FF8007FC
FF8007FC
FF8007FC
FF8007FC
FF8007FC
FF8007FC
FF8007FC
FF8007FC
FF8007FC
FF8007FC
FF8007FC
FF8007FC
FF8007FC
FF8007FC
FF8007FC
FF8007FC
FF8007FC
FF8007FC
FF8007FC
FF8007FC
FF8007FC
FF8007FC
FF8007FC
FF8007FC
FFC00FFC
FFFFFFFC
FFFFFFFC
FFFFFFFC
7FFFFFF8
7FFFFFF8
3FFFFFF0
1FFFFFE0
0FFFFFC0
0FFFFFC0
ENDCHAR
STARTCHAR 0172
ENCODING 370
SWIDTH 612 0
DWIDTH 34 0
BBX 30 48 2 -9
BITMAP
FF8007FC
FF8007FC
FF8007FC
FF8007FC
FF8007FC
FF8007FC
FF8007FC
FF8007FC
FF8007FC
FF8007FC
FF8007FC
FF8007FC
FF8007FC
FF8007FC
FF8007FC
FF8007FC
FF8007FC
FF8007FC
FF8007FC
FF8007FC
FF8007FC
FF8007FC
FF8007FC
FF8007FC
FF8007FC
FF8007FC
FF8007FC
FF8007FC
FF8007FC
FFC00FFC
FFFFFFFC
FFFFFFFC
FFFFFFFC
7FFFFFF8
7FFFFFF8
3FFFFFF0
1FFFFFE0
0FFFFFC0
0FFFFFC0
00070000
000F0000
001E0000
001E0000
003C7000
003FF000
003FF000
003FE000
001FE000
ENDCHAR
STARTCHAR 0173
ENCODING 371
SWIDTH 612 0
DWIDTH 34 0
BBX 30 48 2 -9
BITMAP
FF8007FC
FF8007FC
FF8007FC
FF8007FC
FF8007FC
FF8007FC
FF8007FC
FF8007FC
FF8007FC
FF8007FC
FF8007FC
FF8007FC
FF8007FC
FF8007FC
FF8007FC
FF8007FC
FF8007FC
FF8007FC
FF8007FC
FF8007FC
FF8007FC
FF8007FC
FF8007FC
FF8007FC
FF8007FC
FF8007FC
FF8007FC
FF8007FC
FF8007FC
FFC00FFC
FFFFFFFC
FFFFFFFC
FFFFFFFC
7FFFFFF8
7FFFFFF8
3FFFFFF0
1FFFFFE0
0FFFFFC0
0FFFFFC0
00070000
000F0000
001E0000
001E0000
003C7000
003FF000
003FF000
003FE000
001FE000
ENDCHAR
STARTCHAR 0174
ENCODING 372
SWIDTH 882 0
DWIDTH 49 0
BBX 45 48 2 0
BITMAP
0001FFFC0000
0003FFFE0000
0007FFFF0000
000FFFFF8000
001FC01FC000
001F800FC000
001F0007C000
000000000000
000000000000
FF8000000FF8
FF8000000FF8
FF8000000FF8
FF8000000FF8
FFC000001FF8
FFC000001FF8
7FC000001FF0
7FC000001FF0
7FC000001FF0
7FE000001FF0
3FE000003FF0
3FE01FC03FE0
3FE03FE03FE0
3FE03FF03FE0
3FF03FF03FE0
1FF07FF03FE0
1FF07FF07FC0
1FF07FF87FC0
1FF07FF87FC0
1FF0FFF87FC0
0FF8FDF87FC0
0FF8FDFCFF80
0FF9FCFCFF80
0FF9FCFCFF80
0FF9F8FCFF80
07FFF8FFFF80
07FFF8FFFF00
07FFF87FFF00
07FFF87FFF00
03FFF07FFF00
03FFF07FFF00
03FFF07FFE00
03FFF03FFE00
03FFF03FFE00
01FFE03FFE00
01FFE03FFE00
01FFE03FFC00
01FFE01FFC00
01FFE01FFC00
ENDCHAR
STARTCHAR 0175
ENCODING 373
SWIDTH 882 0
DWIDTH 49 0
BBX 45 48 2 0
BITMAP
0001FFFC0000
0003FFFE0000
0007FFFF0000
000FFFFF8000
001FC01FC000
001F800FC000
001F0007C000
000000000000
000000000000
FF8000000FF8
FF8000000FF8
FF8000000FF8
FF8000000FF8
FFC000001FF8
FFC000001FF8
7FC000001FF0
7FC000001FF0
7FC000001FF0
7FE000001FF0
3FE000003FF0
3FE01FC03FE0
3FE03FE03FE0
3FE03FF03FE0
3FF03FF03FE0
1FF07FF03FE0
1FF07FF07FC0
1FF07FF87FC0
1FF07FF87FC0
1FF0FFF87FC0
0FF8FDF87FC0
0FF8FDFCFF80
0FF9FCFCFF80
0FF9FCFCFF80
0FF9F8FCFF80
07FFF8FFFF80
07FFF8FFFF00
07FFF87FFF00
07FFF87FFF00
03FFF07FFF00
03FFF07FFF00
03FFF07FFE00
03FFF03FFE00
03FFF03FFE00
01FFE03FFE00
01FFE03FFE00
01FFE03FFC00
01FFE01FFC00
01FFE01FFC00
ENDCHAR
STARTCHAR 0176
ENCODING 374
SWIDTH 468 0
DWIDTH 26 0
BBX 26 48 0 0
BITMAP
03FFF800
07FFFC00
0FFFFE00
1FFFFF00
3F803F80
3F001F80
3C000F80
00000000
00000000
FF003FC0
FF803FC0
FF807FC0
FF807FC0
FFC07FC0
7FC0FF80
7FC0FF80
3FE0FF80
3FE1FF00
1FE1FF00
1FF1FE00
1FF3FE00
0FF3FC00
0FFBFC00
07FFF800
07FFF800
03FFF800
03FFF000
01FFF000
01FFE000
01FFE000
00FFC000
00FFC000
007FC000
007F8000
007F8000
007F8000
007F8000
007F8000
007F8000
007F8000
007F8000
007F8000
007F8000
007F8000
007F8000
007F8000
007F8000
007F8000
ENDCHAR
STARTCHAR 0177
ENCODING 375
SWIDTH 468 0
DWIDTH 26 0
BBX 26 48 0 0
BITMAP
03FFF800
07FFFC00
0FFFFE00
1FFFFF00
3F803F80
3F001F80
3C000F80
00000000
00000000
FF003FC0
FF803FC0
FF807FC0
FF807FC0
FFC07FC0
7FC0FF80
7FC0FF80
3FE0FF80
3FE1FF00
1FE1FF00
1FF1FE00
1FF3FE00
0FF3FC00
0FFBFC00
07FFF800
07FFF800
03FFF800
03FFF000
01FFF000
01FFE000
01FFE000
00FFC000
00FFC000
007FC000
007F8000
007F8000
007F8000
007F8000
007F8000
007F8000
007F8000
007F8000
007F8000
007F8000
007F8000
007F8000
007F8000
007F8000
007F8000
ENDCHAR
STARTCHAR 0178
ENCODING 376
SWIDTH 468 0
DWIDTH 26 0
BBX 26 46 0 0
BITMAP
03E1F000
03E1F000
03E1F000
03E1F000
03E1F000
00000000
00000000
FF003FC0
FF803FC0
FF807FC0
FF807FC0
FFC07FC0
7FC0FF80
7FC0FF80
3FE0FF80
3FE1FF00
1FE1FF00
1FF1FE00
1FF3FE00
0FF3FC00
0FFBFC00
07FFF800
07FFF800
03FFF800
03FFF000
01FFF000
01FFE000
01FFE000
00FFC000
00FFC000
007FC000
007F8000
007F8000
007F8000
007F8000
007F8000
007F8000
007F8000
007F8000
007F8000
007F8000
007F8000
007F8000
007F8000
007F8000
007F8000
ENDCHAR
STARTCHAR 017B
ENCODING 379
SWIDTH 558 0
DWIDTH 31 0
BBX 27 48 2 0
BITMAP
000F0000
001F8000
003F8000
003F8000
003F8000
003F8000
001F0000
00000000
00000000
FFFFFE00
FFFFFF00
FFFFFF80
FFFFFF80
FFFFFFC0
FFFFFFE0
FFFFFFE0
7FFFFFE0
7FFFFFC0
0003FF80
0003FF80
0007FF00
0007FF00
000FFE00
001FFC00
001FFC00
003FF800
003FF800
007FF000
00FFE000
00FFE000
01FFC000
01FF8000
03FF8000
07FF0000
07FF0000
0FFE0000
1FFC0000
1FFC0000
3FF80000
3FFFFFC0
7FFFFFE0
FFFFFFE0
7FFFFFE0
7FFFFFE0
3FFFFFE0
1FFFFFE0
0FFFFFE0
0FFFFFE0
ENDCHAR
STARTCHAR 017C
ENCODING 380
SWIDTH 558 0
DWIDTH 31 0
BBX 27 50 2 0
BITMAP
001F0000
003F8000
003F8000
003F8000
003F8000
001F8000
000F0000
00000000
00000000
00000000
00000000
FFFFFE00
FFFFFF00
FFFFFF80
FFFFFF80
FFFFFFC0
FFFFFFE0
FFFFFFE0
7FFFFFE0
7FFFFFC0
0003FF80
0003FF80
0007FF00
0007FF00
000FFE00
001FFC00
001FFC00
003FF800
003FF800
007FF000
00FFE000
00FFE000
01FFC000
01FF8000
03FF8000
07FF0000
07FF0000
0FFE0000
1FFC0000
1FFC0000
3FF80000
3FFFFFC0
7FFFFFE0
FFFFFFE0
7FFFFFE0
7FFFFFE0
3FFFFFE0
1FFFFFE0
0FFFFFE0
0FFFFFE0
ENDCHAR
STARTCHAR 017D
ENCODING 381
SWIDTH 558 0
DWIDTH 31 0
BBX 27 48 2 0
BITMAP
03803800
03C07800
03E0F800
01F1F800
00FFF000
007FE000
003FC000
00000000
00000000
FFFFFE00
FFFFFF00
FFFFFF80
FFFFFF80
FFFFFFC0
FFFFFFE0
FFFFFFE0
7FFFFFE0
7FFFFFC0
0003FF80
0003FF80
0007FF00
0007FF00
000FFE00
001FFC00
001FFC00
003FF800
003FF800
007FF000
00FFE000
00FFE000
01FFC000
01FF8000
03FF8000
07FF0000
07FF0000
0FFE0000
1FFC0000
1FFC0000
3FF80000
3FFFFFC0
7FFFFFE0
FFFFFFE0
7FFFFFE0
7FFFFFE0
3FFFFFE0
1FFFFFE0
0FFFFFE0
0FFFFFE0
ENDCHAR
STARTCHAR 017E
ENCODING 382
SWIDTH 558 0
DWIDTH 31 0
BBX 27 48 2 0
BITMAP
03801800
03C07800
03E0F800
01F1F800
00FFF000
007FE000
003FC000
00000000
00000000
FFFFFE00
FFFFFF00
FFFFFF80
FFFFFF80
FFFFFFC0
FFFFFFE0
FFFFFFE0
7FFFFFE0
7FFFFFC0
0003FF80
0003FF80
0007FF00
0007FF00
000FFE00
001FFC00
001FFC00
003FF800
003FF800
007FF000
00FFE000
00FFE000
01FFC000
01FF8000
03FF8000
07FF0000
07FF0000
0FFE0000
1FFC0000
1FFC0000
3FF80000
3FFFFFC0
7FFFFFE0
FFFFFFE0
7FFFFFE0
7FFFFFE0
3FFFFFE0
1FFFFFE0
0FFFFFE0
0FFFFFE0
ENDCHAR
STARTCHAR 01A0
ENCODING 416
SWIDTH 612 0
DWIDTH 34 0
BBX 33 43 2 0
BITMAP
0000000E00
0000000F00
0000000F80
0000001F80
0FFFFFFF80
0FFFFFFF00
1FFFFFFE00
3FFFFFFC00
3FFFFFF800
7FFFFFFC00
FFFFFFFC00
FFFFFFFC00
FFFFFFFC00
FFC007FC00
FF8007FC00
FF8003FC00
FF8003FC00
FF8003FC00
FF8003FC00
FF8003FC00
FF8003FC00
FF8003FC00
FF8003FC00
FF8003FC00
FF8003FC00
FF8003FC00
FF8003FC00
FF8003FC00
FF8003FC00
FF8003FC00
FF8003FC00
FF8003FC00
FF8003FC00
FFC007FC00
FFFFFFFC00
FFFFFFFC00
FFFFFFFC00
7FFFFFFC00
7FFFFFF800
3FFFFFF000
1FFFFFF000
0FFFFFE000
0FFFFFC000
ENDCHAR
STARTCHAR 01A1
ENCODING 417
SWIDTH 612 0
DWIDTH 34 0
BBX 33 43 2 0
BITMAP
0000000E00
0000000F00
0000000F80
0000001F80
0FFFFFFF80
0FFFFFFF00
1FFFFFFE00
3FFFFFFC00
3FFFFFF800
7FFFFFFC00
FFFFFFFC00
FFFFFFFC00
FFFFFFFC00
FFC007FC00
FF8007FC00
FF8003FC00
FF8003FC00
FF8003FC00
FF8003FC00
FF8003FC00
FF8003FC00
FF8003FC00
FF8003FC00
FF8003FC00
FF8003FC00
FF8003FC00
FF8003FC00
FF8003FC00
FF8003FC00
FF8003FC00
FF8003FC00
FF8003FC00
FF8003FC00
FFC007FC00
FFFFFFFC00
FFFFFFFC00
FFFFFFFC00
7FFFFFFC00
7FFFFFF800
3FFFFFF000
1FFFFFF000
0FFFFFE000
0FFFFFC000
ENDCHAR
STARTCHAR 01AF
ENCODING 431
SWIDTH 612 0
DWIDTH 34 0
BBX 32 43 2 0
BITMAP
0000001E
0000001F
0000001F
0000001F
FF8007FF
FF8007FF
FF8007FE
FF8007FC
FF8007F8
FF8007F8
FF8007FC
FF8007FC
FF8007FC
FF8007FC
FF8007FC
FF8007FC
FF8007FC
FF8007FC
FF8007FC
FF8007FC
FF8007FC
FF8007FC
FF8007FC
FF8007FC
FF8007FC
FF8007FC
FF8007FC
FF8007FC
FF8007FC
FF8007FC
FF8007FC
FF8007FC
FF8007FC
FFC00FFC
FFFFFFFC
FFFFFFFC
FFFFFFFC
7FFFFFF8
7FFFFFF8
3FFFFFF0
1FFFFFE0
0FFFFFC0
0FFFFFC0
ENDCHAR
STARTCHAR 01B0
ENCODING 432
SWIDTH 612 0
DWIDTH 34 0
BBX 32 43 2 0
BITMAP
0000001E
0000001F
0000001F
0000001F
FF8007FF
FF8007FF
FF8007FE
FF8007FC
FF8007F8
FF8007F8
FF8007FC
FF8007FC
FF8007FC
FF8007FC
FF8007FC
FF8007FC
FF8007FC
FF8007FC
FF8007FC
FF8007FC
FF8007FC
FF8007FC
FF8007FC
FF8007FC
FF8007FC
FF8007FC
FF8007FC
FF8007FC
FF8007FC
FF8007FC
FF8007FC
FF8007FC
FF8007FC
FFC00FFC
FFFFFFFC
FFFFFFFC
FFFFFFFC
7FFFFFF8
7FFFFFF8
3FFFFFF0
1FFFFFE0
0FFFFFC0
0FFFFFC0
ENDCHAR
STARTCHAR 0218
ENCODING 536
SWIDTH 540 0
DWIDTH 30 0
BBX 26 48 2 -9
BITMAP
7FFFFC00
7FFFFC00
FFFFFE00
FFFFFF00
FFFFFF80
FFFFFF80
FFFFFFC0
FFFFFFC0
FFFFFFC0
FF803FC0
FFC01FC0
FFE00000
FFF00000
7FF80000
3FFC0000
1FFE0000
0FFF0000
07FF8000
03FFC000
01FFE000
00FFF000
007FF800
003FFC00
001FFE00
000FFF00
0007FF80
0003FFC0
0001FFC0
FE00FFC0
FF007FC0
FFFFFFC0
FFFFFFC0
FFFFFFC0
7FFFFFC0
7FFFFFC0
3FFFFFC0
1FFFFFC0
0FFFFFC0
0FFFFF80
00000000
000E0000
000F0000
000F0000
000F0000
000F0000
000E0000
001E0000
003C0000
ENDCHAR
STARTCHAR 0219
ENCODING 537
SWIDTH 540 0
DWIDTH 30 0
BBX 26 48 2 -9
BITMAP
7FFFFC00
7FFFFC00
FFFFFE00
FFFFFF00
FFFFFF80
FFFFFF80
FFFFFFC0
FFFFFFC0
FFFFFFC0
FF803FC0
FFC01FC0
FFE00000
FFF00000
7FF80000
3FFC0000
1FFE0000
0FFF0000
07FF8000
03FFC000
01FFE000
00FFF000
007FF800
003FFC00
001FFE00
000FFF00
0007FF80
0003FFC0
0001FFC0
FE00FFC0
FF007FC0
FFFFFFC0
FFFFFFC0
FFFFFFC0
7FFFFFC0
7FFFFFC0
3FFFFFC0
1FFFFFC0
0FFFFFC0
0FFFFF80
00000000
000E0000
000F0000
000F0000
000F0000
000F0000
000E0000
001E0000
003C0000
ENDCHAR
STARTCHAR 021A
ENCODING 538
SWIDTH 522 0
DWIDTH 29 0
BBX 30 48 0 -9
BITMAP
0FFFFF80
1FFFFFC0
1FFFFFE0
3FFFFFE0
7FFFFFF0
7FFFFFF8
FFFFFFFC
FFFFEFFC
FFBFE7FC
FE3FE3FC
FC3FE0FC
003FE000
003FE000
003FE000
003FE000
003FE000
003FE000
003FE000
003FE000
003FE000
003FE000
003FE000
003FE000
003FE000
003FE000
003FE000
003FE000
003FE000
003FE000
003FE000
003FE000
003FE000
003FE000
003FE000
003FE000
003FE000
003FE000
003FE000
003FE000
00000000
00070000
00078000
00078000
00078000
00078000
000F0000
000E0000
001E0000
ENDCHAR
STARTCHAR 021B
ENCODING 539
SWIDTH 522 0
DWIDTH 29 0
BBX 30 48 0 -9
BITMAP
0FFFFF80
1FFFFFC0
1FFFFFE0
3FFFFFE0
7FFFFFF0
7FFFFFF8
FFFFFFFC
FFFFEFFC
FFBFE7FC
FE3FE3FC
FC3FE0FC
003FE000
003FE000
003FE000
003FE000
003FE000
003FE000
003FE000
003FE000
003FE000
003FE000
003FE000
003FE000
003FE000
003FE000
003FE000
003FE000
003FE000
003FE000
003FE000
003FE000
003FE000
003FE000
003FE000
003FE000
003FE000
003FE000
003FE000
003FE000
00000000
00070000
00078000
00078000
00078000
00078000
000F0000
000E0000
001E0000
ENDCHAR
STARTCHAR 0259
ENCODING 601
SWIDTH 540 0
DWIDTH 30 0
BBX 27 39 2 0
BITMAP
0FFFFFE0
0FFFFFE0
1FFFFFE0
3FFFFFE0
3FFFFFE0
7FFFFFE0
FFFFFFE0
FFFFFFE0
FFFFFFE0
FF003FE0
FF003FE0
00003FE0
00003FE0
00003FE0
00003FE0
00003FE0
00003FE0
FFFC3FE0
FFFC3FE0
FFFC3FE0
FFFC3FE0
FFFC3FE0
FFFC3FE0
FFFC3FE0
FFFC3FE0
FF803FE0
FF803FE0
FF803FE0
FF803FE0
FF803FE0
FFFFFFE0
FFFFFFE0
FFFFFFE0
FFFFFFE0
FFFFFFE0
FFFFFFE0
FFFFFFE0
FFFFFFE0
F9FFFFE0
ENDCHAR
STARTCHAR 02C6
ENCODING 710
SWIDTH 432 0
DWIDTH 24 0
BBX 23 7 1 41
BITMAP
0FFFE0
1FFFF0
3FFFF8
7FFFFC
FE00FE
FC007E
F8003E
ENDCHAR
STARTCHAR 02C7
ENCODING 711
SWIDTH 306 0
DWIDTH 17 0
BBX 15 7 1 41
BITMAP
E00E
F01E
F83E
FC7E
3FF8
1FF0
0FE0
ENDCHAR
STARTCHAR 02D8
ENCODING 728
SWIDTH 432 0
DWIDTH 24 0
BBX 23 7 1 41
BITMAP
F8003E
FC007E
FE00FE
7FFFFC
3FFFF8
1FFFF0
0FFFE0
ENDCHAR
STARTCHAR 02D9
ENCODING 729
SWIDTH 162 0
DWIDTH 9 0
BBX 7 7 1 43
BITMAP
7C
FE
FE
FE
FE
7E
3C
ENDCHAR
STARTCHAR 02DA
ENCODING 730
SWIDTH 180 0
DWIDTH 10 0
BBX 8 8 1 41
BITMAP
7E
FF
E7
E3
E3
FF
FF
7E
ENDCHAR
STARTCHAR 02DB
ENCODING 731
SWIDTH 216 0
DWIDTH 12 0
BBX 10 9 1 -9
BITMAP
1C00
3C00
7800
7800
F1C0
FFC0
FFC0
FF80
7F80
ENDCHAR
STARTCHAR 02DC
ENCODING 732
SWIDTH 432 0
DWIDTH 24 0
BBX 23 8 1 41
BITMAP
010000
07E000
1FFC0E
7FFFBE
FFFFFE
FC3FFE
F007F8
E000E0
ENDCHAR
STARTCHAR 02DD
ENCODING 733
SWIDTH 252 0
DWIDTH 14 0
BBX 12 9 1 41
BITMAP
1CF0
1CF0
1CF0
3CF0
3CE0
79E0
79C0
F3C0
F380
ENDCHAR
STARTCHAR 1E20
ENCODING 7712
SWIDTH 540 0
DWIDTH 30 0
BBX 27 47 2 0
BITMAP
FFFFFE00
FFFFFE00
FFFFFE00
FFFFFE00
FFFFFE00
FFFFFE00
00000000
00000000
FFFFFC00
FFFFFE00
FFFFFF00
FFFFFF80
FFFFFF80
FFFFFFC0
FFFFFFE0
FFFFFFE0
FFFFFFE0
FF801FE0
FF801FE0
FF800000
FF800000
FF800000
FF800000
FF800000
FF800000
FF87FFE0
FF87FFE0
FF87FFE0
FF87FFE0
FF87FFE0
FF87FFE0
FF87FFE0
FF87FFE0
FF803FE0
FF803FE0
FF803FE0
FF803FE0
FF803FE0
FFFFFFE0
FFFFFFE0
FFFFFFE0
FFFFFFE0
FFFFFFE0
FFFFFFE0
FFFFFFE0
FFFFFFE0
FFFFF3E0
ENDCHAR
STARTCHAR 1E3E
ENCODING 7742
SWIDTH 684 0
DWIDTH 38 0
BBX 34 47 2 0
BITMAP
000003F000
001FFFF000
00FFFFF000
00FFFF0000
00FFE00000
00FC000000
0000000000
0000000000
0FFC07FC00
0FFC0FFE00
1FFC0FFF00
3FFC0FFF00
3FFE0FFF80
7FFE0FFFC0
FFFE0FFFC0
FFFE0FFFC0
FFFE1FFFC0
FFFE1FFFC0
FFFF1FFFC0
FFFF1FFFC0
FFFF1FFFC0
FFBF1F3FC0
FFBF3F3FC0
FF9F3F3FC0
FF9F3F3FC0
FF9FBF3FC0
FF9FBE3FC0
FF9FBE3FC0
FF9FBE3FC0
FF8FFE3FC0
FF8FFE3FC0
FF8FFE3FC0
FF8FFE3FC0
FF8FFC3FC0
FF8FFC3FC0
FF8FFC3FC0
FF87FC3FC0
FF83F83FC0
FF80003FC0
FF80003FC0
FF80003FC0
FF80003FC0
FF80003FC0
FF80003FC0
FF80003FC0
FF80003FC0
FF80003FC0
ENDCHAR
STARTCHAR 1E3F
ENCODING 7743
SWIDTH 684 0
DWIDTH 38 0
BBX 34 47 2 0
BITMAP
000003F000
001FFFF000
00FFFFF000
00FFFF0000
00FFE00000
00FC000000
0000000000
0000000000
0FFC07FC00
0FFC0FFE00
1FFC0FFF00
3FFC0FFF00
3FFE0FFF80
7FFE0FFFC0
FFFE0FFFC0
FFFE0FFFC0
FFFE1FFFC0
FFFE1FFFC0
FFFF1FFFC0
FFFF1FFFC0
FFFF1FFFC0
FFBF1F3FC0
FFBF3F3FC0
FF9F3F3FC0
FF9F3F3FC0
FF9FBF3FC0
FF9FBE3FC0
FF9FBE3FC0
FF9FBE3FC0
FF8FFE3FC0
FF8FFE3FC0
FF8FFE3FC0
FF8FFE3FC0
FF8FFC3FC0
FF8FFC3FC0
FF8FFC3FC0
FF87FC3FC0
FF83F83FC0
FF80003FC0
FF80003FC0
FF80003FC0
FF80003FC0
FF80003FC0
FF80003FC0
FF80003FC0
FF80003FC0
FF80003FC0
ENDCHAR
STARTCHAR 1E44
ENCODING 7748
SWIDTH 558 0
DWIDTH 31 0
BBX 28 48 2 0
BITMAP
000F0000
001F8000
001F8000
001F8000
001F8000
001F8000
001F0000
00000000
00000000
0F801FF0
0F801FF0
1FC01FF0
3FC01FF0
3FE01FF0
7FE01FF0
FFF01FF0
FFF01FF0
FFF81FF0
FFF81FF0
FFFC1FF0
FFFC1FF0
FFFC1FF0
FFFE1FF0
FFFE1FF0
FFFF1FF0
FFFF1FF0
FFFF9FF0
FFFF9FF0
FFFFDFF0
FF9FFFF0
FF9FFFF0
FF8FFFF0
FF8FFFF0
FF8FFFF0
FF87FFF0
FF87FFF0
FF83FFF0
FF83FFF0
FF81FFF0
FF81FFF0
FF80FFF0
FF80FFF0
FF80FFE0
FF807FC0
FF807FC0
FF803F80
FF803F00
FF801E00
ENDCHAR
STARTCHAR 1E45
ENCODING 7749
SWIDTH 558 0
DWIDTH 31 0
BBX 28 48 2 0
BITMAP
000F0000
001F8000
001F8000
001F8000
001F8000
001F8000
001F0000
00000000
00000000
0F801FF0
0F801FF0
1FC01FF0
3FC01FF0
3FE01FF0
7FE01FF0
FFF01FF0
FFF01FF0
FFF81FF0
FFF81FF0
FFFC1FF0
FFFC1FF0
FFFC1FF0
FFFE1FF0
FFFE1FF0
FFFF1FF0
FFFF1FF0
FFFF9FF0
FFFF9FF0
FFFFDFF0
FF9FFFF0
FF9FFFF0
FF8FFFF0
FF8FFFF0
FF8FFFF0
FF87FFF0
FF87FFF0
FF83FFF0
FF83FFF0
FF81FFF0
FF81FFF0
FF80FFF0
FF80FFF0
FF80FFE0
FF807FC0
FF807FC0
FF803F80
FF803F00
FF801E00
ENDCHAR
STARTCHAR 1E80
ENCODING 7808
SWIDTH 882 0
DWIDTH 49 0
BBX 45 47 2 0
BITMAP
000FC0000000
000FFE000000
000FFFE00000
000FFFFF0000
0001FFFF0000
0000003F0000
000000000000
000000000000
FF8000000FF8
FF8000000FF8
FF8000000FF8
FF8000000FF8
FFC000001FF8
FFC000001FF8
7FC000001FF0
7FC000001FF0
7FC000001FF0
7FE000001FF0
3FE000003FF0
3FE01FC03FE0
3FE03FE03FE0
3FE03FF03FE0
3FF03FF03FE0
1FF07FF03FE0
1FF07FF07FC0
1FF07FF87FC0
1FF07FF87FC0
1FF0FFF87FC0
0FF8FDF87FC0
0FF8FDFCFF80
0FF9FCFCFF80
0FF9FCFCFF80
0FF9F8FCFF80
07FFF8FFFF80
07FFF8FFFF00
07FFF87FFF00
07FFF87FFF00
03FFF07FFF00
03FFF07FFF00
03FFF07FFE00
03FFF03FFE00
03FFF03FFE00
01FFE03FFE00
01FFE03FFE00
01FFE03FFC00
01FFE01FFC00
01FFE01FFC00
ENDCHAR
STARTCHAR 1E81
ENCODING 7809
SWIDTH 882 0
DWIDTH 49 0
BBX 45 47 2 0
BITMAP
000FC0000000
000FFE000000
000FFFE00000
000FFFFF0000
0001FFFF0000
0000003F0000
000000000000
000000000000
FF8000000FF8
FF8000000FF8
FF8000000FF8
FF8000000FF8
FFC000001FF8
FFC000001FF8
7FC000001FF0
7FC000001FF0
7FC000001FF0
7FE000001FF0
3FE000003FF0
3FE01FC03FE0
3FE03FE03FE0
3FE03FF03FE0
3FF03FF03FE0
1FF07FF03FE0
1FF07FF07FC0
1FF07FF87FC0
1FF07FF87FC0
1FF0FFF87FC0
0FF8FDF87FC0
0FF8FDFCFF80
0FF9FCFCFF80
0FF9FCFCFF80
0FF9F8FCFF80
07FFF8FFFF80
07FFF8FFFF00
07FFF87FFF00
07FFF87FFF00
03FFF07FFF00
03FFF07FFF00
03FFF07FFE00
03FFF03FFE00
03FFF03FFE00
01FFE03FFE00
01FFE03FFE00
01FFE03FFC00
01FFE01FFC00
01FFE01FFC00
ENDCHAR
STARTCHAR 1E82
ENCODING 7810
SWIDTH 882 0
DWIDTH 49 0
BBX 45 47 2 0
BITMAP
0000001F0000
0001FFFF0000
000FFFFF0000
000FFFF00000
000FFE000000
000FC0000000
000000000000
000000000000
FF8000000FF8
FF8000000FF8
FF8000000FF8
FF8000000FF8
FFC000001FF8
FFC000001FF8
7FC000001FF0
7FC000001FF0
7FC000001FF0
7FE000001FF0
3FE000003FF0
3FE01FC03FE0
3FE03FE03FE0
3FE03FF03FE0
3FF03FF03FE0
1FF07FF03FE0
1FF07FF07FC0
1FF07FF87FC0
1FF07FF87FC0
1FF0FFF87FC0
0FF8FDF87FC0
0FF8FDFCFF80
0FF9FCFCFF80
0FF9FCFCFF80
0FF9F8FCFF80
07FFF8FFFF80
07FFF8FFFF00
07FFF87FFF00
07FFF87FFF00
03FFF07FFF00
03FFF07FFF00
03FFF07FFE00
03FFF03FFE00
03FFF03FFE00
01FFE03FFE00
01FFE03FFE00
01FFE03FFC00
01FFE01FFC00
01FFE01FFC00
ENDCHAR
STARTCHAR 1E83
ENCODING 7811
SWIDTH 882 0
DWIDTH 49 0
BBX 45 47 2 0
BITMAP
0000001F0000
0001FFFF0000
000FFFFF0000
000FFFF00000
000FFE000000
000FC0000000
000000000000
000000000000
FF8000000FF8
FF8000000FF8
FF8000000FF8
FF8000000FF8
FFC000001FF8
FFC000001FF8
7FC000001FF0
7FC000001FF0
7FC000001FF0
7FE000001FF0
3FE000003FF0
3FE01FC03FE0
3FE03FE03FE0
3FE03FF03FE0
3FF03FF03FE0
1FF07FF03FE0
1FF07FF07FC0
1FF07FF87FC0
1FF07FF87FC0
1FF0FFF87FC0
0FF8FDF87FC0
0FF8FDFCFF80
0FF9FCFCFF80
0FF9FCFCFF80
0FF9F8FCFF80
07FFF8FFFF80
07FFF8FFFF00
07FFF87FFF00
07FFF87FFF00
03FFF07FFF00
03FFF07FFF00
03FFF07FFE00
03FFF03FFE00
03FFF03FFE00
01FFE03FFE00
01FFE03FFE00
01FFE03FFC00
01FFE01FFC00
01FFE01FFC00
ENDCHAR
STARTCHAR 1E84
ENCODING 7812
SWIDTH 882 0
DWIDTH 49 0
BBX 45 46 2 0
BITMAP
0001F0FC0000
0001F0FC0000
0001F0FC0000
0001F0FC0000
0001F0FC0000
000000000000
000000000000
FF8000000FF8
FF8000000FF8
FF8000000FF8
FF8000000FF8
FFC000001FF8
FFC000001FF8
7FC000001FF0
7FC000001FF0
7FC000001FF0
7FE000001FF0
3FE000003FF0
3FE01FC03FE0
3FE03FE03FE0
3FE03FF03FE0
3FF03FF03FE0
1FF07FF03FE0
1FF07FF07FC0
1FF07FF87FC0
1FF07FF87FC0
1FF0FFF87FC0
0FF8FDF87FC0
0FF8FDFCFF80
0FF9FCFCFF80
0FF9FCFCFF80
0FF9F8FCFF80
07FFF8FFFF80
07FFF8FFFF00
07FFF87FFF00
07FFF87FFF00
03FFF07FFF00
03FFF07FFF00
03FFF07FFE00
03FFF03FFE00
03FFF03FFE00
01FFE03FFE00
01FFE03FFE00
01FFE03FFC00
01FFE01FFC00
01FFE01FFC00
ENDCHAR
STARTCHAR 1E85
ENCODING 7813
SWIDTH 882 0
DWIDTH 49 0
BBX 45 46 2 0
BITMAP
0001F0FC0000
0001F0FC0000
0001F0FC0000
0001F0FC0000
0001F0FC0000
000000000000
000000000000
FF8000000FF8
FF8000000FF8
FF8000000FF8
FF8000000FF8
FFC000001FF8
FFC000001FF8
7FC000001FF0
7FC000001FF0
7FC000001FF0
7FE000001FF0
3FE000003FF0
3FE01FC03FE0
3FE03FE03FE0
3FE03FF03FE0
3FF03FF03FE0
1FF07FF03FE0
1FF07FF07FC0
1FF07FF87FC0
1FF07FF87FC0
1FF0FFF87FC0
0FF8FDF87FC0
0FF8FDFCFF80
0FF9FCFCFF80
0FF9FCFCFF80
0FF9F8FCFF80
07FFF8FFFF80
07FFF8FFFF00
07FFF87FFF00
07FFF87FFF00
03FFF07FFF00
03FFF07FFF00
03FFF07FFE00
03FFF03FFE00
03FFF03FFE00
01FFE03FFE00
01FFE03FFE00
01FFE03FFC00
01FFE01FFC00
01FFE01FFC00
ENDCHAR
STARTCHAR 1EA0
ENCODING 7840
SWIDTH 576 0
DWIDTH 32 0
BBX 31 45 1 -6
BITMAP
00FFFE00
01FFFE00
01FFFF00
01FFFF00
03FFFF00
03FFFF00
03FFFF80
03FFFF80
03FFFF80
07F83F80
07F83F80
07F03FC0
07F03FC0
07F03FC0
0FF01FC0
0FF01FC0
0FF01FE0
0FE01FE0
0FE01FE0
1FE01FE0
1FE01FE0
1FE00FF0
1FE00FF0
1FE00FF0
3FF01FF0
3FFFFFF0
3FFFFFF8
3FFFFFF8
3FFFFFF8
7FFFF7F8
7FDFF7F8
7F8007FC
7F8007FC
7F8007FC
FF8003FC
FF8003FC
FF8003FE
FF0003FE
FF0003FE
00000000
00000000
001FE000
001FE000
001FE000
001FE000
ENDCHAR
STARTCHAR 1EA1
ENCODING 7841
SWIDTH 576 0
DWIDTH 32 0
BBX 31 45 1 -6
BITMAP
00FFFE00
01FFFE00
01FFFF00
01FFFF00
03FFFF00
03FFFF00
03FFFF80
03FFFF80
03FFFF80
07F83F80
07F83F80
07F03FC0
07F03FC0
07F03FC0
0FF01FC0
0FF01FC0
0FF01FE0
0FE01FE0
0FE01FE0
1FE01FE0
1FE01FE0
1FE00FF0
1FE00FF0
1FE00FF0
3FF01FF0
3FFFFFF0
3FFFFFF8
3FFFFFF8
3FFFFFF8
7FFFF7F8
7FDFF7F8
7F8007FC
7F8007FC
7F8007FC
FF8003FC
FF8003FC
FF8003FE
FF0003FE
FF0003FE
00000000
00000000
001FE000
001FE000
001FE000
001FE000
ENDCHAR
STARTCHAR 1EA2
ENCODING 7842
SWIDTH 576 0
DWIDTH 32 0
BBX 31 50 1 0
BITMAP
001FE000
001FF000
003FF800
003CF000
0038F000
0001E000
0003C000
0003C000
0003C000
00000000
00000000
00FFFE00
01FFFE00
01FFFF00
01FFFF00
03FFFF00
03FFFF00
03FFFF80
03FFFF80
03FFFF80
07F83F80
07F83F80
07F03FC0
07F03FC0
07F03FC0
0FF01FC0
0FF01FC0
0FF01FE0
0FE01FE0
0FE01FE0
1FE01FE0
1FE01FE0
1FE00FF0
1FE00FF0
1FE00FF0
3FF01FF0
3FFFFFF0
3FFFFFF8
3FFFFFF8
3FFFFFF8
7FFFF7F8
7FDFF7F8
7F8007FC
7F8007FC
7F8007FC
FF8003FC
FF8003FC
FF8003FE
FF0003FE
FF0003FE
ENDCHAR
STARTCHAR 1EA3
ENCODING 7843
SWIDTH 576 0
DWIDTH 32 0
BBX 31 50 1 0
BITMAP
001FE000
001FF000
003FF800
003CF000
0038F000
0001E000
0003C000
0003C000
0003C000
00000000
00000000
00FFFE00
01FFFE00
01FFFF00
01FFFF00
03FFFF00
03FFFF00
03FFFF80
03FFFF80
03FFFF80
07F83F80
07F83F80
07F03FC0
07F03FC0
07F03FC0
0FF01FC0
0FF01FC0
0FF01FE0
0FE01FE0
0FE01FE0
1FE01FE0
1FE01FE0
1FE00FF0
1FE00FF0
1FE00FF0
3FF01FF0
3FFFFFF0
3FFFFFF8
3FFFFFF8
3FFFFFF8
7FFFF7F8
7FDFF7F8
7F8007FC
7F8007FC
7F8007FC
FF8003FC
FF8003FC
FF8003FE
FF0003FE
FF0003FE
ENDCHAR
STARTCHAR 1EA4
ENCODING 7844
SWIDTH 576 0
DWIDTH 32 0
BBX 31 56 1 0
BITMAP
00001F80
00FFFF80
07FFFF80
07FFF800
07FF0000
07E00000
00000000
00000000
00FFFC00
03FFFE00
07FFFF80
0FFFFFC0
0FE01FC0
0F8007C0
0F0003C0
00000000
00000000
00FFFE00
01FFFE00
01FFFF00
01FFFF00
03FFFF00
03FFFF00
03FFFF80
03FFFF80
03FFFF80
07F83F80
07F83F80
07F03FC0
07F03FC0
07F03FC0
0FF01FC0
0FF01FC0
0FF01FE0
0FE01FE0
0FE01FE0
1FE01FE0
1FE01FE0
1FE00FF0
1FE00FF0
1FE00FF0
3FF01FF0
3FFFFFF0
3FFFFFF8
3FFFFFF8
3FFFFFF8
7FFFF7F8
7FDFF7F8
7F8007FC
7F8007FC
7F8007FC
FF8003FC
FF8003FC
FF8003FE
FF0003FE
FF0003FE
ENDCHAR
STARTCHAR 1EA5
ENCODING 7845
SWIDTH 576 0
DWIDTH 32 0
BBX 31 56 1 0
BITMAP
00001F80
00FFFF80
07FFFF80
07FFF800
07FF0000
07E00000
00000000
00000000
00FFFC00
03FFFE00
07FFFF80
0FFFFFC0
0FE01FC0
0F8007C0
0F0003C0
00000000
00000000
00FFFE00
01FFFE00
01FFFF00
01FFFF00
03FFFF00
03FFFF00
03FFFF80
03FFFF80
03FFFF80
07F83F80
07F83F80
07F03FC0
07F03FC0
07F03FC0
0FF01FC0
0FF01FC0
0FF01FE0
0FE01FE0
0FE01FE0
1FE01FE0
1FE01FE0
1FE00FF0
1FE00FF0
1FE00FF0
3FF01FF0
3FFFFFF0
3FFFFFF8
3FFFFFF8
3FFFFFF8
7FFFF7F8
7FDFF7F8
7F8007FC
7F8007FC
7F8007FC
FF8003FC
FF8003FC
FF8003FE
FF0003FE
FF0003FE
ENDCHAR
STARTCHAR 1EA6
ENCODING 7846
SWIDTH 576 0
DWIDTH 32 0
BBX 31 56 1 0
BITMAP
07C00000
07FE0000
07FFF000
07FFFF80
01FFFF80
00003F80
00000000
00000000
00FFFC00
03FFFE00
07FFFF80
0FFFFFC0
0FE01FC0
0F8007C0
0F0003C0
00000000
00000000
00FFFE00
01FFFE00
01FFFF00
01FFFF00
03FFFF00
03FFFF00
03FFFF80
03FFFF80
03FFFF80
07F83F80
07F83F80
07F03FC0
07F03FC0
07F03FC0
0FF01FC0
0FF01FC0
0FF01FE0
0FE01FE0
0FE01FE0
1FE01FE0
1FE01FE0
1FE00FF0
1FE00FF0
1FE00FF0
3FF01FF0
3FFFFFF0
3FFFFFF8
3FFFFFF8
3FFFFFF8
7FFFF7F8
7FDFF7F8
7F8007FC
7F8007FC
7F8007FC
FF8003FC
FF8003FC
FF8003FE
FF0003FE
FF0003FE
ENDCHAR
STARTCHAR 1EA7
ENCODING 7847
SWIDTH 576 0
DWIDTH 32 0
BBX 31 56 1 0
BITMAP
07C00000
07FE0000
07FFF000
07FFFF80
01FFFF80
00003F80
00000000
00000000
00FFFC00
03FFFE00
07FFFF80
0FFFFFC0
0FE01FC0
0F8007C0
0F0003C0
00000000
00000000
00FFFE00
01FFFE00
01FFFF00
01FFFF00
03FFFF00
03FFFF00
03FFFF80
03FFFF80
03FFFF80
07F83F80
07F83F80
07F03FC0
07F03FC0
07F03FC0
0FF01FC0
0FF01FC0
0FF01FE0
0FE01FE0
0FE01FE0
1FE01FE0
1FE01FE0
1FE00FF0
1FE00FF0
1FE00FF0
3FF01FF0
3FFFFFF0
3FFFFFF8
3FFFFFF8
3FFFFFF8
7FFFF7F8
7FDFF7F8
7F8007FC
7F8007FC
7F8007FC
FF8003FC
FF8003FC
FF8003FE
FF0003FE
FF0003FE
ENDCHAR
STARTCHAR 1EA8
ENCODING 7848
SWIDTH 576 0
DWIDTH 32 0
BBX 31 59 1 0
BITMAP
001FE000
001FF000
003FF800
003CF000
0038F000
0001E000
0003C000
0003C000
0003C000
00000000
00000000
00FFFC00
03FFFE00
07FFFF80
0FFFFFC0
0FE01FC0
0F8007C0
0F0003C0
00000000
00000000
00FFFE00
01FFFE00
01FFFF00
01FFFF00
03FFFF00
03FFFF00
03FFFF80
03FFFF80
03FFFF80
07F83F80
07F83F80
07F03FC0
07F03FC0
07F03FC0
0FF01FC0
0FF01FC0
0FF01FE0
0FE01FE0
0FE01FE0
1FE01FE0
1FE01FE0
1FE00FF0
1FE00FF0
1FE00FF0
3FF01FF0
3FFFFFF0
3FFFFFF8
3FFFFFF8
3FFFFFF8
7FFFF7F8
7FDFF7F8
7F8007FC
7F8007FC
7F8007FC
FF8003FC
FF8003FC
FF8003FE
FF0003FE
FF0003FE
ENDCHAR
STARTCHAR 1EA9
ENCODING 7849
SWIDTH 576 0
DWIDTH 32 0
BBX 31 59 1 0
BITMAP
001FE000
001FF000
003FF800
003CF000
0038F000
0001E000
0003C000
0003C000
0003C000
00000000
00000000
00FFFC00
03FFFE00
07FFFF80
0FFFFFC0
0FE01FC0
0F8007C0
0F0003C0
00000000
00000000
00FFFE00
01FFFE00
01FFFF00
01FFFF00
03FFFF00
03FFFF00
03FFFF80
03FFFF80
03FFFF80
07F83F80
07F83F80
07F03FC0
07F03FC0
07F03FC0
0FF01FC0
0FF01FC0
0FF01FE0
0FE01FE0
0FE01FE0
1FE01FE0
1FE01FE0
1FE00FF0
1FE00FF0
1FE00FF0
3FF01FF0
3FFFFFF0
3FFFFFF8
3FFFFFF8
3FFFFFF8
7FFFF7F8
7FDFF7F8
7F8007FC
7F8007FC
7F8007FC
FF8003FC
FF8003FC
FF8003FE
FF0003FE
FF0003FE
ENDCHAR
STARTCHAR 1EAA
ENCODING 7850
SWIDTH 576 0
DWIDTH 32 0
BBX 31 58 1 0
BITMAP
00100000
007E0000
01FFC0E0
07FFFBE0
0FFFFFE0
0FC3FFE0
0F007F80
0E000E00
00000000
00000000
00FFFC00
03FFFE00
07FFFF80
0FFFFFC0
0FE01FC0
0F8007C0
0F0003C0
00000000
00000000
00FFFE00
01FFFE00
01FFFF00
01FFFF00
03FFFF00
03FFFF00
03FFFF80
03FFFF80
03FFFF80
07F83F80
07F83F80
07F03FC0
07F03FC0
07F03FC0
0FF01FC0
0FF01FC0
0FF01FE0
0FE01FE0
0FE01FE0
1FE01FE0
1FE01FE0
1FE00FF0
1FE00FF0
1FE00FF0
3FF01FF0
3FFFFFF0
3FFFFFF8
3FFFFFF8
3FFFFFF8
7FFFF7F8
7FDFF7F8
7F8007FC
7F8007FC
7F8007FC
FF8003FC
FF8003FC
FF8003FE
FF0003FE
FF0003FE
ENDCHAR
STARTCHAR 1EAB
ENCODING 7851
SWIDTH 576 0
DWIDTH 32 0
BBX 31 58 1 0
BITMAP
00100000
007E0000
01FFC0E0
07FFFBE0
0FFFFFE0
0FC3FFE0
0F007F80
0E000E00
00000000
00000000
00FFFC00
03FFFE00
07FFFF80
0FFFFFC0
0FE01FC0
0F8007C0
0F0003C0
00000000
00000000
00FFFE00
01FFFE00
01FFFF00
01FFFF00
03FFFF00
03FFFF00
03FFFF80
03FFFF80
03FFFF80
07F83F80
07F83F80
07F03FC0
07F03FC0
07F03FC0
0FF01FC0
0FF01FC0
0FF01FE0
0FE01FE0
0FE01FE0
1FE01FE0
1FE01FE0
1FE00FF0
1FE00FF0
1FE00FF0
3FF01FF0
3FFFFFF0
3FFFFFF8
3FFFFFF8
3FFFFFF8
7FFFF7F8
7FDFF7F8
7F8007FC
7F8007FC
7F8007FC
FF8003FC
FF8003FC
FF8003FE
FF0003FE
FF0003FE
ENDCHAR
STARTCHAR 1EAC
ENCODING 7852
SWIDTH 576 0
DWIDTH 32 0
BBX 31 54 1 -6
BITMAP
00FFFC00
03FFFE00
07FFFF80
0FFFFFC0
0FE01FC0
0F8007C0
0F0003C0
00000000
00000000
00FFFE00
01FFFE00
01FFFF00
01FFFF00
03FFFF00
03FFFF00
03FFFF80
03FFFF80
03FFFF80
07F83F80
07F83F80
07F03FC0
07F03FC0
07F03FC0
0FF01FC0
0FF01FC0
0FF01FE0
0FE01FE0
0FE01FE0
1FE01FE0
1FE01FE0
1FE00FF0
1FE00FF0
1FE00FF0
3FF01FF0
3FFFFFF0
3FFFFFF8
3FFFFFF8
3FFFFFF8
7FFFF7F8
7FDFF7F8
7F8007FC
7F8007FC
7F8007FC
FF8003FC
FF8003FC
FF8003FE
FF0003FE
FF0003FE
00000000
00000000
001FE000
001FE000
001FE000
001FE000
ENDCHAR
STARTCHAR 1EAD
ENCODING 7853
SWIDTH 576 0
DWIDTH 32 0
BBX 31 54 1 -6
BITMAP
00FFFC00
03FFFE00
07FFFF80
0FFFFFC0
0FE01FC0
0F8007C0
0F0003C0
00000000
00000000
00FFFE00
01FFFE00
01FFFF00
01FFFF00
03FFFF00
03FFFF00
03FFFF80
03FFFF80
03FFFF80
07F83F80
07F83F80
07F03FC0
07F03FC0
07F03FC0
0FF01FC0
0FF01FC0
0FF01FE0
0FE01FE0
0FE01FE0
1FE01FE0
1FE01FE0
1FE00FF0
1FE00FF0
1FE00FF0
3FF01FF0
3FFFFFF0
3FFFFFF8
3FFFFFF8
3FFFFFF8
7FFFF7F8
7FDFF7F8
7F8007FC
7F8007FC
7F8007FC
FF8003FC
FF8003FC
FF8003FE
FF0003FE
FF0003FE
00000000
00000000
001FE000
001FE000
001FE000
001FE000
ENDCHAR
STARTCHAR 1EAE
ENCODING 7854
SWIDTH 576 0
DWIDTH 32 0
BBX 31 56 1 0
BITMAP
00001F80
00FFFF80
07FFFF80
07FFF800
07FF0000
07E00000
00000000
00000000
0F0003C0
0F8007C0
0FC01FC0
0FFFFFC0
07FFFF80
03FFFF00
01FFFC00
00000000
00000000
00FFFE00
01FFFE00
01FFFF00
01FFFF00
03FFFF00
03FFFF00
03FFFF80
03FFFF80
03FFFF80
07F83F80
07F83F80
07F03FC0
07F03FC0
07F03FC0
0FF01FC0
0FF01FC0
0FF01FE0
0FE01FE0
0FE01FE0
1FE01FE0
1FE01FE0
1FE00FF0
1FE00FF0
1FE00FF0
3FF01FF0
3FFFFFF0
3FFFFFF8
3FFFFFF8
3FFFFFF8
7FFFF7F8
7FDFF7F8
7F8007FC
7F8007FC
7F8007FC
FF8003FC
FF8003FC
FF8003FE
FF0003FE
FF0003FE
ENDCHAR
STARTCHAR 1EAF
ENCODING 7855
SWIDTH 576 0
DWIDTH 32 0
BBX 31 56 1 0
BITMAP
00001F80
00FFFF80
07FFFF80
07FFF800
07FF0000
07E00000
00000000
00000000
0F0003C0
0F8007C0
0FC01FC0
0FFFFFC0
07FFFF80
03FFFF00
01FFFC00
00000000
00000000
00FFFE00
01FFFE00
01FFFF00
01FFFF00
03FFFF00
03FFFF00
03FFFF80
03FFFF80
03FFFF80
07F83F80
07F83F80
07F03FC0
07F03FC0
07F03FC0
0FF01FC0
0FF01FC0
0FF01FE0
0FE01FE0
0FE01FE0
1FE01FE0
1FE01FE0
1FE00FF0
1FE00FF0
1FE00FF0
3FF01FF0
3FFFFFF0
3FFFFFF8
3FFFFFF8
3FFFFFF8
7FFFF7F8
7FDFF7F8
7F8007FC
7F8007FC
7F8007FC
FF8003FC
FF8003FC
FF8003FE
FF0003FE
FF0003FE
ENDCHAR
STARTCHAR 1EB0
ENCODING 7856
SWIDTH 576 0
DWIDTH 32 0
BBX 31 56 1 0
BITMAP
07C00000
07FE0000
07FFF000
07FFFF80
01FFFF80
00003F80
00000000
00000000
0F0003C0
0F8007C0
0FC01FC0
0FFFFFC0
07FFFF80
03FFFF00
01FFFC00
00000000
00000000
00FFFE00
01FFFE00
01FFFF00
01FFFF00
03FFFF00
03FFFF00
03FFFF80
03FFFF80
03FFFF80
07F83F80
07F83F80
07F03FC0
07F03FC0
07F03FC0
0FF01FC0
0FF01FC0
0FF01FE0
0FE01FE0
0FE01FE0
1FE01FE0
1FE01FE0
1FE00FF0
1FE00FF0
1FE00FF0
3FF01FF0
3FFFFFF0
3FFFFFF8
3FFFFFF8
3FFFFFF8
7FFFF7F8
7FDFF7F8
7F8007FC
7F8007FC
7F8007FC
FF8003FC
FF8003FC
FF8003FE
FF0003FE
FF0003FE
ENDCHAR
STARTCHAR 1EB1
ENCODING 7857
SWIDTH 576 0
DWIDTH 32 0
BBX 31 56 1 0
BITMAP
07C00000
07FE0000
07FFF000
07FFFF80
01FFFF80
00003F80
00000000
00000000
0F0003C0
0F8007C0
0FC01FC0
0FFFFFC0
07FFFF80
03FFFF00
01FFFC00
00000000
00000000
00FFFE00
01FFFE00
01FFFF00
01FFFF00
03FFFF00
03FFFF00
03FFFF80
03FFFF80
03FFFF80
07F83F80
07F83F80
07F03FC0
07F03FC0
07F03FC0
0FF01FC0
0FF01FC0
0FF01FE0
0FE01FE0
0FE01FE0
1FE01FE0
1FE01FE0
1FE00FF0
1FE00FF0
1FE00FF0
3FF01FF0
3FFFFFF0
3FFFFFF8
3FFFFFF8
3FFFFFF8
7FFFF7F8
7FDFF7F8
7F8007FC
7F8007FC
7F8007FC
FF8003FC
FF8003FC
FF8003FE
FF0003FE
FF0003FE
ENDCHAR
STARTCHAR 1EB2
ENCODING 7858
SWIDTH 576 0
DWIDTH 32 0
BBX 31 57 1 0
BITMAP
000FE000
001FF000
003FF800
003CF000
0038F000
0001E000
0003C000
0003C000
0003C000
0F0003C0
0F8007C0
0FC01FC0
0FFFFFC0
07FFFF80
03FFFF00
01FFFC00
00000000
00000000
00FFFE00
01FFFE00
01FFFF00
01FFFF00
03FFFF00
03FFFF00
03FFFF80
03FFFF80
03FFFF80
07F83F80
07F83F80
07F03FC0
07F03FC0
07F03FC0
0FF01FC0
0FF01FC0
0FF01FE0
0FE01FE0
0FE01FE0
1FE01FE0
1FE01FE0
1FE00FF0
1FE00FF0
1FE00FF0
3FF01FF0
3FFFFFF0
3FFFFFF8
3FFFFFF8
3FFFFFF8
7FFFF7F8
7FDFF7F8
7F8007FC
7F8007FC
7F8007FC
FF8003FC
FF8003FC
FF8003FE
FF0003FE
FF0003FE
ENDCHAR
STARTCHAR 1EB3
ENCODING 7859
SWIDTH 576 0
DWIDTH 32 0
BBX 31 57 1 0
BITMAP
000FE000
001FF000
003FF800
003CF000
0038F000
0001E000
0003C000
0003C000
0003C000
0F0003C0
0F8007C0
0FC01FC0
0FFFFFC0
07FFFF80
03FFFF00
01FFFC00
00000000
00000000
00FFFE00
01FFFE00
01FFFF00
01FFFF00
03FFFF00
03FFFF00
03FFFF80
03FFFF80
03FFFF80
07F83F80
07F83F80
07F03FC0
07F03FC0
07F03FC0
0FF01FC0
0FF01FC0
0FF01FE0
0FE01FE0
0FE01FE0
1FE01FE0
1FE01FE0
1FE00FF0
1FE00FF0
1FE00FF0
3FF01FF0
3FFFFFF0
3FFFFFF8
3FFFFFF8
3FFFFFF8
7FFFF7F8
7FDFF7F8
7F8007FC
7F8007FC
7F8007FC
FF8003FC
FF8003FC
FF8003FE
FF0003FE
FF0003FE
ENDCHAR
STARTCHAR 1EB4
ENCODING 7860
SWIDTH 576 0
DWIDTH 32 0
BBX 31 58 1 0
BITMAP
00100000
007E0000
01FFC0E0
07FFFBE0
0FFFFFE0
0FC3FFE0
0F007F80
0E000E00
00000000
00000000
0F0003C0
0F8007C0
0FC01FC0
0FFFFFC0
07FFFF80
03FFFF00
01FFFC00
00000000
00000000
00FFFE00
01FFFE00
01FFFF00
01FFFF00
03FFFF00
03FFFF00
03FFFF80
03FFFF80
03FFFF80
07F83F80
07F83F80
07F03FC0
07F03FC0
07F03FC0
0FF01FC0
0FF01FC0
0FF01FE0
0FE01FE0
0FE01FE0
1FE01FE0
1FE01FE0
1FE00FF0
1FE00FF0
1FE00FF0
3FF01FF0
3FFFFFF0
3FFFFFF8
3FFFFFF8
3FFFFFF8
7FFFF7F8
7FDFF7F8
7F8007FC
7F8007FC
7F8007FC
FF8003FC
FF8003FC
FF8003FE
FF0003FE
FF0003FE
ENDCHAR
STARTCHAR 1EB5
ENCODING 7861
SWIDTH 576 0
DWIDTH 32 0
BBX 31 58 1 0
BITMAP
00100000
007E0000
01FFC0E0
07FFFBE0
0FFFFFE0
0FC3FFE0
0F007F80
0E000E00
00000000
00000000
0F0003C0
0F8007C0
0FC01FC0
0FFFFFC0
07FFFF80
03FFFF00
01FFFC00
00000000
00000000
00FFFE00
01FFFE00
01FFFF00
01FFFF00
03FFFF00
03FFFF00
03FFFF80
03FFFF80
03FFFF80
07F83F80
07F83F80
07F03FC0
07F03FC0
07F03FC0
0FF01FC0
0FF01FC0
0FF01FE0
0FE01FE0
0FE01FE0
1FE01FE0
1FE01FE0
1FE00FF0
1FE00FF0
1FE00FF0
3FF01FF0
3FFFFFF0
3FFFFFF8
3FFFFFF8
3FFFFFF8
7FFFF7F8
7FDFF7F8
7F8007FC
7F8007FC
7F8007FC
FF8003FC
FF8003FC
FF8003FE
FF0003FE
FF0003FE
ENDCHAR
STARTCHAR 1EB6
ENCODING 7862
SWIDTH 576 0
DWIDTH 32 0
BBX 31 54 1 -6
BITMAP
0F0003C0
0F8007C0
0FC01FC0
0FFFFFC0
07FFFF80
03FFFF00
01FFFC00
00000000
00000000
00FFFE00
01FFFE00
01FFFF00
01FFFF00
03FFFF00
03FFFF00
03FFFF80
03FFFF80
03FFFF80
07F83F80
07F83F80
07F03FC0
07F03FC0
07F03FC0
0FF01FC0
0FF01FC0
0FF01FE0
0FE01FE0
0FE01FE0
1FE01FE0
1FE01FE0
1FE00FF0
1FE00FF0
1FE00FF0
3FF01FF0
3FFFFFF0
3FFFFFF8
3FFFFFF8
3FFFFFF8
7FFFF7F8
7FDFF7F8
7F8007FC
7F8007FC
7F8007FC
FF8003FC
FF8003FC
FF8003FE
FF0003FE
FF0003FE
00000000
00000000
001FE000
001FE000
001FE000
001FE000
ENDCHAR
STARTCHAR 1EB7
ENCODING 7863
SWIDTH 576 0
DWIDTH 32 0
BBX 31 54 1 -6
BITMAP
0F0003C0
0F8007C0
0FC01FC0
0FFFFFC0
07FFFF80
03FFFF00
01FFFC00
00000000
00000000
00FFFE00
01FFFE00
01FFFF00
01FFFF00
03FFFF00
03FFFF00
03FFFF80
03FFFF80
03FFFF80
07F83F80
07F83F80
07F03FC0
07F03FC0
07F03FC0
0FF01FC0
0FF01FC0
0FF01FE0
0FE01FE0
0FE01FE0
1FE01FE0
1FE01FE0
1FE00FF0
1FE00FF0
1FE00FF0
3FF01FF0
3FFFFFF0
3FFFFFF8
3FFFFFF8
3FFFFFF8
7FFFF7F8
7FDFF7F8
7F8007FC
7F8007FC
7F8007FC
FF8003FC
FF8003FC
FF8003FE
FF0003FE
FF0003FE
00000000
00000000
001FE000
001FE000
001FE000
001FE000
ENDCHAR
STARTCHAR 1EB8
ENCODING 7864
SWIDTH 540 0
DWIDTH 30 0
BBX 26 45 2 -6
BITMAP
FFFFFC00
FFFFFE00
FFFFFE00
FFFFFF00
FFFFFF80
FFFFFF80
FFFFFFC0
FFFFFFC0
FFFFFFC0
FF803FC0
FF801FC0
FF800000
FF800000
FF800000
FF800000
FF800000
FFFFE000
FFFFE000
FFFFE000
FFFFE000
FFFFE000
FFFFE000
FFFFE000
FF800000
FF800000
FF800000
FF800000
FF800000
FF801FC0
FF801FC0
FFFFFFC0
FFFFFFC0
FFFFFFC0
FFFFFF80
FFFFFF80
FFFFFF00
FFFFFE00
FFFFFE00
FFFFFC00
00000000
00000000
01FF8000
01FF8000
01FF8000
01FF8000
ENDCHAR
STARTCHAR 1EB9
ENCODING 7865
SWIDTH 540 0
DWIDTH 30 0
BBX 26 45 2 -6
BITMAP
FFFFFC00
FFFFFE00
FFFFFE00
FFFFFF00
FFFFFF80
FFFFFF80
FFFFFFC0
FFFFFFC0
FFFFFFC0
FF803FC0
FF801FC0
FF800000
FF800000
FF800000
FF800000
FF800000
FFFFE000
FFFFE000
FFFFE000
FFFFE000
FFFFE000
FFFFE000
FFFFE000
FF800000
FF800000
FF800000
FF800000
FF800000
FF801FC0
FF801FC0
FFFFFFC0
FFFFFFC0
FFFFFFC0
FFFFFF80
FFFFFF80
FFFFFF00
FFFFFE00
FFFFFE00
FFFFFC00
00000000
00000000
01FF8000
01FF8000
01FF8000
01FF8000
ENDCHAR
STARTCHAR 1EBA
ENCODING 7866
SWIDTH 540 0
DWIDTH 30 0
BBX 26 50 2 0
BITMAP
00FF0000
01FF8000
01FFC000
01C78000
01CF0000
001E0000
001E0000
001C0000
001C0000
00000000
00000000
FFFFFC00
FFFFFE00
FFFFFE00
FFFFFF00
FFFFFF80
FFFFFF80
FFFFFFC0
FFFFFFC0
FFFFFFC0
FF803FC0
FF801FC0
FF800000
FF800000
FF800000
FF800000
FF800000
FFFFE000
FFFFE000
FFFFE000
FFFFE000
FFFFE000
FFFFE000
FFFFE000
FF800000
FF800000
FF800000
FF800000
FF800000
FF801FC0
FF801FC0
FFFFFFC0
FFFFFFC0
FFFFFFC0
FFFFFF80
FFFFFF80
FFFFFF00
FFFFFE00
FFFFFE00
FFFFFC00
ENDCHAR
STARTCHAR 1EBB
ENCODING 7867
SWIDTH 540 0
DWIDTH 30 0
BBX 26 50 2 0
BITMAP
00FF0000
01FF8000
01FFC000
01C78000
01CF0000
001E0000
001E0000
001C0000
001C0000
00000000
00000000
FFFFFC00
FFFFFE00
FFFFFE00
FFFFFF00
FFFFFF80
FFFFFF80
FFFFFFC0
FFFFFFC0
FFFFFFC0
FF803FC0
FF801FC0
FF800000
FF800000
FF800000
FF800000
FF800000
FFFFE000
FFFFE000
FFFFE000
FFFFE000
FFFFE000
FFFFE000
FFFFE000
FF800000
FF800000
FF800000
FF800000
FF800000
FF801FC0
FF801FC0
FFFFFFC0
FFFFFFC0
FFFFFFC0
FFFFFF80
FFFFFF80
FFFFFF00
FFFFFE00
FFFFFE00
FFFFFC00
ENDCHAR
STARTCHAR 1EBC
ENCODING 7868
SWIDTH 540 0
DWIDTH 30 0
BBX 26 49 2 0
BITMAP
01000000
07E00000
1FFC0E00
7FFFBE00
FFFFFE00
FC1FFE00
F807F800
E000E000
00000000
00000000
FFFFFC00
FFFFFE00
FFFFFE00
FFFFFF00
FFFFFF80
FFFFFF80
FFFFFFC0
FFFFFFC0
FFFFFFC0
FF803FC0
FF801FC0
FF800000
FF800000
FF800000
FF800000
FF800000
FFFFE000
FFFFE000
FFFFE000
FFFFE000
FFFFE000
FFFFE000
FFFFE000
FF800000
FF800000
FF800000
FF800000
FF800000
FF801FC0
FF801FC0
FFFFFFC0
FFFFFFC0
FFFFFFC0
FFFFFF80
FFFFFF80
FFFFFF00
FFFFFE00
FFFFFE00
FFFFFC00
ENDCHAR
STARTCHAR 1EBD
ENCODING 7869
SWIDTH 540 0
DWIDTH 30 0
BBX 26 49 2 0
BITMAP
01000000
07E00000
1FFC0E00
7FFFBE00
FFFFFE00
FC1FFE00
F807F800
E000E000
00000000
00000000
FFFFFC00
FFFFFE00
FFFFFE00
FFFFFF00
FFFFFF80
FFFFFF80
FFFFFFC0
FFFFFFC0
FFFFFFC0
FF803FC0
FF801FC0
FF800000
FF800000
FF800000
FF800000
FF800000
FFFFE000
FFFFE000
FFFFE000
FFFFE000
FFFFE000
FFFFE000
FFFFE000
FF800000
FF800000
FF800000
FF800000
FF800000
FF801FC0
FF801FC0
FFFFFFC0
FFFFFFC0
FFFFFFC0
FFFFFF80
FFFFFF80
FFFFFF00
FFFFFE00
FFFFFE00
FFFFFC00
ENDCHAR
STARTCHAR 1EBE
ENCODING 7870
SWIDTH 540 0
DWIDTH 30 0
BBX 26 56 2 0
BITMAP
00007E00
07FFFE00
1FFFFE00
1FFFC000
1FF80000
1F800000
00000000
00000000
0FFFE000
1FFFF000
3FFFF800
7FFFFC00
FE00FE00
FC007E00
F8003E00
00000000
00000000
FFFFFC00
FFFFFE00
FFFFFE00
FFFFFF00
FFFFFF80
FFFFFF80
FFFFFFC0
FFFFFFC0
FFFFFFC0
FF803FC0
FF801FC0
FF800000
FF800000
FF800000
FF800000
FF800000
FFFFE000
FFFFE000
FFFFE000
FFFFE000
FFFFE000
FFFFE000
FFFFE000
FF800000
FF800000
FF800000
FF800000
FF800000
FF801FC0
FF801FC0
FFFFFFC0
FFFFFFC0
FFFFFFC0
FFFFFF80
FFFFFF80
FFFFFF00
FFFFFE00
FFFFFE00
FFFFFC00
ENDCHAR
STARTCHAR 1EBF
ENCODING 7871
SWIDTH 540 0
DWIDTH 30 0
BBX 26 56 2 0
BITMAP
00007E00
07FFFE00
1FFFFE00
1FFFC000
1FF80000
1F800000
00000000
00000000
0FFFE000
1FFFF000
3FFFF800
7FFFFC00
FE00FE00
FC007E00
F8003E00
00000000
00000000
FFFFFC00
FFFFFE00
FFFFFE00
FFFFFF00
FFFFFF80
FFFFFF80
FFFFFFC0
FFFFFFC0
FFFFFFC0
FF803FC0
FF801FC0
FF800000
FF800000
FF800000
FF800000
FF800000
FFFFE000
FFFFE000
FFFFE000
FFFFE000
FFFFE000
FFFFE000
FFFFE000
FF800000
FF800000
FF800000
FF800000
FF800000
FF801FC0
FF801FC0
FFFFFFC0
FFFFFFC0
FFFFFFC0
FFFFFF80
FFFFFF80
FFFFFF00
FFFFFE00
FFFFFE00
FFFFFC00
ENDCHAR
STARTCHAR 1EC0
ENCODING 7872
SWIDTH 540 0
DWIDTH 30 0
BBX 26 56 2 0
BITMAP
1F000000
1FF80000
1FFFC000
1FFFFE00
07FFFE00
0000FE00
00000000
00000000
0FFFE000
1FFFF000
3FFFF800
7FFFFC00
FE00FE00
FC007E00
F8003E00
00000000
00000000
FFFFFC00
FFFFFE00
FFFFFE00
FFFFFF00
FFFFFF80
FFFFFF80
FFFFFFC0
FFFFFFC0
FFFFFFC0
FF803FC0
FF801FC0
FF800000
FF800000
FF800000
FF800000
FF800000
FFFFE000
FFFFE000
FFFFE000
FFFFE000
FFFFE000
FFFFE000
FFFFE000
FF800000
FF800000
FF800000
FF800000
FF800000
FF801FC0
FF801FC0
FFFFFFC0
FFFFFFC0
FFFFFFC0
FFFFFF80
FFFFFF80
FFFFFF00
FFFFFE00
FFFFFE00
FFFFFC00
ENDCHAR
STARTCHAR 1EC1
ENCODING 7873
SWIDTH 540 0
DWIDTH 30 0
BBX 26 56 2 0
BITMAP
1F000000
1FF80000
1FFFC000
1FFFFE00
07FFFE00
0000FE00
00000000
00000000
0FFFE000
1FFFF000
3FFFF800
7FFFFC00
FE00FE00
FC007E00
F8003E00
00000000
00000000
FFFFFC00
FFFFFE00
FFFFFE00
FFFFFF00
FFFFFF80
FFFFFF80
FFFFFFC0
FFFFFFC0
FFFFFFC0
FF803FC0
FF801FC0
FF800000
FF800000
FF800000
FF800000
FF800000
FFFFE000
FFFFE000
FFFFE000
FFFFE000
FFFFE000
FFFFE000
FFFFE000
FF800000
FF800000
FF800000
FF800000
FF800000
FF801FC0
FF801FC0
FFFFFFC0
FFFFFFC0
FFFFFFC0
FFFFFF80
FFFFFF80
FFFFFF00
FFFFFE00
FFFFFE00
FFFFFC00
ENDCHAR
STARTCHAR 1EC2
ENCODING 7874
SWIDTH 540 0
DWIDTH 30 0
BBX 26 59 2 0
BITMAP
00FF0000
01FF8000
01FFC000
01C78000
01CF0000
001E0000
001E0000
001C0000
001C0000
00000000
00000000
0FFFE000
1FFFF000
3FFFF800
7FFFFC00
FE00FE00
FC007E00
F8003E00
00000000
00000000
FFFFFC00
FFFFFE00
FFFFFE00
FFFFFF00
FFFFFF80
FFFFFF80
FFFFFFC0
FFFFFFC0
FFFFFFC0
FF803FC0
FF801FC0
FF800000
FF800000
FF800000
FF800000
FF800000
FFFFE000
FFFFE000
FFFFE000
FFFFE000
FFFFE000
FFFFE000
FFFFE000
FF800000
FF800000
FF800000
FF800000
FF800000
FF801FC0
FF801FC0
FFFFFFC0
FFFFFFC0
FFFFFFC0
FFFFFF80
FFFFFF80
FFFFFF00
FFFFFE00
FFFFFE00
FFFFFC00
ENDCHAR
STARTCHAR 1EC3
ENCODING 7875
SWIDTH 540 0
DWIDTH 30 0
BBX 26 59 2 0
BITMAP
00FF0000
01FF8000
01FFC000
01C78000
01CF0000
001E0000
001E0000
001C0000
001C0000
00000000
00000000
0FFFE000
1FFFF000
3FFFF800
7FFFFC00
FE00FE00
FC007E00
F8003E00
00000000
00000000
FFFFFC00
FFFFFE00
FFFFFE00
FFFFFF00
FFFFFF80
FFFFFF80
FFFFFFC0
FFFFFFC0
FFFFFFC0
FF803FC0
FF801FC0
FF800000
FF800000
FF800000
FF800000
FF800000
FFFFE000
FFFFE000
FFFFE000
FFFFE000
FFFFE000
FFFFE000
FFFFE000
FF800000
FF800000
FF800000
FF800000
FF800000
FF801FC0
FF801FC0
FFFFFFC0
FFFFFFC0
FFFFFFC0
FFFFFF80
FFFFFF80
FFFFFF00
FFFFFE00
FFFFFE00
FFFFFC00
ENDCHAR
STARTCHAR 1EC4
ENCODING 7876
SWIDTH 540 0
DWIDTH 30 0
BBX 26 58 2 0
BITMAP
01000000
07E00000
1FFC0E00
7FFFBE00
FFFFFE00
FC1FFE00
F807F800
E000E000
00000000
00000000
0FFFE000
1FFFF000
3FFFF800
7FFFFC00
FE00FE00
FC007E00
F8003E00
00000000
00000000
FFFFFC00
FFFFFE00
FFFFFE00
FFFFFF00
FFFFFF80
FFFFFF80
FFFFFFC0
FFFFFFC0
FFFFFFC0
FF803FC0
FF801FC0
FF800000
FF800000
FF800000
FF800000
FF800000
FFFFE000
FFFFE000
FFFFE000
FFFFE000
FFFFE000
FFFFE000
FFFFE000
FF800000
FF800000
FF800000
FF800000
FF800000
FF801FC0
FF801FC0
FFFFFFC0
FFFFFFC0
FFFFFFC0
FFFFFF80
FFFFFF80
FFFFFF00
FFFFFE00
FFFFFE00
FFFFFC00
ENDCHAR
STARTCHAR 1EC5
ENCODING 7877
SWIDTH 540 0
DWIDTH 30 0
BBX 26 58 2 0
BITMAP
01000000
07E00000
1FFC0E00
7FFFBE00
FFFFFE00
FC1FFE00
F807F800
E000E000
00000000
00000000
0FFFE000
1FFFF000
3FFFF800
7FFFFC00
FE00FE00
FC007E00
F8003E00
00000000
00000000
FFFFFC00
FFFFFE00
FFFFFE00
FFFFFF00
FFFFFF80
FFFFFF80
FFFFFFC0
FFFFFFC0
FFFFFFC0
FF803FC0
FF801FC0
FF800000
FF800000
FF800000
FF800000
FF800000
FFFFE000
FFFFE000
FFFFE000
FFFFE000
FFFFE000
FFFFE000
FFFFE000
FF800000
FF800000
FF800000
FF800000
FF800000
FF801FC0
FF801FC0
FFFFFFC0
FFFFFFC0
FFFFFFC0
FFFFFF80
FFFFFF80
FFFFFF00
FFFFFE00
FFFFFE00
FFFFFC00
ENDCHAR
STARTCHAR 1EC6
ENCODING 7878
SWIDTH 540 0
DWIDTH 30 0
BBX 26 54 2 -6
BITMAP
0FFFE000
1FFFF000
3FFFF800
7FFFFC00
FE00FE00
FC007E00
F8003E00
00000000
00000000
FFFFFC00
FFFFFE00
FFFFFE00
FFFFFF00
FFFFFF80
FFFFFF80
FFFFFFC0
FFFFFFC0
FFFFFFC0
FF803FC0
FF801FC0
FF800000
FF800000
FF800000
FF800000
FF800000
FFFFE000
FFFFE000
FFFFE000
FFFFE000
FFFFE000
FFFFE000
FFFFE000
FF800000
FF800000
FF800000
FF800000
FF800000
FF801FC0
FF801FC0
FFFFFFC0
FFFFFFC0
FFFFFFC0
FFFFFF80
FFFFFF80
FFFFFF00
FFFFFE00
FFFFFE00
FFFFFC00
00000000
00000000
01FF8000
01FF8000
01FF8000
01FF8000
ENDCHAR
STARTCHAR 1EC7
ENCODING 7879
SWIDTH 540 0
DWIDTH 30 0
BBX 26 54 2 -6
BITMAP
0FFFE000
1FFFF000
3FFFF800
7FFFFC00
FE00FE00
FC007E00
F8003E00
00000000
00000000
FFFFFC00
FFFFFE00
FFFFFE00
FFFFFF00
FFFFFF80
FFFFFF80
FFFFFFC0
FFFFFFC0
FFFFFFC0
FF803FC0
FF801FC0
FF800000
FF800000
FF800000
FF800000
FF800000
FFFFE000
FFFFE000
FFFFE000
FFFFE000
FFFFE000
FFFFE000
FFFFE000
FF800000
FF800000
FF800000
FF800000
FF800000
FF801FC0
FF801FC0
FFFFFFC0
FFFFFFC0
FFFFFFC0
FFFFFF80
FFFFFF80
FFFFFF00
FFFFFE00
FFFFFE00
FFFFFC00
00000000
00000000
01FF8000
01FF8000
01FF8000
01FF8000
ENDCHAR
STARTCHAR 1EC8
ENCODING 7880
SWIDTH 234 0
DWIDTH 13 0
BBX 11 50 1 0
BITMAP
7F80
7FC0
FFE0
F3C0
E3C0
0780
0F00
0F00
0F00
0000
0000
7FC0
7FC0
7FC0
7FC0
7FC0
7FC0
7FC0
7FC0
7FC0
7FC0
7FC0
7FC0
7FC0
7FC0
7FC0
7FC0
7FC0
7FC0
7FC0
7FC0
7FC0
7FC0
7FC0
7FC0
7FC0
7FC0
7FC0
7FC0
7FC0
7FC0
7FC0
7FC0
7FC0
7FC0
7FC0
7FC0
7FC0
7FC0
7FC0
ENDCHAR
STARTCHAR 1EC9
ENCODING 7881
SWIDTH 234 0
DWIDTH 13 0
BBX 11 50 1 0
BITMAP
7F80
7FC0
FFE0
F3C0
E3C0
0780
0F00
0F00
0F00
0000
0000
7FC0
7FC0
7FC0
7FC0
7FC0
7FC0
7FC0
7FC0
7FC0
7FC0
7FC0
7FC0
7FC0
7FC0
7FC0
7FC0
7FC0
7FC0
7FC0
7FC0
7FC0
7FC0
7FC0
7FC0
7FC0
7FC0
7FC0
7FC0
7FC0
7FC0
7FC0
7FC0
7FC0
7FC0
7FC0
7FC0
7FC0
7FC0
7FC0
ENDCHAR
STARTCHAR 1ECA
ENCODING 7882
SWIDTH 234 0
DWIDTH 13 0
BBX 9 45 2 -6
BITMAP
FF80
FF80
FF80
FF80
FF80
FF80
FF80
FF80
FF80
FF80
FF80
FF80
FF80
FF80
FF80
FF80
FF80
FF80
FF80
FF80
FF80
FF80
FF80
FF80
FF80
FF80
FF80
FF80
FF80
FF80
FF80
FF80
FF80
FF80
FF80
FF80
FF80
FF80
FF80
0000
0000
FF80
FF80
FF80
FF80
ENDCHAR
STARTCHAR 1ECB
ENCODING 7883
SWIDTH 234 0
DWIDTH 13 0
BBX 9 45 2 -6
BITMAP
FF80
FF80
FF80
FF80
FF80
FF80
FF80
FF80
FF80
FF80
FF80
FF80
FF80
FF80
FF80
FF80
FF80
FF80
FF80
FF80
FF80
FF80
FF80
FF80
FF80
FF80
FF80
FF80
FF80
FF80
FF80
FF80
FF80
FF80
FF80
FF80
FF80
FF80
FF80
0000
0000
FF80
FF80
FF80
FF80
ENDCHAR
STARTCHAR 1ECC
ENCODING 7884
SWIDTH 612 0
DWIDTH 34 0
BBX 30 45 2 -6
BITMAP
0FFFFFC0
0FFFFFE0
1FFFFFE0
3FFFFFF0
3FFFFFF8
7FFFFFFC
FFFFFFFC
FFFFFFFC
FFFFFFFC
FFC007FC
FF8007FC
FF8003FC
FF8003FC
FF8003FC
FF8003FC
FF8003FC
FF8003FC
FF8003FC
FF8003FC
FF8003FC
FF8003FC
FF8003FC
FF8003FC
FF8003FC
FF8003FC
FF8003FC
FF8003FC
FF8003FC
FF8003FC
FFC007FC
FFFFFFFC
FFFFFFFC
FFFFFFFC
7FFFFFFC
7FFFFFF8
3FFFFFF0
1FFFFFF0
0FFFFFE0
0FFFFFC0
00000000
00000000
003FF000
003FF000
003FF000
003FF000
ENDCHAR
STARTCHAR 1ECD
ENCODING 7885
SWIDTH 612 0
DWIDTH 34 0
BBX 30 45 2 -6
BITMAP
0FFFFFC0
0FFFFFE0
1FFFFFE0
3FFFFFF0
3FFFFFF8
7FFFFFFC
FFFFFFFC
FFFFFFFC
FFFFFFFC
FFC007FC
FF8007FC
FF8003FC
FF8003FC
FF8003FC
FF8003FC
FF8003FC
FF8003FC
FF8003FC
FF8003FC
FF8003FC
FF8003FC
FF8003FC
FF8003FC
FF8003FC
FF8003FC
FF8003FC
FF8003FC
FF8003FC
FF8003FC
FFC007FC
FFFFFFFC
FFFFFFFC
FFFFFFFC
7FFFFFFC
7FFFFFF8
3FFFFFF0
1FFFFFF0
0FFFFFE0
0FFFFFC0
00000000
00000000
003FF000
003FF000
003FF000
003FF000
ENDCHAR
STARTCHAR 1ECE
ENCODING 7886
SWIDTH 612 0
DWIDTH 34 0
BBX 30 50 2 0
BITMAP
000FF000
001FF800
003FF800
003C7800
003CF000
0001E000
0001C000
0001C000
0001C000
00000000
00000000
0FFFFFC0
0FFFFFE0
1FFFFFE0
3FFFFFF0
3FFFFFF8
7FFFFFFC
FFFFFFFC
FFFFFFFC
FFFFFFFC
FFC007FC
FF8007FC
FF8003FC
FF8003FC
FF8003FC
FF8003FC
FF8003FC
FF8003FC
FF8003FC
FF8003FC
FF8003FC
FF8003FC
FF8003FC
FF8003FC
FF8003FC
FF8003FC
FF8003FC
FF8003FC
FF8003FC
FF8003FC
FFC007FC
FFFFFFFC
FFFFFFFC
FFFFFFFC
7FFFFFFC
7FFFFFF8
3FFFFFF0
1FFFFFF0
0FFFFFE0
0FFFFFC0
ENDCHAR
STARTCHAR 1ECF
ENCODING 7887
SWIDTH 612 0
DWIDTH 34 0
BBX 30 50 2 0
BITMAP
000FF000
001FF800
003FF800
003C7800
003CF000
0001E000
0001C000
0001C000
0001C000
00000000
00000000
0FFFFFC0
0FFFFFE0
1FFFFFE0
3FFFFFF0
3FFFFFF8
7FFFFFFC
FFFFFFFC
FFFFFFFC
FFFFFFFC
FFC007FC
FF8007FC
FF8003FC
FF8003FC
FF8003FC
FF8003FC
FF8003FC
FF8003FC
FF8003FC
FF8003FC
FF8003FC
FF8003FC
FF8003FC
FF8003FC
FF8003FC
FF8003FC
FF8003FC
FF8003FC
FF8003FC
FF8003FC
FFC007FC
FFFFFFFC
FFFFFFFC
FFFFFFFC
7FFFFFFC
7FFFFFF8
3FFFFFF0
1FFFFFF0
0FFFFFE0
0FFFFFC0
ENDCHAR
STARTCHAR 1ED0
ENCODING 7888
SWIDTH 612 0
DWIDTH 34 0
BBX 30 56 2 0
BITMAP
00000FC0
007FFFC0
03FFFFC0
03FFFC00
03FF8000
03F00000
00000000
00000000
00FFFE00
01FFFF00
03FFFF80
07FFFFC0
0FE00FE0
0FC007E0
0F8003E0
00000000
00000000
0FFFFFC0
0FFFFFE0
1FFFFFE0
3FFFFFF0
3FFFFFF8
7FFFFFFC
FFFFFFFC
FFFFFFFC
FFFFFFFC
FFC007FC
FF8007FC
FF8003FC
FF8003FC
FF8003FC
FF8003FC
FF8003FC
FF8003FC
FF8003FC
FF8003FC
FF8003FC
FF8003FC
FF8003FC
FF8003FC
FF8003FC
FF8003FC
FF8003FC
FF8003FC
FF8003FC
FF8003FC
FFC007FC
FFFFFFFC
FFFFFFFC
FFFFFFFC
7FFFFFFC
7FFFFFF8
3FFFFFF0
1FFFFFF0
0FFFFFE0
0FFFFFC0
ENDCHAR
STARTCHAR 1ED1
ENCODING 7889
SWIDTH 612 0
DWIDTH 34 0
BBX 30 56 2 0
BITMAP
00000FC0
007FFFC0
03FFFFC0
03FFFC00
03FF8000
03F00000
00000000
00000000
00FFFE00
01FFFF00
03FFFF80
07FFFFC0
0FE00FE0
0FC007E0
0F8003E0
00000000
00000000
0FFFFFC0
0FFFFFE0
1FFFFFE0
3FFFFFF0
3FFFFFF8
7FFFFFFC
FFFFFFFC
FFFFFFFC
FFFFFFFC
FFC007FC
FF8007FC
FF8003FC
FF8003FC
FF8003FC
FF8003FC
FF8003FC
FF8003FC
FF8003FC
FF8003FC
FF8003FC
FF8003FC
FF8003FC
FF8003FC
FF8003FC
FF8003FC
FF8003FC
FF8003FC
FF8003FC
FF8003FC
FFC007FC
FFFFFFFC
FFFFFFFC
FFFFFFFC
7FFFFFFC
7FFFFFF8
3FFFFFF0
1FFFFFF0
0FFFFFE0
0FFFFFC0
ENDCHAR
STARTCHAR 1ED2
ENCODING 7890
SWIDTH 612 0
DWIDTH 34 0
BBX 30 56 2 0
BITMAP
03E00000
03FF0000
03FFF800
03FFFFC0
00FFFFC0
00001FC0
00000000
00000000
00FFFE00
01FFFF00
03FFFF80
07FFFFC0
0FE00FE0
0FC007E0
0F8003E0
00000000
00000000
0FFFFFC0
0FFFFFE0
1FFFFFE0
3FFFFFF0
3FFFFFF8
7FFFFFFC
FFFFFFFC
FFFFFFFC
FFFFFFFC
FFC007FC
FF8007FC
FF8003FC
FF8003FC
FF8003FC
FF8003FC
FF8003FC
FF8003FC
FF8003FC
FF8003FC
FF8003FC
FF8003FC
FF8003FC
FF8003FC
FF8003FC
FF8003FC
FF8003FC
FF8003FC
FF8003FC
FF8003FC
FFC007FC
FFFFFFFC
FFFFFFFC
FFFFFFFC
7FFFFFFC
7FFFFFF8
3FFFFFF0
1FFFFFF0
0FFFFFE0
0FFFFFC0
ENDCHAR
STARTCHAR 1ED3
ENCODING 7891
SWIDTH 612 0
DWIDTH 34 0
BBX 30 56 2 0
BITMAP
03E00000
03FF0000
03FFF800
03FFFFC0
00FFFFC0
00001FC0
00000000
00000000
00FFFE00
01FFFF00
03FFFF80
07FFFFC0
0FE00FE0
0FC007E0
0F8003E0
00000000
00000000
0FFFFFC0
0FFFFFE0
1FFFFFE0
3FFFFFF0
3FFFFFF8
7FFFFFFC
FFFFFFFC
FFFFFFFC
FFFFFFFC
FFC007FC
FF8007FC
FF8003FC
FF8003FC
FF8003FC
FF8003FC
FF8003FC
FF8003FC
FF8003FC
FF8003FC
FF8003FC
FF8003FC
FF8003FC
FF8003FC
FF8003FC
FF8003FC
FF8003FC
FF8003FC
FF8003FC
FF8003FC
FFC007FC
FFFFFFFC
FFFFFFFC
FFFFFFFC
7FFFFFFC
7FFFFFF8
3FFFFFF0
1FFFFFF0
0FFFFFE0
0FFFFFC0
ENDCHAR
STARTCHAR 1ED4
ENCODING 7892
SWIDTH 612 0
DWIDTH 34 0
BBX 30 59 2 0
BITMAP
000FF000
001FF800
003FF800
003C7800
003CF000
0001E000
0001C000
0001C000
0001C000
00000000
00000000
00FFFE00
01FFFF00
03FFFF80
07FFFFC0
0FE00FE0
0FC007E0
0F8003E0
00000000
00000000
0FFFFFC0
0FFFFFE0
1FFFFFE0
3FFFFFF0
3FFFFFF8
7FFFFFFC
FFFFFFFC
FFFFFFFC
FFFFFFFC
FFC007FC
FF8007FC
FF8003FC
FF8003FC
FF8003FC
FF8003FC
FF8003FC
FF8003FC
FF8003FC
FF8003FC
FF8003FC
FF8003FC
FF8003FC
FF8003FC
FF8003FC
FF8003FC
FF8003FC
FF8003FC
FF8003FC
FF8003FC
FFC007FC
FFFFFFFC
FFFFFFFC
FFFFFFFC
7FFFFFFC
7FFFFFF8
3FFFFFF0
1FFFFFF0
0FFFFFE0
0FFFFFC0
ENDCHAR
STARTCHAR 1ED5
ENCODING 7893
SWIDTH 612 0
DWIDTH 34 0
BBX 30 59 2 0
BITMAP
000FF000
001FF800
003FF800
003C7800
003CF000
0001E000
0001C000
0001C000
0001C000
00000000
00000000
00FFFE00
01FFFF00
03FFFF80
07FFFFC0
0FE00FE0
0FC007E0
0F8003E0
00000000
00000000
0FFFFFC0
0FFFFFE0
1FFFFFE0
3FFFFFF0
3FFFFFF8
7FFFFFFC
FFFFFFFC
FFFFFFFC
FFFFFFFC
FFC007FC
FF8007FC
FF8003FC
FF8003FC
FF8003FC
FF8003FC
FF8003FC
FF8003FC
FF8003FC
FF8003FC
FF8003FC
FF8003FC
FF8003FC
FF8003FC
FF8003FC
FF8003FC
FF8003FC
FF8003FC
FF8003FC
FF8003FC
FFC007FC
FFFFFFFC
FFFFFFFC
FFFFFFFC
7FFFFFFC
7FFFFFF8
3FFFFFF0
1FFFFFF0
0FFFFFE0
0FFFFFC0
ENDCHAR
STARTCHAR 1ED6
ENCODING 7894
SWIDTH 612 0
DWIDTH 34 0
BBX 30 58 2 0
BITMAP
00100000
007E0000
01FFC0E0
07FFFBE0
0FFFFFE0
0FC3FFE0
0F007F80
0E000E00
00000000
00000000
00FFFE00
01FFFF00
03FFFF80
07FFFFC0
0FE00FE0
0FC007E0
0F8003E0
00000000
00000000
0FFFFFC0
0FFFFFE0
1FFFFFE0
3FFFFFF0
3FFFFFF8
7FFFFFFC
FFFFFFFC
FFFFFFFC
FFFFFFFC
FFC007FC
FF8007FC
FF8003FC
FF8003FC
FF8003FC
FF8003FC
FF8003FC
FF8003FC
FF8003FC
FF8003FC
FF8003FC
FF8003FC
FF8003FC
FF8003FC
FF8003FC
FF8003FC
FF8003FC
FF8003FC
FF8003FC
FF8003FC
FFC007FC
FFFFFFFC
FFFFFFFC
FFFFFFFC
7FFFFFFC
7FFFFFF8
3FFFFFF0
1FFFFFF0
0FFFFFE0
0FFFFFC0
ENDCHAR
STARTCHAR 1ED7
ENCODING 7895
SWIDTH 612 0
DWIDTH 34 0
BBX 30 58 2 0
BITMAP
00100000
007E0000
01FFC0E0
07FFFBE0
0FFFFFE0
0FC3FFE0
0F007F80
0E000E00
00000000
00000000
00FFFE00
01FFFF00
03FFFF80
07FFFFC0
0FE00FE0
0FC007E0
0F8003E0
00000000
00000000
0FFFFFC0
0FFFFFE0
1FFFFFE0
3FFFFFF0
3FFFFFF8
7FFFFFFC
FFFFFFFC
FFFFFFFC
FFFFFFFC
FFC007FC
FF8007FC
FF8003FC
FF8003FC
FF8003FC
FF8003FC
FF8003FC
FF8003FC
FF8003FC
FF8003FC
FF8003FC
FF8003FC
FF8003FC
FF8003FC
FF8003FC
FF8003FC
FF8003FC
FF8003FC
FF8003FC
FF8003FC
FFC007FC
FFFFFFFC
FFFFFFFC
FFFFFFFC
7FFFFFFC
7FFFFFF8
3FFFFFF0
1FFFFFF0
0FFFFFE0
0FFFFFC0
ENDCHAR
STARTCHAR 1ED8
ENCODING 7896
SWIDTH 612 0
DWIDTH 34 0
BBX 30 54 2 -6
BITMAP
00FFFE00
01FFFF00
03FFFF80
07FFFFC0
0FE00FE0
0FC007E0
0F8003E0
00000000
00000000
0FFFFFC0
0FFFFFE0
1FFFFFE0
3FFFFFF0
3FFFFFF8
7FFFFFFC
FFFFFFFC
FFFFFFFC
FFFFFFFC
FFC007FC
FF8007FC
FF8003FC
FF8003FC
FF8003FC
FF8003FC
FF8003FC
FF8003FC
FF8003FC
FF8003FC
FF8003FC
FF8003FC
FF8003FC
FF8003FC
FF8003FC
FF8003FC
FF8003FC
FF8003FC
FF8003FC
FF8003FC
FFC007FC
FFFFFFFC
FFFFFFFC
FFFFFFFC
7FFFFFFC
7FFFFFF8
3FFFFFF0
1FFFFFF0
0FFFFFE0
0FFFFFC0
00000000
00000000
003FF000
003FF000
003FF000
003FF000
ENDCHAR
STARTCHAR 1ED9
ENCODING 7897
SWIDTH 612 0
DWIDTH 34 0
BBX 30 54 2 -6
BITMAP
00FFFE00
01FFFF00
03FFFF80
07FFFFC0
0FE00FE0
0FC007E0
0F8003E0
00000000
00000000
0FFFFFC0
0FFFFFE0
1FFFFFE0
3FFFFFF0
3FFFFFF8
7FFFFFFC
FFFFFFFC
FFFFFFFC
FFFFFFFC
FFC007FC
FF8007FC
FF8003FC
FF8003FC
FF8003FC
FF8003FC
FF8003FC
FF8003FC
FF8003FC
FF8003FC
FF8003FC
FF8003FC
FF8003FC
FF8003FC
FF8003FC
FF8003FC
FF8003FC
FF8003FC
FF8003FC
FF8003FC
FFC007FC
FFFFFFFC
FFFFFFFC
FFFFFFFC
7FFFFFFC
7FFFFFF8
3FFFFFF0
1FFFFFF0
0FFFFFE0
0FFFFFC0
00000000
00000000
003FF000
003FF000
003FF000
003FF000
ENDCHAR
STARTCHAR 1EDA
ENCODING 7898
SWIDTH 612 0
DWIDTH 34 0
BBX 33 47 2 0
BITMAP
00000F8000
00FFFF8000
07FFFF8000
07FFF80000
07FF000E00
07E0000F00
0000000F80
0000001F80
0FFFFFFF80
0FFFFFFF00
1FFFFFFE00
3FFFFFFC00
3FFFFFF800
7FFFFFFC00
FFFFFFFC00
FFFFFFFC00
FFFFFFFC00
FFC007FC00
FF8007FC00
FF8003FC00
FF8003FC00
FF8003FC00
FF8003FC00
FF8003FC00
FF8003FC00
FF8003FC00
FF8003FC00
FF8003FC00
FF8003FC00
FF8003FC00
FF8003FC00
FF8003FC00
FF8003FC00
FF8003FC00
FF8003FC00
FF8003FC00
FF8003FC00
FFC007FC00
FFFFFFFC00
FFFFFFFC00
FFFFFFFC00
7FFFFFFC00
7FFFFFF800
3FFFFFF000
1FFFFFF000
0FFFFFE000
0FFFFFC000
ENDCHAR
STARTCHAR 1EDB
ENCODING 7899
SWIDTH 612 0
DWIDTH 34 0
BBX 33 47 2 0
BITMAP
00000F8000
00FFFF8000
07FFFF8000
07FFF80000
07FF000E00
07E0000F00
0000000F80
0000001F80
0FFFFFFF80
0FFFFFFF00
1FFFFFFE00
3FFFFFFC00
3FFFFFF800
7FFFFFFC00
FFFFFFFC00
FFFFFFFC00
FFFFFFFC00
FFC007FC00
FF8007FC00
FF8003FC00
FF8003FC00
FF8003FC00
FF8003FC00
FF8003FC00
FF8003FC00
FF8003FC00
FF8003FC00
FF8003FC00
FF8003FC00
FF8003FC00
FF8003FC00
FF8003FC00
FF8003FC00
FF8003FC00
FF8003FC00
FF8003FC00
FF8003FC00
FFC007FC00
FFFFFFFC00
FFFFFFFC00
FFFFFFFC00
7FFFFFFC00
7FFFFFF800
3FFFFFF000
1FFFFFF000
0FFFFFE000
0FFFFFC000
ENDCHAR
STARTCHAR 1EDC
ENCODING 7900
SWIDTH 612 0
DWIDTH 34 0
BBX 33 47 2 0
BITMAP
0F80000000
0FFC000000
0FFFE00000
0FFFFF0000
01FFFF0E00
00007F0F00
0000000F80
0000001F80
0FFFFFFF80
0FFFFFFF00
1FFFFFFE00
3FFFFFFC00
3FFFFFF800
7FFFFFFC00
FFFFFFFC00
FFFFFFFC00
FFFFFFFC00
FFC007FC00
FF8007FC00
FF8003FC00
FF8003FC00
FF8003FC00
FF8003FC00
FF8003FC00
FF8003FC00
FF8003FC00
FF8003FC00
FF8003FC00
FF8003FC00
FF8003FC00
FF8003FC00
FF8003FC00
FF8003FC00
FF8003FC00
FF8003FC00
FF8003FC00
FF8003FC00
FFC007FC00
FFFFFFFC00
FFFFFFFC00
FFFFFFFC00
7FFFFFFC00
7FFFFFF800
3FFFFFF000
1FFFFFF000
0FFFFFE000
0FFFFFC000
ENDCHAR
STARTCHAR 1EDD
ENCODING 7901
SWIDTH 612 0
DWIDTH 34 0
BBX 33 47 2 0
BITMAP
0F80000000
0FFC000000
0FFFE00000
0FFFFF0000
01FFFF0E00
00007F0F00
0000000F80
0000001F80
0FFFFFFF80
0FFFFFFF00
1FFFFFFE00
3FFFFFFC00
3FFFFFF800
7FFFFFFC00
FFFFFFFC00
FFFFFFFC00
FFFFFFFC00
FFC007FC00
FF8007FC00
FF8003FC00
FF8003FC00
FF8003FC00
FF8003FC00
FF8003FC00
FF8003FC00
FF8003FC00
FF8003FC00
FF8003FC00
FF8003FC00
FF8003FC00
FF8003FC00
FF8003FC00
FF8003FC00
FF8003FC00
FF8003FC00
FF8003FC00
FF8003FC00
FFC007FC00
FFFFFFFC00
FFFFFFFC00
FFFFFFFC00
7FFFFFFC00
7FFFFFF800
3FFFFFF000
1FFFFFF000
0FFFFFE000
0FFFFFC000
ENDCHAR
STARTCHAR 1EDE
ENCODING 7902
SWIDTH 612 0
DWIDTH 34 0
BBX 33 50 2 0
BITMAP
000FF00000
001FF80000
003FF80000
003C780000
003CF00000
0001E00000
0001C00000
0001C00E00
0001C00F00
0000000F80
0000001F80
0FFFFFFF80
0FFFFFFF00
1FFFFFFE00
3FFFFFFC00
3FFFFFF800
7FFFFFFC00
FFFFFFFC00
FFFFFFFC00
FFFFFFFC00
FFC007FC00
FF8007FC00
FF8003FC00
FF8003FC00
FF8003FC00
FF8003FC00
FF8003FC00
FF8003FC00
FF8003FC00
FF8003FC00
FF8003FC00
FF8003FC00
FF8003FC00
FF8003FC00
FF8003FC00
FF8003FC00
FF8003FC00
FF8003FC00
FF8003FC00
FF8003FC00
FFC007FC00
FFFFFFFC00
FFFFFFFC00
FFFFFFFC00
7FFFFFFC00
7FFFFFF800
3FFFFFF000
1FFFFFF000
0FFFFFE000
0FFFFFC000
ENDCHAR
STARTCHAR 1EDF
ENCODING 7903
SWIDTH 612 0
DWIDTH 34 0
BBX 33 50 2 0
BITMAP
000FF00000
001FF80000
003FF80000
003C780000
003CF00000
0001E00000
0001C00000
0001C00E00
0001C00F00
0000000F80
0000001F80
0FFFFFFF80
0FFFFFFF00
1FFFFFFE00
3FFFFFFC00
3FFFFFF800
7FFFFFFC00
FFFFFFFC00
FFFFFFFC00
FFFFFFFC00
FFC007FC00
FF8007FC00
FF8003FC00
FF8003FC00
FF8003FC00
FF8003FC00
FF8003FC00
FF8003FC00
FF8003FC00
FF8003FC00
FF8003FC00
FF8003FC00
FF8003FC00
FF8003FC00
FF8003FC00
FF8003FC00
FF8003FC00
FF8003FC00
FF8003FC00
FF8003FC00
FFC007FC00
FFFFFFFC00
FFFFFFFC00
FFFFFFFC00
7FFFFFFC00
7FFFFFF800
3FFFFFF000
1FFFFFF000
0FFFFFE000
0FFFFFC000
ENDCHAR
STARTCHAR 1EE0
ENCODING 7904
SWIDTH 612 0
DWIDTH 34 0
BBX 33 51 2 0
BITMAP
0038000000
00FF000000
03FFE1E000
0FFFFFE000
0FEFFFE000
0F81FFE000
0F003F0000
0C00040000
0000000E00
0000000F00
0000000F80
0000001F80
0FFFFFFF80
0FFFFFFF00
1FFFFFFE00
3FFFFFFC00
3FFFFFF800
7FFFFFFC00
FFFFFFFC00
FFFFFFFC00
FFFFFFFC00
FFC007FC00
FF8007FC00
FF8003FC00
FF8003FC00
FF8003FC00
FF8003FC00
FF8003FC00
FF8003FC00
FF8003FC00
FF8003FC00
FF8003FC00
FF8003FC00
FF8003FC00
FF8003FC00
FF8003FC00
FF8003FC00
FF8003FC00
FF8003FC00
FF8003FC00
FF8003FC00
FFC007FC00
FFFFFFFC00
FFFFFFFC00
FFFFFFFC00
7FFFFFFC00
7FFFFFF800
3FFFFFF000
1FFFFFF000
0FFFFFE000
0FFFFFC000
ENDCHAR
STARTCHAR 1EE1
ENCODING 7905
SWIDTH 612 0
DWIDTH 34 0
BBX 33 51 2 0
BITMAP
0038000000
00FF000000
03FFE1E000
0FFFFFE000
0FEFFFE000
0F81FFE000
0F003F0000
0C00040000
0000000E00
0000000F00
0000000F80
0000001F80
0FFFFFFF80
0FFFFFFF00
1FFFFFFE00
3FFFFFFC00
3FFFFFF800
7FFFFFFC00
FFFFFFFC00
FFFFFFFC00
FFFFFFFC00
FFC007FC00
FF8007FC00
FF8003FC00
FF8003FC00
FF8003FC00
FF8003FC00
FF8003FC00
FF8003FC00
FF8003FC00
FF8003FC00
FF8003FC00
FF8003FC00
FF8003FC00
FF8003FC00
FF8003FC00
FF8003FC00
FF8003FC00
FF8003FC00
FF8003FC00
FF8003FC00
FFC007FC00
FFFFFFFC00
FFFFFFFC00
FFFFFFFC00
7FFFFFFC00
7FFFFFF800
3FFFFFF000
1FFFFFF000
0FFFFFE000
0FFFFFC000
ENDCHAR
STARTCHAR 1EE2
ENCODING 7906
SWIDTH 612 0
DWIDTH 34 0
BBX 33 49 2 -6
BITMAP
0000000E00
0000000F00
0000000F80
0000001F80
0FFFFFFF80
0FFFFFFF00
1FFFFFFE00
3FFFFFFC00
3FFFFFF800
7FFFFFFC00
FFFFFFFC00
FFFFFFFC00
FFFFFFFC00
FFC007FC00
FF8007FC00
FF8003FC00
FF8003FC00
FF8003FC00
FF8003FC00
FF8003FC00
FF8003FC00
FF8003FC00
FF8003FC00
FF8003FC00
FF8003FC00
FF8003FC00
FF8003FC00
FF8003FC00
FF8003FC00
FF8003FC00
FF8003FC00
FF8003FC00
FF8003FC00
FFC007FC00
FFFFFFFC00
FFFFFFFC00
FFFFFFFC00
7FFFFFFC00
7FFFFFF800
3FFFFFF000
1FFFFFF000
0FFFFFE000
0FFFFFC000
0000000000
0000000000
003FF00000
003FF00000
003FF00000
003FF00000
ENDCHAR
STARTCHAR 1EE3
ENCODING 7907
SWIDTH 612 0
DWIDTH 34 0
BBX 33 49 2 -6
BITMAP
0000000E00
0000000F00
0000000F80
0000001F80
0FFFFFFF80
0FFFFFFF00
1FFFFFFE00
3FFFFFFC00
3FFFFFF800
7FFFFFFC00
FFFFFFFC00
FFFFFFFC00
FFFFFFFC00
FFC007FC00
FF8007FC00
FF8003FC00
FF8003FC00
FF8003FC00
FF8003FC00
FF8003FC00
FF8003FC00
FF8003FC00
FF8003FC00
FF8003FC00
FF8003FC00
FF8003FC00
FF8003FC00
FF8003FC00
FF8003FC00
FF8003FC00
FF8003FC00
FF8003FC00
FF8003FC00
FFC007FC00
FFFFFFFC00
FFFFFFFC00
FFFFFFFC00
7FFFFFFC00
7FFFFFF800
3FFFFFF000
1FFFFFF000
0FFFFFE000
0FFFFFC000
0000000000
0000000000
003FF00000
003FF00000
003FF00000
003FF00000
ENDCHAR
STARTCHAR 1EE4
ENCODING 7908
SWIDTH 612 0
DWIDTH 34 0
BBX 30 45 2 -6
BITMAP
FF8007FC
FF8007FC
FF8007FC
FF8007FC
FF8007FC
FF8007FC
FF8007FC
FF8007FC
FF8007FC
FF8007FC
FF8007FC
FF8007FC
FF8007FC
FF8007FC
FF8007FC
FF8007FC
FF8007FC
FF8007FC
FF8007FC
FF8007FC
FF8007FC
FF8007FC
FF8007FC
FF8007FC
FF8007FC
FF8007FC
FF8007FC
FF8007FC
FF8007FC
FFC00FFC
FFFFFFFC
FFFFFFFC
FFFFFFFC
7FFFFFF8
7FFFFFF8
3FFFFFF0
1FFFFFE0
0FFFFFC0
0FFFFFC0
00000000
00000000
003FF000
003FF000
003FF000
003FF000
ENDCHAR
STARTCHAR 1EE5
ENCODING 7909
SWIDTH 612 0
DWIDTH 34 0
BBX 30 45 2 -6
BITMAP
FF8007FC
FF8007FC
FF8007FC
FF8007FC
FF8007FC
FF8007FC
FF8007FC
FF8007FC
FF8007FC
FF8007FC
FF8007FC
FF8007FC
FF8007FC
FF8007FC
FF8007FC
FF8007FC
FF8007FC
FF8007FC
FF8007FC
FF8007FC
FF8007FC
FF8007FC
FF8007FC
FF8007FC
FF8007FC
FF8007FC
FF8007FC
FF8007FC
FF8007FC
FFC00FFC
FFFFFFFC
FFFFFFFC
FFFFFFFC
7FFFFFF8
7FFFFFF8
3FFFFFF0
1FFFFFE0
0FFFFFC0
0FFFFFC0
00000000
00000000
003FF000
003FF000
003FF000
003FF000
ENDCHAR
STARTCHAR 1EE6
ENCODING 7910
SWIDTH 612 0
DWIDTH 34 0
BBX 30 50 2 0
BITMAP
001FE000
003FF000
003FF800
0038F000
0039E000
0003C000
0003C000
00038000
00038000
00000000
00000000
FF8007FC
FF8007FC
FF8007FC
FF8007FC
FF8007FC
FF8007FC
FF8007FC
FF8007FC
FF8007FC
FF8007FC
FF8007FC
FF8007FC
FF8007FC
FF8007FC
FF8007FC
FF8007FC
FF8007FC
FF8007FC
FF8007FC
FF8007FC
FF8007FC
FF8007FC
FF8007FC
FF8007FC
FF8007FC
FF8007FC
FF8007FC
FF8007FC
FF8007FC
FFC00FFC
FFFFFFFC
FFFFFFFC
FFFFFFFC
7FFFFFF8
7FFFFFF8
3FFFFFF0
1FFFFFE0
0FFFFFC0
0FFFFFC0
ENDCHAR
STARTCHAR 1EE7
ENCODING 7911
SWIDTH 612 0
DWIDTH 34 0
BBX 30 50 2 0
BITMAP
001FE000
003FF000
003FF800
0038F000
0039E000
0003C000
0003C000
00038000
00038000
00000000
00000000
FF8007FC
FF8007FC
FF8007FC
FF8007FC
FF8007FC
FF8007FC
FF8007FC
FF8007FC
FF8007FC
FF8007FC
FF8007FC
FF8007FC
FF8007FC
FF8007FC
FF8007FC
FF8007FC
FF8007FC
FF8007FC
FF8007FC
FF8007FC
FF8007FC
FF8007FC
FF8007FC
FF8007FC
FF8007FC
FF8007FC
FF8007FC
FF8007FC
FF8007FC
FFC00FFC
FFFFFFFC
FFFFFFFC
FFFFFFFC
7FFFFFF8
7FFFFFF8
3FFFFFF0
1FFFFFE0
0FFFFFC0
0FFFFFC0
ENDCHAR
STARTCHAR 1EE8
ENCODING 7912
SWIDTH 612 0
DWIDTH 34 0
BBX 32 47 2 0
BITMAP
00000F80
00FFFF80
07FFFF80
07FFF800
07FF001E
07E0001F
0000001F
0000001F
FF8007FF
FF8007FF
FF8007FE
FF8007FC
FF8007F8
FF8007F8
FF8007FC
FF8007FC
FF8007FC
FF8007FC
FF8007FC
FF8007FC
FF8007FC
FF8007FC
FF8007FC
FF8007FC
FF8007FC
FF8007FC
FF8007FC
FF8007FC
FF8007FC
FF8007FC
FF8007FC
FF8007FC
FF8007FC
FF8007FC
FF8007FC
FF8007FC
FF8007FC
FFC00FFC
FFFFFFFC
FFFFFFFC
FFFFFFFC
7FFFFFF8
7FFFFFF8
3FFFFFF0
1FFFFFE0
0FFFFFC0
0FFFFFC0
ENDCHAR
STARTCHAR 1EE9
ENCODING 7913
SWIDTH 612 0
DWIDTH 34 0
BBX 32 47 2 0
BITMAP
00000F80
00FFFF80
07FFFF80
07FFF800
07FF001E
07E0001F
0000001F
0000001F
FF8007FF
FF8007FF
FF8007FE
FF8007FC
FF8007F8
FF8007F8
FF8007FC
FF8007FC
FF8007FC
FF8007FC
FF8007FC
FF8007FC
FF8007FC
FF8007FC
FF8007FC
FF8007FC
FF8007FC
FF8007FC
FF8007FC
FF8007FC
FF8007FC
FF8007FC
FF8007FC
FF8007FC
FF8007FC
FF8007FC
FF8007FC
FF8007FC
FF8007FC
FFC00FFC
FFFFFFFC
FFFFFFFC
FFFFFFFC
7FFFFFF8
7FFFFFF8
3FFFFFF0
1FFFFFE0
0FFFFFC0
0FFFFFC0
ENDCHAR
STARTCHAR 1EEA
ENCODING 7914
SWIDTH 612 0
DWIDTH 34 0
BBX 32 47 2 0
BITMAP
0F800000
0FFC0000
0FFFE000
0FFFFF00
01FFFF1E
00007F1F
0000001F
0000001F
FF8007FF
FF8007FF
FF8007FE
FF8007FC
FF8007F8
FF8007F8
FF8007FC
FF8007FC
FF8007FC
FF8007FC
FF8007FC
FF8007FC
FF8007FC
FF8007FC
FF8007FC
FF8007FC
FF8007FC
FF8007FC
FF8007FC
FF8007FC
FF8007FC
FF8007FC
FF8007FC
FF8007FC
FF8007FC
FF8007FC
FF8007FC
FF8007FC
FF8007FC
FFC00FFC
FFFFFFFC
FFFFFFFC
FFFFFFFC
7FFFFFF8
7FFFFFF8
3FFFFFF0
1FFFFFE0
0FFFFFC0
0FFFFFC0
ENDCHAR
STARTCHAR 1EEB
ENCODING 7915
SWIDTH 612 0
DWIDTH 34 0
BBX 32 47 2 0
BITMAP
0F800000
0FFC0000
0FFFE000
0FFFFF00
01FFFF1E
00007F1F
0000001F
0000001F
FF8007FF
FF8007FF
FF8007FE
FF8007FC
FF8007F8
FF8007F8
FF8007FC
FF8007FC
FF8007FC
FF8007FC
FF8007FC
FF8007FC
FF8007FC
FF8007FC
FF8007FC
FF8007FC
FF8007FC
FF8007FC
FF8007FC
FF8007FC
FF8007FC
FF8007FC
FF8007FC
FF8007FC
FF8007FC
FF8007FC
FF8007FC
FF8007FC
FF8007FC
FFC00FFC
FFFFFFFC
FFFFFFFC
FFFFFFFC
7FFFFFF8
7FFFFFF8
3FFFFFF0
1FFFFFE0
0FFFFFC0
0FFFFFC0
ENDCHAR
STARTCHAR 1EEC
ENCODING 7916
SWIDTH 612 0
DWIDTH 34 0
BBX 32 50 2 0
BITMAP
001FE000
001FF000
003FF800
003CF000
0038E000
0001E000
0003C000
0003C01E
0003C01F
0000001F
0000001F
FF8007FF
FF8007FF
FF8007FE
FF8007FC
FF8007F8
FF8007F8
FF8007FC
FF8007FC
FF8007FC
FF8007FC
FF8007FC
FF8007FC
FF8007FC
FF8007FC
FF8007FC
FF8007FC
FF8007FC
FF8007FC
FF8007FC
FF8007FC
FF8007FC
FF8007FC
FF8007FC
FF8007FC
FF8007FC
FF8007FC
FF8007FC
FF8007FC
FF8007FC
FFC00FFC
FFFFFFFC
FFFFFFFC
FFFFFFFC
7FFFFFF8
7FFFFFF8
3FFFFFF0
1FFFFFE0
0FFFFFC0
0FFFFFC0
ENDCHAR
STARTCHAR 1EED
ENCODING 7917
SWIDTH 612 0
DWIDTH 34 0
BBX 32 50 2 0
BITMAP
001FE000
001FF000
003FF800
003CF000
0038E000
0001E000
0003C000
0003C01E
0003C01F
0000001F
0000001F
FF8007FF
FF8007FF
FF8007FE
FF8007FC
FF8007F8
FF8007F8
FF8007FC
FF8007FC
FF8007FC
FF8007FC
FF8007FC
FF8007FC
FF8007FC
FF8007FC
FF8007FC
FF8007FC
FF8007FC
FF8007FC
FF8007FC
FF8007FC
FF8007FC
FF8007FC
FF8007FC
FF8007FC
FF8007FC
FF8007FC
FF8007FC
FF8007FC
FF8007FC
FFC00FFC
FFFFFFFC
FFFFFFFC
FFFFFFFC
7FFFFFF8
7FFFFFF8
3FFFFFF0
1FFFFFE0
0FFFFFC0
0FFFFFC0
ENDCHAR
STARTCHAR 1EEE
ENCODING 7918
SWIDTH 612 0
DWIDTH 34 0
BBX 32 51 2 0
BITMAP
00380000
00FF0000
03FFE1E0
0FFFFFE0
0FEFFFE0
0F81FFE0
0F003F00
0C000400
0000001E
0000001F
0000001F
0000001F
FF8007FF
FF8007FF
FF8007FE
FF8007FC
FF8007F8
FF8007F8
FF8007FC
FF8007FC
FF8007FC
FF8007FC
FF8007FC
FF8007FC
FF8007FC
FF8007FC
FF8007FC
FF8007FC
FF8007FC
FF8007FC
FF8007FC
FF8007FC
FF8007FC
FF8007FC
FF8007FC
FF8007FC
FF8007FC
FF8007FC
FF8007FC
FF8007FC
FF8007FC
FFC00FFC
FFFFFFFC
FFFFFFFC
FFFFFFFC
7FFFFFF8
7FFFFFF8
3FFFFFF0
1FFFFFE0
0FFFFFC0
0FFFFFC0
ENDCHAR
STARTCHAR 1EEF
ENCODING 7919
SWIDTH 612 0
DWIDTH 34 0
BBX 32 51 2 0
BITMAP
00380000
00FF0000
03FFE1E0
0FFFFFE0
0FEFFFE0
0F81FFE0
0F003F00
0C000400
0000001E
0000001F
0000001F
0000001F
FF8007FF
FF8007FF
FF8007FE
FF8007FC
FF8007F8
FF8007F8
FF8007FC
FF8007FC
FF8007FC
FF8007FC
FF8007FC
FF8007FC
FF8007FC
FF8007FC
FF8007FC
FF8007FC
FF8007FC
FF8007FC
FF8007FC
FF8007FC
FF8007FC
FF8007FC
FF8007FC
FF8007FC
FF8007FC
FF8007FC
FF8007FC
FF8007FC
FF8007FC
FFC00FFC
FFFFFFFC
FFFFFFFC
FFFFFFFC
7FFFFFF8
7FFFFFF8
3FFFFFF0
1FFFFFE0
0FFFFFC0
0FFFFFC0
ENDCHAR
STARTCHAR 1EF0
ENCODING 7920
SWIDTH 612 0
DWIDTH 34 0
BBX 32 49 2 -6
BITMAP
0000001E
0000001F
0000001F
0000001F
FF8007FF
FF8007FF
FF8007FE
FF8007FC
FF8007F8
FF8007F8
FF8007FC
FF8007FC
FF8007FC
FF8007FC
FF8007FC
FF8007FC
FF8007FC
FF8007FC
FF8007FC
FF8007FC
FF8007FC
FF8007FC
FF8007FC
FF8007FC
FF8007FC
FF8007FC
FF8007FC
FF8007FC
FF8007FC
FF8007FC
FF8007FC
FF8007FC
FF8007FC
FFC00FFC
FFFFFFFC
FFFFFFFC
FFFFFFFC
7FFFFFF8
7FFFFFF8
3FFFFFF0
1FFFFFE0
0FFFFFC0
0FFFFFC0
00000000
00000000
003FF000
003FF000
003FF000
003FF000
ENDCHAR
STARTCHAR 1EF1
ENCODING 7921
SWIDTH 612 0
DWIDTH 34 0
BBX 32 49 2 -6
BITMAP
0000001E
0000001F
0000001F
0000001F
FF8007FF
FF8007FF
FF8007FE
FF8007FC
FF8007F8
FF8007F8
FF8007FC
FF8007FC
FF8007FC
FF8007FC
FF8007FC
FF8007FC
FF8007FC
FF8007FC
FF8007FC
FF8007FC
FF8007FC
FF8007FC
FF8007FC
FF8007FC
FF8007FC
FF8007FC
FF8007FC
FF8007FC
FF8007FC
FF8007FC
FF8007FC
FF8007FC
FF8007FC
FFC00FFC
FFFFFFFC
FFFFFFFC
FFFFFFFC
7FFFFFF8
7FFFFFF8
3FFFFFF0
1FFFFFE0
0FFFFFC0
0FFFFFC0
00000000
00000000
003FF000
003FF000
003FF000
003FF000
ENDCHAR
STARTCHAR 1EF2
ENCODING 7922
SWIDTH 468 0
DWIDTH 26 0
BBX 26 47 0 0
BITMAP
1F000000
1FF80000
1FFFC000
1FFFFE00
03FFFE00
0000FE00
00000000
00000000
FF003FC0
FF803FC0
FF807FC0
FF807FC0
FFC07FC0
7FC0FF80
7FC0FF80
3FE0FF80
3FE1FF00
1FE1FF00
1FF1FE00
1FF3FE00
0FF3FC00
0FFBFC00
07FFF800
07FFF800
03FFF800
03FFF000
01FFF000
01FFE000
01FFE000
00FFC000
00FFC000
007FC000
007F8000
007F8000
007F8000
007F8000
007F8000
007F8000
007F8000
007F8000
007F8000
007F8000
007F8000
007F8000
007F8000
007F8000
007F8000
ENDCHAR
STARTCHAR 1EF3
ENCODING 7923
SWIDTH 468 0
DWIDTH 26 0
BBX 26 47 0 0
BITMAP
1F000000
1FF80000
1FFFC000
1FFFFE00
03FFFE00
0000FE00
00000000
00000000
FF003FC0
FF803FC0
FF807FC0
FF807FC0
FFC07FC0
7FC0FF80
7FC0FF80
3FE0FF80
3FE1FF00
1FE1FF00
1FF1FE00
1FF3FE00
0FF3FC00
0FFBFC00
07FFF800
07FFF800
03FFF800
03FFF000
01FFF000
01FFE000
01FFE000
00FFC000
00FFC000
007FC000
007F8000
007F8000
007F8000
007F8000
007F8000
007F8000
007F8000
007F8000
007F8000
007F8000
007F8000
007F8000
007F8000
007F8000
007F8000
ENDCHAR
STARTCHAR 1EF4
ENCODING 7924
SWIDTH 468 0
DWIDTH 26 0
BBX 26 45 0 -6
BITMAP
FF003FC0
FF803FC0
FF807FC0
FF807FC0
FFC07FC0
7FC0FF80
7FC0FF80
3FE0FF80
3FE1FF00
1FE1FF00
1FF1FE00
1FF3FE00
0FF3FC00
0FFBFC00
07FFF800
07FFF800
03FFF800
03FFF000
01FFF000
01FFE000
01FFE000
00FFC000
00FFC000
007FC000
007F8000
007F8000
007F8000
007F8000
007F8000
007F8000
007F8000
007F8000
007F8000
007F8000
007F8000
007F8000
007F8000
007F8000
007F8000
00000000
00000000
007F8000
007F8000
007F8000
007F8000
ENDCHAR
STARTCHAR 1EF5
ENCODING 7925
SWIDTH 468 0
DWIDTH 26 0
BBX 26 45 0 -6
BITMAP
FF003FC0
FF803FC0
FF807FC0
FF807FC0
FFC07FC0
7FC0FF80
7FC0FF80
3FE0FF80
3FE1FF00
1FE1FF00
1FF1FE00
1FF3FE00
0FF3FC00
0FFBFC00
07FFF800
07FFF800
03FFF800
03FFF000
01FFF000
01FFE000
01FFE000
00FFC000
00FFC000
007FC000
007F8000
007F8000
007F8000
007F8000
007F8000
007F8000
007F8000
007F8000
007F8000
007F8000
007F8000
007F8000
007F8000
007F8000
007F8000
00000000
00000000
007F8000
007F8000
007F8000
007F8000
ENDCHAR
STARTCHAR 1EF6
ENCODING 7926
SWIDTH 468 0
DWIDTH 26 0
BBX 26 50 0 0
BITMAP
007F8000
00FFC000
00FFE000
00E3C000
00E78000
000F0000
000F0000
000E0000
000E0000
00000000
00000000
FF003FC0
FF803FC0
FF807FC0
FF807FC0
FFC07FC0
7FC0FF80
7FC0FF80
3FE0FF80
3FE1FF00
1FE1FF00
1FF1FE00
1FF3FE00
0FF3FC00
0FFBFC00
07FFF800
07FFF800
03FFF800
03FFF000
01FFF000
01FFE000
01FFE000
00FFC000
00FFC000
007FC000
007F8000
007F8000
007F8000
007F8000
007F8000
007F8000
007F8000
007F8000
007F8000
007F8000
007F8000
007F8000
007F8000
007F8000
007F8000
ENDCHAR
STARTCHAR 1EF7
ENCODING 7927
SWIDTH 468 0
DWIDTH 26 0
BBX 26 50 0 0
BITMAP
007F8000
00FFC000
00FFE000
00E3C000
00E78000
000F0000
000F0000
000E0000
000E0000
00000000
00000000
FF003FC0
FF803FC0
FF807FC0
FF807FC0
FFC07FC0
7FC0FF80
7FC0FF80
3FE0FF80
3FE1FF00
1FE1FF00
1FF1FE00
1FF3FE00
0FF3FC00
0FFBFC00
07FFF800
07FFF800
03FFF800
03FFF000
01FFF000
01FFE000
01FFE000
00FFC000
00FFC000
007FC000
007F8000
007F8000
007F8000
007F8000
007F8000
007F8000
007F8000
007F8000
007F8000
007F8000
007F8000
007F8000
007F8000
007F8000
007F8000
ENDCHAR
STARTCHAR 1EF8
ENCODING 7928
SWIDTH 468 0
DWIDTH 26 0
BBX 26 50 0 0
BITMAP
00E00000
03FC0000
0FFF0780
3FFFFF80
3FBFFF80
3E07FF80
3C00FC00
30001000
00000000
00000000
00000000
FF003FC0
FF803FC0
FF807FC0
FF807FC0
FFC07FC0
7FC0FF80
7FC0FF80
3FE0FF80
3FE1FF00
1FE1FF00
1FF1FE00
1FF3FE00
0FF3FC00
0FFBFC00
07FFF800
07FFF800
03FFF800
03FFF000
01FFF000
01FFE000
01FFE000
00FFC000
00FFC000
007FC000
007F8000
007F8000
007F8000
007F8000
007F8000
007F8000
007F8000
007F8000
007F8000
007F8000
007F8000
007F8000
007F8000
007F8000
007F8000
ENDCHAR
STARTCHAR 1EF9
ENCODING 7929
SWIDTH 468 0
DWIDTH 26 0
BBX 26 50 0 0
BITMAP
00E00000
03FC0000
0FFF0780
3FFFFF80
3FBFFF80
3E07FF80
3C00FC00
30001000
00000000
00000000
00000000
FF003FC0
FF803FC0
FF807FC0
FF807FC0
FFC07FC0
7FC0FF80
7FC0FF80
3FE0FF80
3FE1FF00
1FE1FF00
1FF1FE00
1FF3FE00
0FF3FC00
0FFBFC00
07FFF800
07FFF800
03FFF800
03FFF000
01FFF000
01FFE000
01FFE000
00FFC000
00FFC000
007FC000
007F8000
007F8000
007F8000
007F8000
007F8000
007F8000
007F8000
007F8000
007F8000
007F8000
007F8000
007F8000
007F8000
007F8000
007F8000
ENDCHAR
STARTCHAR 2013
ENCODING 8211
SWIDTH 486 0
DWIDTH 27 0
BBX 26 6 1 16
BITMAP
FFFFFFC0
FFFFFFC0
FFFFFFC0
FFFFFFC0
FFFFFFC0
FFFFFFC0
ENDCHAR
STARTCHAR 2014
ENCODING 8212
SWIDTH 990 0
DWIDTH 55 0
BBX 53 6 1 16
BITMAP
FFFFFFFFFFFFF8
FFFFFFFFFFFFF8
FFFFFFFFFFFFF8
FFFFFFFFFFFFF8
FFFFFFFFFFFFF8
FFFFFFFFFFFFF8
ENDCHAR
STARTCHAR 2018
ENCODING 8216
SWIDTH 198 0
DWIDTH 11 0
BBX 10 13 1 26
BITMAP
0FC0
1F80
1F80
3F00
7E00
7E00
FC00
FC00
FC00
FC00
FC00
FC00
7C00
ENDCHAR
STARTCHAR 2019
ENCODING 8217
SWIDTH 198 0
DWIDTH 11 0
BBX 10 13 1 26
BITMAP
0F80
0F80
0FC0
0FC0
0FC0
0FC0
0FC0
0F80
1F80
3F00
7E00
7E00
FC00
ENDCHAR
STARTCHAR 201A
ENCODING 8218
SWIDTH 162 0
DWIDTH 9 0
BBX 10 13 -2 -5
BITMAP
0F80
0FC0
0FC0
0FC0
0FC0
0FC0
0FC0
0FC0
1F80
3F00
3F00
7E00
FC00
ENDCHAR
STARTCHAR 201C
ENCODING 8220
SWIDTH 360 0
DWIDTH 20 0
BBX 19 13 1 26
BITMAP
0FC7E0
1F8FC0
1F8FC0
3F1F80
7E3F00
7E3E00
FC7E00
FC7E00
FC7E00
FC7E00
FC7E00
FC7E00
7C3E00
ENDCHAR
STARTCHAR 201D
ENCODING 8221
SWIDTH 360 0
DWIDTH 20 0
BBX 19 13 1 26
BITMAP
0F87C0
0F87C0
0FC7E0
0FC7E0
0FC7E0
0FC7E0
0FC7E0
0F8FC0
1F8FC0
3F1F80
7E3F00
7E3F00
FC7E00
ENDCHAR
STARTCHAR 201E
ENCODING 8222
SWIDTH 360 0
DWIDTH 20 0
BBX 19 13 1 -5
BITMAP
0F8780
0F87C0
0FC7E0
0FC7E0
0FC7E0
0FC7E0
0FC7E0
0F8FC0
1F8FC0
3F1F80
7E3F00
7E3F00
FC7E00
ENDCHAR
STARTCHAR 2020
ENCODING 8224
SWIDTH 522 0
DWIDTH 29 0
BBX 27 39 1 0
BITMAP
001F0000
001F0000
001F0000
001F0000
001F0000
001F0000
001F0000
001F0000
001F0000
001F0000
001F0000
FFFFFFE0
FFFFFFE0
FFFFFFE0
FFFFFFE0
FFFFFFE0
FFFFFFE0
001F0000
001F0000
001F0000
001F0000
001F0000
001F0000
001F0000
001F0000
001F0000
001F0000
001F0000
001F0000
001F0000
001F0000
001F0000
001F0000
001F0000
001F0000
001F0000
001F0000
001F0000
001F0000
ENDCHAR
STARTCHAR 2021
ENCODING 8225
SWIDTH 522 0
DWIDTH 29 0
BBX 27 39 1 0
BITMAP
001F0000
001F0000
001F0000
001F0000
001F0000
001F0000
001F0000
001F0000
001F0000
001F0000
001F0000
FFFFFFE0
FFFFFFE0
FFFFFFE0
FFFFFFE0
FFFFFFE0
FFFFFFE0
001F0000
001F0000
001F0000
001F0000
001F0000
FFFFFFE0
FFFFFFE0
FFFFFFE0
FFFFFFE0
FFFFFFE0
FFFFFFE0
001F0000
001F0000
001F0000
001F0000
001F0000
001F0000
001F0000
001F0000
001F0000
001F0000
001F0000
ENDCHAR
STARTCHAR 2022
ENCODING 8226
SWIDTH 234 0
DWIDTH 13 0
BBX 11 11 1 16
BITMAP
FFE0
FFE0
FFE0
FFE0
FFE0
FFE0
FFE0
FFE0
FFE0
FFE0
FFE0
ENDCHAR
STARTCHAR 2026
ENCODING 8230
SWIDTH 504 0
DWIDTH 28 0
BBX 26 7 1 0
BITMAP
FE3F9FC0
FE3F9FC0
FE3F9FC0
FE3F9FC0
FE3F9FC0
FE3F9FC0
FE3F9FC0
ENDCHAR
STARTCHAR 2030
ENCODING 8240
SWIDTH 882 0
DWIDTH 49 0
BBX 45 39 2 0
BITMAP
7FF007E00000
7FF807E00000
FFF80FC00000
FFF80FC00000
FFF81F800000
F8781F800000
F8783F000000
F8783F000000
F8787E000000
FFF87E000000
FFF8FC000000
FFF8FC000000
7FF9F8000000
0001F8000000
0003F8000000
0003F0000000
0003F0000000
0007E0000000
0007E0000000
000FC0000000
000FC0000000
001F80000000
001F80000000
003F00000000
003F00000000
007E00000000
007E3FF87FF0
00FC7FFCFFF8
00FC7FFCFFF8
01FC7FFCFFF8
01F87FFCFFF8
03F8787CF8F8
03F0787CF8F8
07F0787CF8F8
07E07FFCFFF8
07E07FFCFFF8
0FC07FFCFFF8
0FC07FFCFFF8
1F803FF87FF0
ENDCHAR
STARTCHAR 2039
ENCODING 8249
SWIDTH 252 0
DWIDTH 14 0
BBX 12 22 1 8
BITMAP
0010
0030
00F0
01F0
03F0
0FE0
1FC0
3F80
7E00
FC00
FC00
FC00
FC00
7F00
3F80
0FC0
07F0
03F0
01F0
0070
0030
0010
ENDCHAR
STARTCHAR 203A
ENCODING 8250
SWIDTH 252 0
DWIDTH 14 0
BBX 12 23 1 7
BITMAP
8000
C000
E000
F000
FC00
FE00
7F00
1FC0
0FE0
07F0
01F0
01F0
01F0
03F0
07F0
0FC0
3F80
7F00
FE00
F800
F000
E000
C000
ENDCHAR
STARTCHAR 2044
ENCODING 8260
SWIDTH 342 0
DWIDTH 19 0
BBX 22 39 -1 0
BITMAP
00003C
00007C
000078
0000F8
0000F0
0001F0
0001F0
0003E0
0003E0
0007C0
0007C0
000F80
000F80
001F00
001F00
003E00
003E00
007C00
007C00
007800
00F800
00F800
01F000
01F000
03E000
03E000
07C000
07C000
0F8000
0F8000
1F0000
1F0000
3E0000
3E0000
7C0000
7C0000
7C0000
F80000
F80000
ENDCHAR
STARTCHAR 20AB
ENCODING 8363
SWIDTH 468 0
DWIDTH 26 0
BBX 25 39 -1 0
BITMAP
1FFFFC00
1FFFFE00
1FFFFF00
1FFFFF80
1FFFFF80
1FFFFF80
1FFFFF80
1FC07F80
1FC03F80
1FC03F80
1FC03F80
1FC03F80
1FC03F80
1FC03F80
FFF83F80
FFF83F80
FFF83F80
FFF83F80
1FC03F80
1FC03F80
1FC03F80
1FC03F80
1FC03F80
1FC03F80
1FFFFF80
1FFFFF80
1FFFFF80
1FFFFF80
1FFFFF00
1FFFFE00
1FFFFC00
00000000
00000000
1FFFFF80
1FFFFF80
1FFFFF80
1FFFFF80
1FFFFF80
1FFFFF80
ENDCHAR
STARTCHAR 20AC
ENCODING 8364
SWIDTH 594 0
DWIDTH 33 0
BBX 30 39 2 0
BITMAP
0FFFFF80
0FFFFFC0
0FFFFFE0
0FFFFFF0
0FFFFFF0
0FFFFFF8
0FFFFFFC
0FFFFFFC
0FFFFFFC
0FF007FC
0FF007FC
0FF00000
0FF00000
FFFFC000
FFFFC000
FFFFC000
FFFFC000
FFFFC000
0FF00000
0FF00000
0FF00000
FFFFC000
FFFFC000
FFFFC000
FFFFC000
FFFFC000
0FF00000
0FF00000
0FF007FC
0FF007FC
0FFFFFFC
0FFFFFFC
0FFFFFFC
0FFFFFF8
0FFFFFF0
0FFFFFF0
0FFFFFE0
0FFFFFC0
0FFFFFC0
ENDCHAR
STARTCHAR 2122
ENCODING 8482
SWIDTH 612 0
DWIDTH 34 0
BBX 33 20 0 19
BITMAP
3FF83E3E00
7FFC7E3F00
FFFCFE3F00
FFFEFE3F80
F7DEFE7F80
E7CEFF7F80
07C0F77780
07C0F77780
07C0F77780
07C0F77780
07C0F36780
07C0F3E780
07C0F3E780
07C0F3E780
07C0F3C780
07C0F00780
07C0F00780
07C0F00780
07C0F00780
07C0F00780
ENDCHAR
STARTCHAR 215B
ENCODING 8539
SWIDTH 648 0
DWIDTH 36 0
BBX 32 39 2 0
BITMAP
0F800780
1F800F80
3F800F80
7F801F00
FF801F00
FF803E00
F7803E00
E7807C00
07807C00
0780F800
0780F800
0781F000
0781F000
0781E000
0783E000
0783C000
0787C000
0787C000
078F8000
078F8000
001F0FFE
001F1FFE
003E3FFF
003E3FFF
007C3E1F
007C3E0F
00F83E0F
00F83E1F
01F01FFF
01F00FFE
03E03F1F
03E03E0F
03E03E0F
07C03E0F
07C03F1F
0F803FFF
0F801FFF
1F001FFE
1F000FFC
ENDCHAR
STARTCHAR 215C
ENCODING 8540
SWIDTH 702 0
DWIDTH 39 0
BBX 35 39 2 0
BITMAP
FFF001F000
FFF801F000
7FF803E000
3FF803E000
00F803C000
00F807C000
00F8078000
00F80F8000
1FF80F8000
1FF81F0000
1FF81F0000
1FF83E0000
00F83E0000
00F87C0000
00F87C0000
3FF8F80000
3FF8F80000
7FF9F00000
FFF9F00000
FFF3E00000
0003E1FF80
0007C3FFC0
0007C7FFE0
0007C7FFE0
000F87C3E0
000F8781E0
001F0781E0
001F07C3E0
003E03FFC0
003E03FFC0
007C07C3E0
007C0781E0
00F80781E0
00F80781E0
01F007C3E0
01F007FFE0
03E007FFE0
03E003FFC0
07E001FF80
ENDCHAR
STARTCHAR 215D
ENCODING 8541
SWIDTH 702 0
DWIDTH 39 0
BBX 35 39 2 0
BITMAP
7FF001F000
FFF001F000
FFF001E000
FFE003E000
F80003C000
F80007C000
F800078000
FFF00F8000
FFF00F8000
FFF01F0000
FFF01F0000
7FF03E0000
00F03E0000
00F07C0000
00F07C0000
3FF0F80000
3FF0F80000
7FF1F00000
FFF1F00000
FFF1E00000
0003E1FF80
0003C3FFC0
0007C7FFE0
0007C7FFE0
000F87C3E0
000F8781E0
001F0781E0
001F07C3E0
003E03FFC0
003E03FFC0
007C07C3E0
007C0781E0
00F80781E0
00F80781E0
01F007C3E0
01F007FFE0
03E007FFE0
03E003FFC0
03E001FF80
ENDCHAR
STARTCHAR 215E
ENCODING 8542
SWIDTH 648 0
DWIDTH 36 0
BBX 32 39 2 0
BITMAP
FFF00F80
FFF01F00
7FF01F00
3FF03E00
01F03E00
01F03C00
03E07C00
03E07800
03E0F800
07C0F000
07C1F000
07C1F000
0F83E000
0F83E000
0F87C000
0F87C000
1F0F8000
1F0F8000
1F1F0000
1E1F0000
003E1FFC
003E1FFE
007C3FFF
007C3FFF
00783E1F
00F83C0F
00F83C0F
01F03E1F
01F01FFE
03E01FFE
03E03E3F
07C03C1F
07C03C0F
0F803C0F
0F803E1F
1F003FFF
1F003FFF
3E001FFE
3E000FFC
ENDCHAR
STARTCHAR 2190
ENCODING 8592
SWIDTH 414 0
DWIDTH 23 0
BBX 21 18 1 7
BITMAP
03C000
07C000
0FC000
1FC000
3F8000
FE0000
FFFFF8
FFFFF8
FFFFF8
FFFFF8
FFFFF8
FFFFF8
FE0000
7F0000
3F8000
1FC000
0FC000
07C000
ENDCHAR
STARTCHAR 2191
ENCODING 8593
SWIDTH 360 0
DWIDTH 20 0
BBX 18 21 1 7
BITMAP
03F800
07FC00
0FFE00
1FFF00
3FFF80
7FFFC0
FFFFC0
FFF7C0
FBF3C0
F3F1C0
03F000
03F000
03F000
03F000
03F000
03F000
03F000
03F000
03F000
03F000
03F000
ENDCHAR
STARTCHAR 2192
ENCODING 8594
SWIDTH 414 0
DWIDTH 23 0
BBX 21 18 1 7
BITMAP
001E00
001F80
001FC0
000FE0
0007F0
0003F8
FFFFF8
FFFFF8
FFFFF8
FFFFF8
FFFFF8
FFFFF8
0003F8
0007F0
000FE0
001FC0
001F80
001F00
ENDCHAR
STARTCHAR 2193
ENCODING 8595
SWIDTH 360 0
DWIDTH 20 0
BBX 18 21 1 7
BITMAP
03F000
03F000
03F000
03F000
03F000
03F000
03F000
03F000
03F000
03F000
03F000
E3F1C0
F3F3C0
FBF7C0
FFF7C0
FFFFC0
7FFF80
3FFF00
1FFE00
0FFC00
07F800
ENDCHAR
STARTCHAR 2194
ENCODING 8596
SWIDTH 522 0
DWIDTH 29 0
BBX 27 18 1 7
BITMAP
03C07800
07C07E00
0FC07F00
1FC03F80
3F801FC0
FE000FE0
FFFFFFE0
FFFFFFE0
FFFFFFE0
FFFFFFE0
FFFFFFE0
FFFFFFE0
FE000FE0
7F001FC0
3F803F80
1FC07F00
0FC07E00
07C07C00
ENDCHAR
STARTCHAR 2195
ENCODING 8597
SWIDTH 360 0
DWIDTH 20 0
BBX 18 27 1 7
BITMAP
03F800
07FC00
0FFE00
1FFF00
3FFF80
7FFFC0
FFFFC0
FFF7C0
FBF3C0
F3F1C0
03F000
03F000
03F000
03F000
03F000
03F000
03F000
E3F1C0
F3F3C0
FBF7C0
FFF7C0
FFFFC0
7FFF80
3FFF00
1FFE00
0FFC00
07F800
ENDCHAR
STARTCHAR 2196
ENCODING 8598
SWIDTH 396 0
DWIDTH 22 0
BBX 20 18 1 7
BITMAP
0FFC00
1FFE00
3FFE00
3FFE00
7F8000
FFC000
FFE000
FFF000
7FFC00
7BFE00
7DFF00
7CFF80
7C3FC0
7C1FF0
380FF0
1807E0
0003C0
000080
ENDCHAR
STARTCHAR 2197
ENCODING 8599
SWIDTH 396 0
DWIDTH 22 0
BBX 20 18 1 7
BITMAP
03FF00
07FF80
07FFC0
03FFE0
000FF0
003FF0
007FF0
00FFF0
01FFF0
03FDF0
0FF9F0
1FF1E0
3FE1E0
7FC3E0
FF01C0
7E0080
3C0000
180000
ENDCHAR
STARTCHAR 2198
ENCODING 8600
SWIDTH 396 0
DWIDTH 22 0
BBX 20 18 1 7
BITMAP
180000
3C0000
7E0080
FF01C0
7FC3E0
3FE1E0
1FF1F0
0FF9F0
03FDF0
01FFF0
00FFF0
007FF0
003FF0
001FF0
03FFE0
07FFC0
07FF80
03FF00
ENDCHAR
STARTCHAR 2199
ENCODING 8601
SWIDTH 396 0
DWIDTH 22 0
BBX 20 18 1 7
BITMAP
000080
0003C0
1807E0
380FF0
7C1FF0
7C3FC0
7CFF80
7DFF00
7BFE00
7FFC00
FFF000
FFE000
FFC000
7F8000
3FFE00
3FFE00
1FFE00
0FFC00
ENDCHAR
STARTCHAR 220F
ENCODING 8719
SWIDTH 486 0
DWIDTH 27 0
BBX 26 39 1 0
BITMAP
FFFFFFC0
FFFFFFC0
FFFFFFC0
FFFFFFC0
FFFFFFC0
FFFFFFC0
07E1F800
07E1F800
07E1F800
07E1F800
07E1F800
07E1F800
07E1F800
07E1F800
07E1F800
07E1F800
07E1F800
07E1F800
07E1F800
07E1F800
07E1F800
07E1F800
07E1F800
07E1F800
07E1F800
07E1F800
07E1F800
07E1F800
07E1F800
07E1F800
07E1F800
07E1F800
07E1F800
07E1F800
07E1F800
07E1F800
07E1F800
07E1F800
07E1F800
ENDCHAR
STARTCHAR 2211
ENCODING 8721
SWIDTH 396 0
DWIDTH 22 0
BBX 21 39 1 0
BITMAP
FFFFF8
FFFFF8
FFFFF8
FFFFF8
FFFFF0
FFFFE0
7E0000
7E0000
3F0000
3F0000
1F8000
1F8000
0FC000
0FC000
07E000
07E000
03F000
03F000
01F800
01FC00
01F800
03F800
03F000
07F000
07E000
0FE000
0FC000
1FC000
1F8000
3F8000
3F0000
7E0000
7E0000
FFFFE0
FFFFF0
FFFFF8
FFFFF8
FFFFF8
FFFFF8
ENDCHAR
STARTCHAR 2212
ENCODING 8722
SWIDTH 414 0
DWIDTH 23 0
BBX 22 5 1 17
BITMAP
FFFFFC
FFFFFC
FFFFFC
FFFFFC
FFFFFC
ENDCHAR
STARTCHAR 221A
ENCODING 8730
SWIDTH 522 0
DWIDTH 29 0
BBX 43 50 1 0
BITMAP
000001FFFFC0
000003FFFFE0
000003FFFFE0
000003FFFFE0
000003FFFFE0
000003FFFFE0
000003E00000
000003E00000
000003E00000
000007E00000
000007E00000
000007E00000
000007E00000
000007C00000
000007C00000
000007C00000
00000FC00000
00000FC00000
00000FC00000
00000FC00000
00000F800000
00000F800000
00000F800000
00001F800000
00001F800000
00001F800000
00001F800000
00001F800000
7FC01F000000
7FC01F000000
FFC03F000000
FFE03F000000
FFE03F000000
FFE03F000000
03F03F000000
03F03E000000
01F03E000000
01F83E000000
01F87E000000
00F87E000000
00FC7E000000
00FC7E000000
00FC7C000000
007E7C000000
007FFC000000
007FFC000000
003FFC000000
003FFC000000
003FFC000000
001FF8000000
ENDCHAR
STARTCHAR 2260
ENCODING 8800
SWIDTH 414 0
DWIDTH 23 0
BBX 22 23 1 7
BITMAP
001F80
001F00
001F00
003F00
FFFFFC
FFFFFC
FFFFFC
FFFFFC
FFFFFC
FFFFFC
00FC00
00FC00
00FC00
FFFFFC
FFFFFC
FFFFFC
FFFFFC
FFFFFC
03F000
03F000
03E000
07E000
07E000
ENDCHAR
STARTCHAR 2264
ENCODING 8804
SWIDTH 378 0
DWIDTH 21 0
BBX 20 39 1 0
BITMAP
000010
000070
0001F0
0007F0
000FF0
003FF0
00FFF0
03FFF0
0FFFC0
3FFF00
FFFC00
FFF000
FFC000
FF0000
FC0000
FC0000
FC0000
FF0000
FFC000
FFF000
7FFC00
1FFF00
07FFC0
01FFF0
007FF0
003FF0
000FF0
0003F0
0000F0
000030
000000
000000
000000
FFFFF0
FFFFF0
FFFFF0
FFFFF0
FFFFF0
FFFFF0
ENDCHAR
STARTCHAR 2265
ENCODING 8805
SWIDTH 378 0
DWIDTH 21 0
BBX 20 39 1 0
BITMAP
800000
E00000
F80000
FC0000
FF0000
FFC000
FFF000
FFFC00
3FFF00
0FFFC0
03FFF0
00FFF0
003FF0
000FF0
0003F0
0003F0
0007F0
001FF0
007FF0
01FFF0
07FFE0
1FFF80
7FFE00
FFF800
FFE000
FFC000
FF0000
FC0000
F00000
C00000
000000
000000
000000
FFFFF0
FFFFF0
FFFFF0
FFFFF0
FFFFF0
FFFFF0
ENDCHAR
ENDFONT
